<?xml version="1.0" encoding="utf-8"?>
<!-- Generator: Adobe Illustrator 16.0.0, SVG Export Plug-In . SVG Version: 6.00 Build 0)  -->
<!DOCTYPE svg PUBLIC "-//W3C//DTD SVG 1.1//EN" "http://www.w3.org/Graphics/SVG/1.1/DTD/svg11.dtd">
<svg version="1.1" id="Layer_1" xmlns="http://www.w3.org/2000/svg" xmlns:xlink="http://www.w3.org/1999/xlink" x="0px" y="0px"
	 width="1440px" height="50px" viewBox="0 0 1440 50" enable-background="new 0 0 1440 50" xml:space="preserve">
<g>
	<line fill="#CEAB4D" x1="774.125" y1="25.429" x2="1440" y2="25.429"/>
	<polygon fill="#CEAB4D" points="774.125,25.02 1440,25.429 774.125,25.838 	"/>
</g>
<g>
	<line fill="#CEAB4D" x1="670.375" y1="25.429" x2="0" y2="25.429"/>
	<polygon fill="#CEAB4D" points="670.375,25.84 0,25.429 670.375,25.018 	"/>
</g>
<radialGradient id="SVGID_1_" cx="220.9844" cy="128.4297" r="11.8008" gradientTransform="matrix(0.7071 0.7071 -0.6286 0.6286 608.6099 -209.6074)" gradientUnits="userSpaceOnUse">
	<stop  offset="0" style="stop-color:#FFF58A"/>
	<stop  offset="1" style="stop-color:#C49A2B"/>
</radialGradient>
<rect x="674.583" y="14.144" transform="matrix(0.7071 -0.7071 0.7071 0.7071 182.845 492.526)" fill="none" stroke="url(#SVGID_1_)" stroke-width="0.8041" stroke-miterlimit="10" width="22.792" height="22.792"/>
<radialGradient id="SVGID_2_" cx="226.6748" cy="134.1211" r="11.7999" gradientTransform="matrix(0.7071 0.7071 -0.6286 0.6286 616.6553 -217.6543)" gradientUnits="userSpaceOnUse">
	<stop  offset="0" style="stop-color:#FFF58A"/>
	<stop  offset="1" style="stop-color:#C49A2B"/>
</radialGradient>
<rect x="682.629" y="14.144" transform="matrix(0.7071 -0.7071 0.7071 0.7071 185.2014 498.2151)" fill="none" stroke="url(#SVGID_2_)" stroke-width="0.8041" stroke-miterlimit="10" width="22.792" height="22.792"/>
<radialGradient id="SVGID_3_" cx="242.2573" cy="150.001" r="17.3356" gradientTransform="matrix(0.7071 0.7071 -0.6286 0.6286 639.0977 -239.7109)" gradientUnits="userSpaceOnUse">
	<stop  offset="0" style="stop-color:#FFF58A"/>
	<stop  offset="1" style="stop-color:#C49A2B"/>
</radialGradient>
<rect x="699.515" y="8.988" transform="matrix(0.7071 -0.7071 0.7071 0.7071 191.5928 514.0063)" fill="none" stroke="url(#SVGID_3_)" stroke-width="1.1812" stroke-miterlimit="10" width="33.484" height="33.484"/>
<radialGradient id="SVGID_4_" cx="250.6157" cy="158.3574" r="17.3349" gradientTransform="matrix(0.7071 0.7071 -0.6286 0.6286 650.9263 -251.5205)" gradientUnits="userSpaceOnUse">
	<stop  offset="0" style="stop-color:#FFF58A"/>
	<stop  offset="1" style="stop-color:#C49A2B"/>
</radialGradient>
<rect x="711.344" y="8.999" transform="matrix(0.7071 -0.7071 0.7071 0.7071 195.0396 522.3633)" fill="none" stroke="url(#SVGID_4_)" stroke-width="1.1812" stroke-miterlimit="10" width="33.485" height="33.484"/>
<radialGradient id="SVGID_5_" cx="266.4971" cy="173.9424" r="11.8008" gradientTransform="matrix(0.7071 0.7071 -0.6286 0.6286 672.9839 -273.957)" gradientUnits="userSpaceOnUse">
	<stop  offset="0" style="stop-color:#FFF58A"/>
	<stop  offset="1" style="stop-color:#C49A2B"/>
</radialGradient>
<rect x="738.959" y="14.157" transform="matrix(0.7071 -0.7071 0.7071 0.7071 201.6969 538.0569)" fill="none" stroke="url(#SVGID_5_)" stroke-width="0.8041" stroke-miterlimit="10" width="22.791" height="22.794"/>
<radialGradient id="SVGID_6_" cx="272.1851" cy="179.6309" r="11.8012" gradientTransform="matrix(0.7071 0.7071 -0.6286 0.6286 681.0142 -282.0215)" gradientUnits="userSpaceOnUse">
	<stop  offset="0" style="stop-color:#FFF58A"/>
	<stop  offset="1" style="stop-color:#C49A2B"/>
</radialGradient>
<rect x="746.986" y="14.137" transform="matrix(0.7071 -0.7071 0.7071 0.7071 204.0707 543.7361)" fill="none" stroke="url(#SVGID_6_)" stroke-width="0.8041" stroke-miterlimit="10" width="22.795" height="22.792"/>
</svg>
