<?xml version="1.0" encoding="utf-8"?>
<!-- Generator: Adobe Illustrator 16.0.0, SVG Export Plug-In . SVG Version: 6.00 Build 0)  -->
<!DOCTYPE svg PUBLIC "-//W3C//DTD SVG 1.1//EN" "http://www.w3.org/Graphics/SVG/1.1/DTD/svg11.dtd">
<svg version="1.1" id="Layer_1" xmlns="http://www.w3.org/2000/svg" xmlns:xlink="http://www.w3.org/1999/xlink" x="0px" y="0px"
	 width="1440px" height="50px" viewBox="0 0 1440 50" enable-background="new 0 0 1440 50" xml:space="preserve">
<g>
	
		<radialGradient id="SVGID_1_" cx="730.0032" cy="22.3301" r="8.7446" gradientTransform="matrix(1 0 0 -0.8889 -8.3599 24.5601)" gradientUnits="userSpaceOnUse">
		<stop  offset="0" style="stop-color:#FFF58A"/>
		<stop  offset="1" style="stop-color:#C49A2B"/>
	</radialGradient>
	<polygon fill="none" stroke="url(#SVGID_1_)" stroke-width="0.4265" stroke-miterlimit="10" points="732.25,10.464 721.659,0.214 
		711.038,10.464 	"/>
	
		<radialGradient id="SVGID_2_" cx="750.3635" cy="-7.0459" r="9.8234" gradientTransform="matrix(1 0 0 -0.8889 -8.3599 24.5601)" gradientUnits="userSpaceOnUse">
		<stop  offset="0" style="stop-color:#FFF58A"/>
		<stop  offset="1" style="stop-color:#C49A2B"/>
	</radialGradient>
	<polygon fill="none" stroke="url(#SVGID_2_)" stroke-width="0.4265" stroke-miterlimit="10" points="748.766,26.447 
		731.526,42.986 746.945,42.986 752.722,30.273 	"/>
	
		<radialGradient id="SVGID_3_" cx="709.8899" cy="-6.9243" r="10.0197" gradientTransform="matrix(1 0 0 -0.8889 -8.3599 24.5601)" gradientUnits="userSpaceOnUse">
		<stop  offset="0" style="stop-color:#FFF58A"/>
		<stop  offset="1" style="stop-color:#C49A2B"/>
	</radialGradient>
	<polygon fill="none" stroke="url(#SVGID_3_)" stroke-width="0.4265" stroke-miterlimit="10" points="694.728,26.203 690.6,30.188 
		696.375,42.986 712.221,42.986 	"/>
</g>
<g>
	<polygon fill="#CEAB4D" points="748.25,22.199 1435,22.676 748.25,23.154 	"/>
</g>
<g>
	<polygon fill="#CEAB4D" points="695.5,23.156 5,22.676 695.5,22.196 	"/>
</g>
<radialGradient id="SVGID_4_" cx="730.1506" cy="-2.5894" r="23.22" gradientTransform="matrix(1 0 0 -0.8889 -8.3599 24.5601)" gradientUnits="userSpaceOnUse">
	<stop  offset="0" style="stop-color:#FFF58A"/>
	<stop  offset="1" style="stop-color:#C49A2B"/>
</radialGradient>
<polygon fill="none" stroke="url(#SVGID_4_)" stroke-miterlimit="10" points="700.05,12.5 695.081,22.672 721.791,47.752 
	748.5,22.668 743.532,12.5 "/>
</svg>
