<?xml version="1.0" encoding="utf-8"?>
<!-- Generator: Adobe Illustrator 19.0.0, SVG Export Plug-In . SVG Version: 6.00 Build 0)  -->
<svg version="1.1" baseProfile="tiny" id="Layer_1" xmlns="http://www.w3.org/2000/svg" xmlns:xlink="http://www.w3.org/1999/xlink"
	 x="0px" y="0px" viewBox="49 -255 417 515" xml:space="preserve">
<g id="XMLID_13_">
	<polygon id="XMLID_11_" fill="#C5B358" points="241.4,240 464,71.1 464,58.3 232.8,233.2 	"/>
	<polygon id="XMLID_10_" fill="#C5B358" points="226,228 464,48.1 464,35.3 217.5,222.1 	"/>
	<polygon id="XMLID_9_" fill="#C5B358" points="259.3,253.6 464,98.4 464,82.2 248.2,245.1 	"/>
	<polygon id="XMLID_8_" fill="#C5B358" points="236.2,196.5 54.6,59.2 54.6,71.9 228.6,202.5 	"/>
	<polygon id="XMLID_7_" fill="#C5B358" points="54.6,82.2 54.6,98.4 209.8,216.1 220.9,208.4 	"/>
	<path id="XMLID_6_" fill="#C5B358" d="M165.4-100.4c1.7,0,6,0.9,14.5,0.9c13.6,0,16.2-0.9,21.3-6c5.1-6,8.5-13.6,8.5-23.9
		c0-19.6-8.5-40.1-31.6-40.1c-2.6,0-7.7,0-11.1,0.9c-1.7,0.9-2.6,0.9-2.6,2.6v62.3C163.7-101.2,163.7-100.4,165.4-100.4z"/>
	<path id="XMLID_5_" fill="#C5B358" d="M203-85.9c-7.7-5.1-13.6-6-19.6-6.8c-3.4-0.9-14.5-0.9-18.8-0.9c-0.9,0-1.7,0.9-1.7,1.7v13.6
		c0,17.9,0,46.9,0,50.3c0.9,11.1,0.9,14.5,7.7,17.9c6,3.4,16.2,3.4,20.5,3.4c12.8,0,33.3-6.8,33.3-33.3
		C226-53.4,220.9-73.1,203-85.9z"/>
	<path id="XMLID_15_" fill="#C5B358" d="M54.6-251.3V24.2l203.9,154.4L464,23.3v-275.5H54.6V-251.3z M185.9,1.1
		c-2.6,0-10.2-0.9-17.1-0.9c-6.8-0.9-13.6-0.9-14.5-0.9c-0.9,0-4.3,0-9.4,0s-10.2,0.9-13.6,0.9c-2.6,0-3.4-0.9-3.4-1.7
		s0.9-1.7,1.7-1.7c1.7,0,5.1-0.9,6.8-0.9c5.1-0.9,6-6,6.8-12.8c0.9-9.4,0.9-28.1,0.9-50.3V-108c0-36.7,0-42.7-0.9-50.3
		s-2.5-12-10.2-13.7c-1.7-0.9-6-0.9-7.7-0.9c-0.9,0-1.7-0.9-1.7-1.7c0-1.7,0.9-1.7,3.4-1.7c10.2,0,25.6,0.9,26.4,0.9
		c6,0,14.5-0.9,25.6-0.9c38.4,0,46.9,23,46.9,35c0,18.8-11.1,30.7-22.2,41.8c17.9,5.1,40.9,22.2,40.9,49.5
		C246.5-24.4,226,1.1,185.9,1.1z M391.5-4.8c-1.7,5.1-2.6,6-14.5,6c-17.1,0-29-0.9-39.2-0.9c-10.2-0.9-17.1-0.9-23.9-0.9
		c-0.9,0-5.1,0-9.4,0c-5.1,0-10.2,0.9-13.6,0.9c-2.6,0-3.4-0.9-3.4-1.7s0.9-1.7,1.7-1.7c1.7,0,5.1-0.9,6.8-0.9c5.1-0.9,6-6,6.8-12.8
		c0.9-9.4,0.9-28.1,0.9-50.3V-108c0-36.7,0-42.7-0.9-50.3c-0.9-7.6-2.6-11.9-10.2-13.6c-1.7-0.9-6-0.9-7.7-0.9
		c-0.9,0-1.7-0.9-1.7-1.7c0-1.7,0.9-1.7,3.4-1.7c10.2,0,25.6,0.9,26.4,0.9c0.9,0,18.8-0.9,25.6-0.9c2.6,0,3.4,0.9,3.4,1.7
		s-0.9,1.7-1.7,1.7c-1.7,0-5.1,0-7.7,0.9c-6.8,0.9-8.5,5.1-9.4,13.6c-0.9,7.7-0.9,13.6-0.9,50.3v41.8c0,34.1,0.9,49.5,5.1,53.7
		c3.4,3.4,10.2,5.1,28.1,5.1c12.8,0,23,0,29-6.8c3.4-3.4,5.1-9.4,6-13.6c0-1.7,0.9-3.4,1.7-3.4c0.9,0,1.7,0.9,1.7,3.4
		C394.9-25.3,393.2-11.6,391.5-4.8z"/>
	<polygon id="XMLID_1_" fill="#C5B358" points="251.6,184.5 54.6,35.3 54.6,48.1 243.9,191.4 	"/>
</g>
</svg>
