<?xml version="1.0" encoding="utf-8"?>
<!-- Generator: Adobe Illustrator 16.0.0, SVG Export Plug-In . SVG Version: 6.00 Build 0)  -->
<!DOCTYPE svg PUBLIC "-//W3C//DTD SVG 1.1//EN" "http://www.w3.org/Graphics/SVG/1.1/DTD/svg11.dtd">
<svg version="1.1" id="Layer_1" xmlns="http://www.w3.org/2000/svg" xmlns:xlink="http://www.w3.org/1999/xlink" x="0px" y="0px"
	 width="150px" height="150px" viewBox="0 0 150 150" enable-background="new 0 0 150 150" xml:space="preserve">
<g>
	<g>
		<radialGradient id="SVGID_1_" cx="74.9722" cy="75.2891" r="72.196" gradientUnits="userSpaceOnUse">
			<stop  offset="0" style="stop-color:#FFF58A"/>
			<stop  offset="1" style="stop-color:#C49A2B"/>
		</radialGradient>
		<path fill="url(#SVGID_1_)" d="M2.863,3.18c0,0,36.098,36.011,72.195,72.023c36.011,36.098,72.022,72.195,72.022,72.195
			s-36.098-36.012-72.195-72.023C38.875,39.278,2.863,3.18,2.863,3.18z"/>
	</g>
	<g>
		<radialGradient id="SVGID_2_" cx="74.9717" cy="75.29" r="72.1958" gradientUnits="userSpaceOnUse">
			<stop  offset="0" style="stop-color:#FFF58A"/>
			<stop  offset="1" style="stop-color:#C49A2B"/>
		</radialGradient>
		<path fill="url(#SVGID_2_)" d="M147.081,3.181c0,0-36.012,36.098-72.023,72.195C38.96,111.388,2.862,147.398,2.862,147.398
			s36.012-36.098,72.023-72.195C110.983,39.192,147.081,3.181,147.081,3.181z"/>
	</g>
</g>
<radialGradient id="SVGID_3_" cx="74.9717" cy="75.3154" r="24.586" gradientTransform="matrix(1 0 0 0.8889 0 8.3666)" gradientUnits="userSpaceOnUse">
	<stop  offset="0" style="stop-color:#FFF58A"/>
	<stop  offset="1" style="stop-color:#C49A2B"/>
</radialGradient>
<polygon fill="url(#SVGID_3_)" points="51.438,56 46.06,67.125 74.971,94.631 103.883,67.242 98.505,56 "/>
</svg>
