<?xml version="1.0" encoding="utf-8"?>
<!-- Generator: Adobe Illustrator 16.0.0, SVG Export Plug-In . SVG Version: 6.00 Build 0)  -->
<!DOCTYPE svg PUBLIC "-//W3C//DTD SVG 1.1//EN" "http://www.w3.org/Graphics/SVG/1.1/DTD/svg11.dtd">
<svg version="1.1" id="Layer_1" xmlns="http://www.w3.org/2000/svg" xmlns:xlink="http://www.w3.org/1999/xlink" x="0px" y="0px"
	 width="150px" height="150px" viewBox="0 0 150 150" enable-background="new 0 0 150 150" xml:space="preserve">
<g>
	<g>
		<defs>
			
				<rect id="SVGID_1_" x="25.214" y="23.461" transform="matrix(0.7071 -0.7071 0.7071 0.7071 -30.4805 76.0646)" width="102.726" height="102.729"/>
		</defs>
		<clipPath id="SVGID_2_">
			<use xlink:href="#SVGID_1_"  overflow="visible"/>
		</clipPath>
		
			<radialGradient id="SVGID_3_" cx="-142.4321" cy="-637.6006" r="61.3857" gradientTransform="matrix(1 0 0 1 218.6787 738.3379)" gradientUnits="userSpaceOnUse">
			<stop  offset="0" style="stop-color:#FFF58A"/>
			<stop  offset="1" style="stop-color:#C49A2B"/>
		</radialGradient>
		<polyline clip-path="url(#SVGID_2_)" fill="url(#SVGID_3_)" points="25.295,53.426 76.247,104.377 127.196,53.426 149.034,75.262 
			76.247,148.049 3.459,75.26 		"/>
	</g>
	<g>
		<defs>
			
				<rect id="SVGID_4_" x="25.214" y="23.461" transform="matrix(0.7071 -0.7071 0.7071 0.7071 -30.4805 76.0646)" width="102.726" height="102.729"/>
		</defs>
		<clipPath id="SVGID_5_">
			<use xlink:href="#SVGID_4_"  overflow="visible"/>
		</clipPath>
		
			<radialGradient id="SVGID_6_" cx="-142.4331" cy="-679.8359" r="45.0352" gradientTransform="matrix(1 0 0 1 218.6787 738.3379)" gradientUnits="userSpaceOnUse">
			<stop  offset="0" style="stop-color:#FFF58A"/>
			<stop  offset="1" style="stop-color:#C49A2B"/>
		</radialGradient>
		<polyline clip-path="url(#SVGID_5_)" fill="url(#SVGID_6_)" points="50.77,20.287 76.247,45.764 101.722,20.287 127.196,45.764 
			76.245,96.717 25.295,45.764 		"/>
	</g>
	<g>
		<defs>
			
				<rect id="SVGID_7_" x="25.214" y="23.461" transform="matrix(0.7071 -0.7071 0.7071 0.7071 -30.4805 76.0646)" width="102.726" height="102.729"/>
		</defs>
		<clipPath id="SVGID_8_">
			<use xlink:href="#SVGID_7_"  overflow="visible"/>
		</clipPath>
		
			<radialGradient id="SVGID_9_" cx="-142.4316" cy="-700.2329" r="50.9511" gradientTransform="matrix(1 0 0 1 218.6787 738.3379)" gradientUnits="userSpaceOnUse">
			<stop  offset="0" style="stop-color:#FFF58A"/>
			<stop  offset="1" style="stop-color:#C49A2B"/>
		</radialGradient>
		<polygon clip-path="url(#SVGID_8_)" fill="url(#SVGID_9_)" points="50.772,12.629 76.247,-12.848 101.722,12.629 76.247,38.104 		
			"/>
	</g>
</g>
</svg>
