<?xml version="1.0" encoding="utf-8"?>
<!-- Generator: Adobe Illustrator 16.0.0, SVG Export Plug-In . SVG Version: 6.00 Build 0)  -->
<!DOCTYPE svg PUBLIC "-//W3C//DTD SVG 1.1//EN" "http://www.w3.org/Graphics/SVG/1.1/DTD/svg11.dtd">
<svg version="1.1" id="Layer_1" xmlns="http://www.w3.org/2000/svg" xmlns:xlink="http://www.w3.org/1999/xlink" x="0px" y="0px"
	 width="150px" height="150px" viewBox="0 0 150 150" enable-background="new 0 0 150 150" xml:space="preserve">
<g>
	<g>
		<defs>
			
				<rect id="SVGID_1_" x="25.215" y="23.461" transform="matrix(-0.7071 0.7071 -0.7071 -0.7071 183.6363 73.587)" width="102.726" height="102.729"/>
		</defs>
		<clipPath id="SVGID_2_">
			<use xlink:href="#SVGID_1_"  overflow="visible"/>
		</clipPath>
		
			<radialGradient id="SVGID_3_" cx="-142.4321" cy="-637.6006" r="61.3857" gradientTransform="matrix(-1 0 0 -1 -65.5244 -588.6865)" gradientUnits="userSpaceOnUse">
			<stop  offset="0" style="stop-color:#FFF58A"/>
			<stop  offset="1" style="stop-color:#C49A2B"/>
		</radialGradient>
		<polyline clip-path="url(#SVGID_2_)" fill="url(#SVGID_3_)" points="127.859,96.226 76.907,45.274 25.958,96.226 4.12,74.39 
			76.907,1.603 149.695,74.392 		"/>
	</g>
	<g>
		<defs>
			
				<rect id="SVGID_4_" x="25.215" y="23.461" transform="matrix(-0.7071 0.7071 -0.7071 -0.7071 183.6363 73.587)" width="102.726" height="102.729"/>
		</defs>
		<clipPath id="SVGID_5_">
			<use xlink:href="#SVGID_4_"  overflow="visible"/>
		</clipPath>
		
			<radialGradient id="SVGID_6_" cx="-142.4331" cy="-679.8359" r="45.0352" gradientTransform="matrix(-1 0 0 -1 -65.5244 -588.6865)" gradientUnits="userSpaceOnUse">
			<stop  offset="0" style="stop-color:#FFF58A"/>
			<stop  offset="1" style="stop-color:#C49A2B"/>
		</radialGradient>
		<polyline clip-path="url(#SVGID_5_)" fill="url(#SVGID_6_)" points="102.385,129.364 76.907,103.888 51.433,129.364 
			25.958,103.888 76.909,52.935 127.859,103.888 		"/>
	</g>
	<g>
		<defs>
			
				<rect id="SVGID_7_" x="25.215" y="23.461" transform="matrix(-0.7071 0.7071 -0.7071 -0.7071 183.6363 73.587)" width="102.726" height="102.729"/>
		</defs>
		<clipPath id="SVGID_8_">
			<use xlink:href="#SVGID_7_"  overflow="visible"/>
		</clipPath>
		
			<radialGradient id="SVGID_9_" cx="-142.4321" cy="-700.2329" r="50.9521" gradientTransform="matrix(-1 0 0 -1 -65.5244 -588.6865)" gradientUnits="userSpaceOnUse">
			<stop  offset="0" style="stop-color:#FFF58A"/>
			<stop  offset="1" style="stop-color:#C49A2B"/>
		</radialGradient>
		<polygon clip-path="url(#SVGID_8_)" fill="url(#SVGID_9_)" points="102.383,137.022 76.907,162.499 51.433,137.022 
			76.907,111.547 		"/>
	</g>
</g>
</svg>
