<?xml version="1.0" encoding="utf-8"?>
<!-- Generator: Adobe Illustrator 19.0.0, SVG Export Plug-In . SVG Version: 6.00 Build 0)  -->
<svg version="1.1" id="Layer_1" xmlns="http://www.w3.org/2000/svg" xmlns:xlink="http://www.w3.org/1999/xlink" x="0px" y="0px"
	 viewBox="130 -280 960 960" style="enable-background:new 130 -280 960 960;" xml:space="preserve">
<style type="text/css">
	.st0{fill:#C5B358;}
</style>
<g id="XMLID_1_">
	<g id="XMLID_162_">
		<path id="XMLID_1246_" class="st0" d="M652.5,664.1L241.5-121l531.9-69l1,0.6L951.7-91l-0.3,2.3L880.6,436l-0.8,0.8L652.5,664.1z
			 M252.2-115.5l402.1,768.1l219.8-219.8l70.1-519.9L772-182.9L252.2-115.5z"/>
	</g>
	<g id="XMLID_160_">
		<polygon id="XMLID_1239_" class="st0" points="511.2,384.4 508.1,382.9 771.1,-187.2 774.3,-185.7 		"/>
	</g>
	<g id="XMLID_164_">
		<polygon id="XMLID_1238_" class="st0" points="876.3,435.6 242,-120.2 246.9,-120 948.1,-90.8 947.9,-87.4 251.6,-116.4 
			878.5,433.1 		"/>
	</g>
	<g id="XMLID_163_">
		<polygon id="XMLID_1237_" class="st0" points="655.1,658.6 651.7,658.1 771,-186.7 774.4,-186.2 		"/>
	</g>
	<g id="XMLID_161_">
		<circle id="XMLID_1327_" class="st0" cx="246.8" cy="-118.3" r="12"/>
	</g>
	<g id="XMLID_170_">
		<circle id="XMLID_1325_" class="st0" cx="509.6" cy="383.7" r="6.3"/>
	</g>
	<g id="XMLID_166_">
		<circle id="XMLID_1323_" class="st0" cx="772.7" cy="-186.5" r="15.2"/>
	</g>
	<g id="XMLID_167_">
		<circle id="XMLID_1321_" class="st0" cx="948" cy="-89.1" r="12"/>
	</g>
	<g id="XMLID_168_">
		<circle id="XMLID_1319_" class="st0" cx="879.8" cy="434.3" r="12"/>
	</g>
	<g id="XMLID_169_">
		<circle id="XMLID_1317_" class="st0" cx="653.4" cy="658.3" r="8.8"/>
	</g>
	<g id="XMLID_165_">
		<path id="XMLID_1220_" class="st0" d="M351.4,414.5c-0.7-0.8-1.6-1.4-2.8-1.9c-1.1-0.5-2.5-0.7-3.9-0.7c-2.2,0-3.7,0.4-4.7,1.2
			s-1.5,1.9-1.5,3.3c0,0.7,0.1,1.3,0.4,1.8c0.3,0.5,0.7,0.9,1.2,1.2c0.6,0.3,1.3,0.6,2.1,0.9c0.9,0.3,1.9,0.5,3,0.8
			c1.3,0.3,2.5,0.6,3.5,0.9s1.9,0.8,2.7,1.3c0.7,0.5,1.3,1.1,1.7,1.9c0.4,0.7,0.6,1.7,0.6,2.8s-0.2,2.1-0.7,2.9
			c-0.4,0.8-1,1.5-1.8,2.1c-0.8,0.6-1.7,1-2.8,1.2c-1.1,0.3-2.3,0.4-3.5,0.4c-3.8,0-7.1-1.2-9.8-3.5l1.2-2c0.4,0.5,1,0.9,1.6,1.3
			c0.6,0.4,1.3,0.8,2,1.1s1.5,0.6,2.4,0.7c0.8,0.2,1.7,0.3,2.7,0.3c2,0,3.5-0.3,4.6-1.1c1.1-0.7,1.6-1.8,1.6-3.2
			c0-0.8-0.2-1.4-0.5-1.9c-0.3-0.5-0.8-1-1.4-1.3c-0.6-0.4-1.4-0.7-2.3-1c-0.9-0.3-2-0.6-3.2-0.8c-1.3-0.3-2.4-0.6-3.4-0.9
			c-1-0.3-1.8-0.7-2.4-1.2c-0.7-0.5-1.2-1.1-1.5-1.7c-0.3-0.7-0.5-1.5-0.5-2.5c0-1.1,0.2-2.1,0.6-3c0.4-0.9,1-1.6,1.8-2.2
			c0.8-0.6,1.7-1,2.8-1.3c1.1-0.3,2.2-0.5,3.5-0.5c1.6,0,3.1,0.2,4.4,0.7s2.4,1.2,3.5,2.1L351.4,414.5z"/>
		<path id="XMLID_1222_" class="st0" d="M374.5,432.2v2.1H358v-24.4h16.1v2.1h-13.7v8.8h11.9v2h-11.9v9.3h14.1V432.2z"/>
		<path id="XMLID_1224_" class="st0" d="M376.9,422c0-1.5,0.3-2.9,0.8-4.4s1.3-2.8,2.3-3.9c1-1.1,2.2-2.1,3.7-2.8
			c1.4-0.7,3.1-1.1,4.9-1.1c2.2,0,4,0.5,5.6,1.5s2.7,2.3,3.4,3.9l-1.9,1.2c-0.4-0.8-0.9-1.5-1.4-2c-0.6-0.6-1.2-1-1.8-1.3
			c-0.6-0.3-1.3-0.6-2-0.7c-0.7-0.1-1.4-0.2-2-0.2c-1.5,0-2.8,0.3-3.9,0.9c-1.1,0.6-2.1,1.4-2.8,2.3c-0.8,1-1.3,2.1-1.7,3.3
			s-0.6,2.4-0.6,3.7c0,1.4,0.2,2.6,0.7,3.9c0.5,1.2,1.1,2.3,1.9,3.3s1.8,1.7,2.9,2.3c1.1,0.6,2.3,0.8,3.6,0.8c0.7,0,1.4-0.1,2.1-0.3
			s1.4-0.5,2.1-0.8c0.7-0.4,1.3-0.9,1.9-1.4c0.6-0.6,1.1-1.2,1.4-2l2,1c-0.4,0.9-0.9,1.7-1.7,2.4c-0.7,0.7-1.5,1.3-2.4,1.8
			s-1.8,0.9-2.8,1.1c-1,0.3-1.9,0.4-2.9,0.4c-1.7,0-3.2-0.4-4.6-1.1c-1.4-0.7-2.6-1.7-3.6-2.9s-1.8-2.5-2.4-4
			C377.1,425,376.9,423.5,376.9,422z"/>
		<path id="XMLID_1226_" class="st0" d="M412,432.3c1.5,0,2.8-0.3,3.8-0.9c1-0.6,1.8-1.4,2.4-2.3c0.6-1,1-2,1.3-3.3
			c0.2-1.2,0.4-2.4,0.4-3.7v-12.3h2.4v12.3c0,1.7-0.2,3.2-0.5,4.7c-0.4,1.5-1,2.8-1.8,3.9c-0.8,1.1-1.9,2-3.2,2.7s-2.9,1-4.8,1
			s-3.6-0.3-4.9-1s-2.4-1.6-3.2-2.8c-0.8-1.1-1.4-2.5-1.7-3.9c-0.3-1.5-0.5-3-0.5-4.5v-12.3h2.4v12.3c0,1.3,0.1,2.5,0.4,3.8
			c0.3,1.2,0.7,2.3,1.3,3.2c0.6,0.9,1.4,1.7,2.4,2.3C409.2,432.1,410.5,432.3,412,432.3z"/>
		<path id="XMLID_1228_" class="st0" d="M428.1,434.3v-24.4h10.3c1.1,0,2,0.2,2.9,0.7c0.9,0.4,1.6,1,2.3,1.8
			c0.6,0.7,1.1,1.5,1.5,2.5c0.4,0.9,0.5,1.8,0.5,2.8c0,0.9-0.1,1.8-0.4,2.6s-0.6,1.5-1.1,2.2s-1,1.2-1.7,1.7
			c-0.7,0.4-1.4,0.8-2.2,0.9l6,9.4h-2.7l-5.7-9h-7.2v9h-2.5V434.3z M430.5,423.2h8c0.7,0,1.4-0.2,1.9-0.5c0.6-0.3,1.1-0.7,1.5-1.3
			c0.4-0.5,0.7-1.1,1-1.8c0.2-0.7,0.3-1.4,0.3-2.1c0-0.7-0.1-1.4-0.4-2.1c-0.3-0.7-0.6-1.3-1.1-1.8c-0.4-0.5-1-0.9-1.6-1.2
			s-1.2-0.5-1.9-0.5h-7.8v11.3H430.5z"/>
		<path id="XMLID_1231_" class="st0" d="M450.6,434.3v-24.4h2.4v24.4H450.6z"/>
		<path id="XMLID_1233_" class="st0" d="M476.5,412h-8.7v22.3h-2.4V412h-8.7v-2.1h19.8L476.5,412L476.5,412z"/>
		<path id="XMLID_1235_" class="st0" d="M480.3,409.9l8,13.1l8.1-13.1h2.6l-9.5,15.4v9.1H487v-9.2l-9.4-15.3H480.3z"/>
	</g>
	<g id="XMLID_171_">
		<path id="XMLID_1210_" class="st0" d="M714.8-245.4c0-2,0.4-4.1,1.1-6.1c0.7-2,1.8-3.8,3.1-5.4c1.4-1.6,3.1-2.9,5.1-3.9
			s4.3-1.5,6.8-1.5c3,0,5.6,0.7,7.8,2.1c2.1,1.4,3.7,3.2,4.7,5.3l-2.6,1.6c-0.5-1.1-1.2-2.1-2-2.8c-0.8-0.8-1.6-1.4-2.5-1.9
			s-1.8-0.8-2.8-1s-1.9-0.3-2.8-0.3c-2,0-3.8,0.4-5.4,1.2c-1.6,0.8-2.9,1.9-3.9,3.2c-1.1,1.3-1.9,2.8-2.4,4.5
			c-0.5,1.7-0.8,3.4-0.8,5.1c0,1.9,0.3,3.7,1,5.4c0.7,1.7,1.5,3.2,2.7,4.6c1.1,1.3,2.5,2.4,4,3.1c1.5,0.8,3.2,1.2,5,1.2
			c1,0,1.9-0.1,2.9-0.4c1-0.2,2-0.6,2.9-1.1s1.8-1.2,2.6-2s1.5-1.7,2-2.8l2.8,1.4c-0.5,1.3-1.3,2.4-2.3,3.4s-2.1,1.8-3.3,2.5
			c-1.2,0.7-2.5,1.2-3.8,1.5c-1.4,0.3-2.7,0.5-4,0.5c-2.3,0-4.5-0.5-6.4-1.5s-3.6-2.3-5-4c-1.4-1.6-2.5-3.5-3.3-5.6
			C715.1-241.2,714.8-243.3,714.8-245.4z"/>
		<path id="XMLID_1212_" class="st0" d="M749.7-228.3v-33.8h3.3v30.9h19.6v3h-22.9V-228.3z"/>
		<path id="XMLID_1214_" class="st0" d="M789.2-231c2.1,0,3.9-0.4,5.3-1.2c1.4-0.8,2.5-1.9,3.4-3.2c0.8-1.3,1.4-2.8,1.8-4.5
			c0.3-1.7,0.5-3.4,0.5-5.1v-17.1h3.3v17.1c0,2.3-0.3,4.5-0.8,6.5c-0.5,2.1-1.3,3.9-2.5,5.4c-1.1,1.6-2.6,2.8-4.4,3.7
			c-1.8,0.9-4,1.4-6.6,1.4c-2.7,0-4.9-0.5-6.8-1.5c-1.8-1-3.3-2.2-4.4-3.8c-1.1-1.6-1.9-3.4-2.4-5.4s-0.7-4.1-0.7-6.3v-17.1h3.3
			v17.1c0,1.8,0.2,3.5,0.5,5.2s0.9,3.2,1.8,4.5c0.8,1.3,2,2.4,3.4,3.1C785.3-231.4,787.1-231,789.2-231z"/>
		<path id="XMLID_1216_" class="st0" d="M836.9-237c0,1.3-0.3,2.4-0.8,3.5s-1.2,2-2.1,2.8c-0.9,0.8-1.9,1.4-3,1.8
			c-1.1,0.4-2.4,0.6-3.7,0.6h-16v-33.8h16.3c1.2,0,2.2,0.3,3.2,0.8s1.8,1.2,2.4,2c0.7,0.8,1.2,1.7,1.6,2.8c0.4,1,0.5,2.1,0.5,3.1
			c0,1.7-0.4,3.3-1.3,4.7c-0.9,1.4-2.1,2.5-3.6,3.2c1.9,0.6,3.5,1.6,4.6,3.2C836.4-240.9,836.9-239.1,836.9-237z M814.8-259.2v12.5
			h11.6c0.8,0,1.6-0.2,2.3-0.5s1.3-0.8,1.8-1.4c0.5-0.6,0.9-1.2,1.2-2c0.3-0.7,0.4-1.5,0.4-2.4s-0.1-1.7-0.4-2.4
			c-0.3-0.8-0.7-1.4-1.1-2c-0.5-0.6-1.1-1-1.7-1.3c-0.7-0.3-1.4-0.5-2.2-0.5C826.7-259.2,814.8-259.2,814.8-259.2z M833.6-237.6
			c0-0.8-0.1-1.6-0.4-2.4c-0.3-0.8-0.7-1.5-1.2-2.1c-0.5-0.6-1.1-1.1-1.9-1.4c-0.7-0.4-1.5-0.5-2.3-0.5h-13v12.8h12.6
			c0.9,0,1.7-0.2,2.4-0.5s1.4-0.8,2-1.4c0.6-0.6,1-1.3,1.3-2.1C833.4-235.9,833.6-236.7,833.6-237.6z"/>
	</g>
	<g id="XMLID_172_">
		<path id="XMLID_1199_" class="st0" d="M191.6-183.8v29.3h-2.9v-13.7h-17.3v13.7h-2.9v-29.3h2.9v13.1h17.4v-13.1H191.6z"/>
		<path id="XMLID_1201_" class="st0" d="M210.8-154.3c-2,0-3.9-0.4-5.6-1.3c-1.7-0.9-3.1-2-4.4-3.3c-1.2-1.4-2.1-3-2.8-4.8
			c-0.7-1.8-1-3.6-1-5.5c0-2,0.4-3.8,1.1-5.6c0.7-1.8,1.7-3.4,2.9-4.8c1.2-1.4,2.7-2.5,4.4-3.3c1.7-0.8,3.5-1.2,5.5-1.2
			s3.9,0.4,5.6,1.3c1.7,0.9,3.1,2,4.3,3.4s2.1,3,2.8,4.8c0.7,1.8,1,3.6,1,5.4c0,2-0.4,3.8-1.1,5.6c-0.7,1.8-1.7,3.4-2.9,4.7
			c-1.2,1.4-2.7,2.5-4.4,3.3C214.5-154.7,212.7-154.3,210.8-154.3z M199.9-169.1c0,1.6,0.3,3.1,0.8,4.6s1.3,2.8,2.2,3.9
			c0.9,1.1,2.1,2.1,3.4,2.7c1.3,0.7,2.8,1,4.4,1c1.7,0,3.2-0.4,4.5-1.1c1.4-0.7,2.5-1.7,3.4-2.8c0.9-1.2,1.7-2.5,2.2-3.9
			c0.5-1.5,0.8-2.9,0.8-4.5c0-1.6-0.3-3.1-0.8-4.6s-1.3-2.8-2.3-3.9c-1-1.1-2.1-2-3.4-2.7c-1.3-0.7-2.8-1-4.4-1
			c-1.7,0-3.2,0.3-4.5,1.1c-1.4,0.7-2.5,1.6-3.4,2.8c-0.9,1.2-1.7,2.5-2.2,3.9C200.2-172.1,199.9-170.7,199.9-169.1z"/>
		<path id="XMLID_1204_" class="st0" d="M249.4-181.2H239v26.8h-2.9v-26.8h-10.5v-2.6h23.8C249.4-183.8,249.4-181.2,249.4-181.2z"/>
		<path id="XMLID_1206_" class="st0" d="M273.5-157v2.6h-19.7v-29.4h19.3v2.6h-16.4v10.6H271v2.4h-14.3v11.2H273.5z"/>
		<path id="XMLID_1208_" class="st0" d="M279-154.5v-29.3h2.9v26.8h16.9v2.6H279V-154.5z"/>
	</g>
	<g id="XMLID_579_">
		<path id="XMLID_1191_" class="st0" d="M968.8-142.1c-0.8-0.9-1.9-1.7-3.3-2.3c-1.4-0.6-2.9-0.9-4.7-0.9c-2.6,0-4.5,0.5-5.7,1.5
			s-1.8,2.3-1.8,4c0,0.9,0.2,1.6,0.5,2.2c0.3,0.6,0.8,1.1,1.5,1.5s1.5,0.8,2.5,1.1s2.2,0.6,3.7,0.9c1.6,0.3,3,0.7,4.2,1.1
			c1.3,0.4,2.3,0.9,3.2,1.6c0.9,0.6,1.6,1.4,2,2.2c0.5,0.9,0.7,2,0.7,3.3c0,1.4-0.3,2.5-0.8,3.5s-1.3,1.8-2.2,2.5s-2.1,1.1-3.3,1.5
			c-1.3,0.3-2.7,0.5-4.3,0.5c-4.5,0-8.5-1.4-11.8-4.3l1.4-2.4c0.5,0.6,1.1,1.1,1.9,1.6c0.7,0.5,1.5,0.9,2.4,1.3
			c0.9,0.4,1.9,0.7,2.9,0.9s2.1,0.3,3.2,0.3c2.3,0,4.2-0.4,5.5-1.3c1.3-0.8,2-2.1,2-3.8c0-0.9-0.2-1.7-0.6-2.3
			c-0.4-0.6-0.9-1.2-1.7-1.6c-0.7-0.5-1.7-0.8-2.8-1.2c-1.1-0.3-2.4-0.7-3.8-1c-1.5-0.4-2.9-0.7-4-1.1c-1.2-0.4-2.1-0.9-2.9-1.4
			c-0.8-0.6-1.4-1.3-1.8-2.1c-0.4-0.8-0.6-1.8-0.6-3c0-1.3,0.3-2.6,0.8-3.6c0.5-1.1,1.2-1.9,2.2-2.6c0.9-0.7,2-1.2,3.3-1.6
			c1.3-0.4,2.7-0.6,4.2-0.6c2,0,3.7,0.3,5.2,0.9c1.5,0.6,2.9,1.4,4.2,2.5L968.8-142.1z"/>
		<path id="XMLID_1193_" class="st0" d="M976.7-118.3v-29.3h12.1c1.3,0,2.4,0.3,3.5,0.8s2,1.2,2.7,2.1c0.8,0.9,1.4,1.9,1.8,3
			c0.4,1.1,0.7,2.2,0.7,3.3c0,1.2-0.2,2.4-0.6,3.5c-0.4,1.1-1,2.1-1.7,3s-1.6,1.5-2.7,2.1c-1,0.5-2.2,0.8-3.4,0.8h-9.5v10.8h-2.9
			V-118.3z M979.6-131.7h9.4c0.9,0,1.6-0.2,2.3-0.6c0.7-0.4,1.3-0.9,1.8-1.5s0.9-1.3,1.2-2.1s0.4-1.7,0.4-2.5c0-0.9-0.2-1.8-0.5-2.6
			s-0.7-1.5-1.3-2.1c-0.5-0.6-1.2-1.1-1.9-1.4c-0.7-0.3-1.5-0.5-2.3-0.5h-9.1L979.6-131.7L979.6-131.7z"/>
		<path id="XMLID_1196_" class="st0" d="M1009.7-147.6h2.4l12.2,29.3h-3.1l-3.8-9.2h-13.2l-3.8,9.2h-3.1L1009.7-147.6z
			 M1016.8-129.7l-5.9-14.5l-6,14.5H1016.8z"/>
	</g>
	<g id="XMLID_580_">
		<path id="XMLID_1175_" class="st0" d="M882.5,467.2l8.1,19.8l8-19.8h2.3l-9.4,22.5h-1.9l-9.4-22.5H882.5z"/>
		<path id="XMLID_1177_" class="st0" d="M919.3,487.8v2h-15.1v-22.5H919v2h-12.6v8.1h11v1.9h-11v8.6L919.3,487.8L919.3,487.8z"/>
		<path id="XMLID_1179_" class="st0" d="M941.2,467.2v22.5H939v-10.5h-13.4v10.5h-2.2v-22.5h2.2v10H939v-10H941.2z"/>
		<path id="XMLID_1181_" class="st0" d="M946.9,489.8v-22.5h2.2v22.5H946.9z"/>
		<path id="XMLID_1183_" class="st0" d="M953.3,478.4c0-1.4,0.2-2.7,0.7-4s1.2-2.5,2.1-3.6c0.9-1.1,2-1.9,3.4-2.6
			c1.3-0.7,2.8-1,4.5-1c2,0,3.7,0.5,5.2,1.4c1.4,0.9,2.5,2.1,3.2,3.6l-1.7,1.1c-0.4-0.7-0.8-1.4-1.3-1.9s-1.1-0.9-1.7-1.2
			c-0.6-0.3-1.2-0.5-1.8-0.7c-0.6-0.1-1.3-0.2-1.9-0.2c-1.4,0-2.5,0.3-3.6,0.8c-1,0.6-1.9,1.3-2.6,2.2c-0.7,0.9-1.2,1.9-1.6,3
			c-0.4,1.1-0.5,2.2-0.5,3.4s0.2,2.4,0.7,3.6c0.4,1.1,1,2.2,1.8,3c0.7,0.9,1.6,1.6,2.7,2.1c1,0.5,2.1,0.8,3.3,0.8
			c0.6,0,1.3-0.1,2-0.2c0.7-0.2,1.3-0.4,1.9-0.8c0.6-0.3,1.2-0.8,1.7-1.3s1-1.1,1.3-1.9l1.8,1c-0.4,0.8-0.9,1.6-1.5,2.2
			c-0.7,0.6-1.4,1.2-2.2,1.6c-0.8,0.4-1.7,0.8-2.6,1c-0.9,0.2-1.8,0.3-2.6,0.3c-1.5,0-3-0.3-4.3-1s-2.4-1.6-3.3-2.6
			s-1.7-2.3-2.2-3.7C953.5,481.2,953.3,479.8,953.3,478.4z"/>
		<path id="XMLID_1185_" class="st0" d="M976.5,489.8v-22.5h2.2v20.6h13v2L976.5,489.8L976.5,489.8z"/>
		<path id="XMLID_1187_" class="st0" d="M1010.2,487.8v2H995v-22.5h14.9v2h-12.6v8.1h11v1.9h-11v8.6L1010.2,487.8L1010.2,487.8z"/>
		<path id="XMLID_1189_" class="st0" d="M1027.1,471.5c-0.6-0.7-1.5-1.3-2.5-1.7c-1.1-0.4-2.3-0.7-3.6-0.7c-2,0-3.4,0.4-4.3,1.1
			c-0.9,0.7-1.4,1.8-1.4,3.1c0,0.7,0.1,1.2,0.4,1.7c0.2,0.4,0.6,0.8,1.1,1.1s1.2,0.6,2,0.8s1.7,0.5,2.8,0.7c1.2,0.3,2.3,0.5,3.3,0.9
			c1,0.3,1.8,0.7,2.5,1.2c0.7,0.5,1.2,1.1,1.6,1.7c0.4,0.7,0.5,1.5,0.5,2.5s-0.2,1.9-0.6,2.7c-0.4,0.8-1,1.4-1.7,1.9
			s-1.6,0.9-2.6,1.1c-1,0.2-2.1,0.4-3.3,0.4c-3.5,0-6.5-1.1-9-3.3l1.1-1.8c0.4,0.4,0.9,0.8,1.4,1.2c0.6,0.4,1.2,0.7,1.9,1
			s1.4,0.5,2.2,0.7s1.6,0.2,2.5,0.2c1.8,0,3.2-0.3,4.2-1c1-0.6,1.5-1.6,1.5-2.9c0-0.7-0.1-1.3-0.4-1.8c-0.3-0.5-0.7-0.9-1.3-1.2
			s-1.3-0.7-2.1-0.9c-0.8-0.3-1.8-0.5-3-0.8s-2.2-0.6-3.1-0.9c-0.9-0.3-1.6-0.7-2.3-1.1c-0.6-0.4-1.1-1-1.4-1.6
			c-0.3-0.6-0.5-1.4-0.5-2.3c0-1,0.2-2,0.6-2.8c0.4-0.8,0.9-1.5,1.7-2c0.7-0.5,1.6-1,2.5-1.2c1-0.3,2.1-0.4,3.2-0.4
			c1.5,0,2.8,0.2,4,0.7c1.2,0.5,2.2,1.1,3.2,1.9L1027.1,471.5z"/>
	</g>
</g>
</svg>
