<?xml version="1.0" encoding="utf-8"?>
<!-- Generator: Adobe Illustrator 19.0.0, SVG Export Plug-In . SVG Version: 6.00 Build 0)  -->
<svg version="1.1" id="Layer_1" xmlns="http://www.w3.org/2000/svg" xmlns:xlink="http://www.w3.org/1999/xlink" x="0px" y="0px"
	 viewBox="130 -280 960 960" style="enable-background:new 130 -280 960 960;" xml:space="preserve">
<style type="text/css">
	.st0{fill:#C5B358;}
</style>
<g id="XMLID_1151_">
	<g id="XMLID_584_">
		<path id="XMLID_1243_" class="st0" d="M654.4,661.9L285.8-149.2l537.7-39.4L997-79.2l-0.4,2.3L896.1,445.7L654.4,661.9z
			 M296.2-143.1l360.6,793.5l233-208.3l99.5-518L821.8-181.6L296.2-143.1z"/>
	</g>
	<g id="XMLID_583_">
		<path id="XMLID_1172_" class="st0" d="M617.6,659.1l-1.4-3.4L289.4-140.6l3.2-1.3l342.9,784.8l8.2-10.8l2.8,2.1l-11.8,15.5
			l-5.4-12.3L617.6,659.1z M350.9,0.2L618,651l9.5-17.8L350.9,0.2z"/>
	</g>
	<g id="XMLID_585_">
		<path id="XMLID_1515_" class="st0" d="M417.3-138.4l-13.6,2c-1.5,0.2-2.9-0.8-3.2-2.4l-4.5-30.4c-0.2-1.5,0.8-2.9,2.4-3.2l13.6-2
			c1.5-0.2,2.9,0.8,3.2,2.4l4.5,30.4C419.9-140.1,418.9-138.7,417.3-138.4z"/>
	</g>
	<g id="XMLID_591_">
		<path id="XMLID_1513_" class="st0" d="M761.1-161.9l-13.6,2c-1.5,0.2-2.9-0.8-3.2-2.4l-4.5-30.4c-0.2-1.5,0.8-2.9,2.4-3.2l13.6-2
			c1.5-0.2,2.9,0.8,3.2,2.4l4.5,30.4C763.6-163.6,762.6-162.2,761.1-161.9z"/>
	</g>
	<g id="XMLID_586_">
		<g id="XMLID_592_">
			<g id="XMLID_1119_">
				<path id="XMLID_1510_" class="st0" d="M498.7,123.3c0.7,0.9,1.5,1.6,2.4,2s1.9,0.5,2.9,0.4c1.5-0.2,2.7-0.9,3.5-2s1.1-2.4,0.9-4
					c-0.2-1.5-0.9-2.7-2-3.5s-2.5-1.1-4.1-0.9c-1,0.1-1.8,0.4-2.6,0.9s-1.4,1-2,1.8l-1-0.1l1.2-12.1l10.9-1.6l0.4,3l-8.6,1.2
					l-0.6,5.3c0.6-0.4,1.2-0.6,1.7-0.8c0.6-0.2,1.1-0.4,1.7-0.4c2.2-0.3,4.1,0.1,5.6,1.3s2.5,2.9,2.8,5.2c0.4,2.6-0.1,4.7-1.5,6.5
					s-3.4,2.8-6.1,3.2c-1.6,0.2-3,0.1-4.3-0.2s-2.4-1.1-3.4-2.1L498.7,123.3z"/>
			</g>
			<g id="XMLID_1121_">
				<path id="XMLID_1506_" class="st0" d="M569.2,104.6c0.5-0.3,1-0.6,1.4-0.8c0.5-0.2,1-0.3,1.5-0.4c2.1-0.3,3.8,0.2,5.4,1.4
					s2.4,2.9,2.8,5.1c0.3,2.4-0.1,4.4-1.4,6c-1.3,1.6-3.2,2.7-5.6,3c-2.3,0.3-4.2-0.1-5.8-1.3c-1.6-1.2-2.6-3-2.9-5.3
					c-0.4-2.5,0.8-6.3,3.5-11.5l0.3-0.6l3.2-6.3l3.1,1L569.2,104.6z M568.1,111.8c0.2,1.4,0.7,2.4,1.6,3.2c0.9,0.7,1.9,1,3.2,0.8
					c1.4-0.2,2.4-0.8,3.1-1.7c0.7-0.9,0.9-2.1,0.7-3.5c-0.2-1.4-0.8-2.5-1.6-3.2c-0.9-0.7-2-1-3.4-0.8c-1.2,0.2-2.2,0.7-2.8,1.7
					C568.1,109.3,567.9,110.5,568.1,111.8z"/>
			</g>
			<g id="XMLID_1124_">
				<path id="XMLID_1503_" class="st0" d="M625.6,110.3l6.6-20.7l-10.6,1.5l-0.4-3l15.9-2.3l-8.2,25.3L625.6,110.3z"/>
			</g>
			<g id="XMLID_1126_">
				<path id="XMLID_1498_" class="st0" d="M684.5,90c-1.2-0.3-2.1-0.9-2.8-1.6c-0.6-0.7-1.1-1.7-1.2-2.9c-0.3-1.8,0.2-3.4,1.3-4.7
					c1.1-1.3,2.8-2.1,4.9-2.4c2.2-0.3,4,0,5.5,1s2.3,2.4,2.6,4.3c0.2,1.1,0,2.1-0.4,3s-1.2,1.6-2.2,2.2c1.3,0.2,2.4,0.8,3.3,1.8
					c0.9,1,1.4,2.2,1.6,3.6c0.3,2.1-0.2,3.9-1.4,5.3s-3.1,2.3-5.6,2.6c-2.4,0.3-4.5,0-6-1c-1.6-1-2.5-2.5-2.8-4.6
					c-0.2-1.5,0-2.8,0.5-4C682.4,91.5,683.3,90.6,684.5,90z M689.7,99.2c1.4-0.2,2.4-0.7,3-1.5c0.7-0.8,0.9-1.8,0.7-3.1
					c-0.2-1.3-0.7-2.2-1.6-2.8c-0.9-0.6-2-0.8-3.3-0.6c-1.3,0.2-2.3,0.7-3,1.5s-0.9,1.9-0.7,3.1s0.7,2.2,1.6,2.8
					C687.2,99.2,688.3,99.4,689.7,99.2z M687.2,81.4c-1.1,0.2-1.9,0.6-2.5,1.2s-0.8,1.5-0.6,2.5c0.1,1,0.6,1.7,1.2,2.1
					c0.7,0.5,1.6,0.6,2.6,0.5c1.1-0.2,1.9-0.5,2.5-1.2c0.5-0.6,0.7-1.4,0.6-2.4c-0.1-1-0.6-1.7-1.2-2.2
					C689.1,81.4,688.3,81.3,687.2,81.4z"/>
			</g>
			<g id="XMLID_1130_">
				<path id="XMLID_1494_" class="st0" d="M749.1,84.4c-0.4,0.3-0.9,0.6-1.4,0.7c-0.5,0.2-1,0.3-1.5,0.4c-2.1,0.3-3.9-0.2-5.4-1.3
					c-1.5-1.2-2.4-2.9-2.8-5c-0.3-2.4,0.1-4.4,1.4-6s3.2-2.7,5.6-3c2.3-0.3,4.2,0.1,5.8,1.3c1.6,1.2,2.6,3,2.9,5.3
					c0.4,2.5-0.8,6.3-3.5,11.5l-0.3,0.6l-3.2,6.3l-3-1L749.1,84.4z M750.2,77.1c-0.2-1.4-0.7-2.4-1.6-3.2s-1.9-1-3.2-0.8
					c-1.4,0.2-2.4,0.8-3.1,1.7c-0.7,0.9-0.9,2.1-0.7,3.5s0.8,2.5,1.6,3.2c0.9,0.7,2,1,3.4,0.8c1.2-0.2,2.2-0.8,2.8-1.7
					C750.2,79.6,750.4,78.5,750.2,77.1z"/>
			</g>
			<g id="XMLID_1133_">
				<path id="XMLID_1491_" class="st0" d="M795.7,86.5l-2.8-19.8l-4.8,0.7l1-3.2l6.7-1l3.3,22.8L795.7,86.5z"/>
			</g>
			<g id="XMLID_1135_">
				<path id="XMLID_1487_" class="st0" d="M823.1,71.3c0.5,3.7,0.2,6.6-1,8.9s-3.1,3.6-5.6,4c-2.6,0.4-4.8-0.4-6.5-2.3
					s-2.9-4.7-3.4-8.5s-0.2-6.8,0.9-9.1c1.2-2.3,3.1-3.6,5.7-4c2.6-0.4,4.8,0.4,6.5,2.3C821.4,64.5,822.5,67.4,823.1,71.3z M816,81
					c1.5-0.2,2.6-1.1,3.1-2.7s0.6-3.8,0.2-6.7c-0.4-2.8-1.1-4.9-2.1-6.3s-2.2-2-3.6-1.7c-1.5,0.2-2.6,1.1-3.1,2.7
					c-0.6,1.6-0.6,3.8-0.2,6.7c0.4,2.8,1.1,4.9,2.1,6.3S814.5,81.2,816,81z"/>
			</g>
			<g id="XMLID_1138_">
				<path id="XMLID_1484_" class="st0" d="M854,78.2l-2.8-19.8l-4.8,0.7l1-3.2l6.7-1l3.3,22.8L854,78.2z"/>
			</g>
			<g id="XMLID_1140_">
				<path id="XMLID_1481_" class="st0" d="M873.5,75.4l-2.8-19.8l-4.8,0.7l1-3.2l6.7-1l3.3,22.8L873.5,75.4z"/>
			</g>
		</g>
		<g id="XMLID_593_">
			<g id="XMLID_1077_">
				<path id="XMLID_1477_" class="st0" d="M511.9,181.8l-2.8-19.8l-4.8,0.7l1-3.2l6.7-1l3.3,22.8L511.9,181.8z"/>
			</g>
			<g id="XMLID_1080_">
				<path id="XMLID_1474_" class="st0" d="M538.5,175l0.4,3l-15.4,2.2l7.1-11.5c0.9-1.4,1.5-2.7,1.9-3.7s0.5-2,0.4-2.8
					c-0.2-1.1-0.6-2-1.4-2.6s-1.7-0.8-2.9-0.6c-1,0.1-1.9,0.6-2.5,1.4c-0.6,0.8-0.8,1.7-0.8,2.7l-3.6,0.5c-0.3-2.1,0.2-3.8,1.4-5.2
					c1.2-1.4,3-2.3,5.3-2.6c2.2-0.3,4.1,0,5.5,1c1.4,1,2.3,2.4,2.6,4.4c0.2,1.4,0,2.9-0.5,4.4s-1.8,3.8-3.8,6.9l-2.4,3.8L538.5,175z
					"/>
			</g>
			<g id="XMLID_1083_">
				<path id="XMLID_1471_" class="st0" d="M570.2,173.5l-2.8-19.8l-4.8,0.7l1-3.2l6.7-1l3.3,22.8L570.2,173.5z"/>
			</g>
			<g id="XMLID_1086_">
				<path id="XMLID_1468_" class="st0" d="M581.7,165.6l3.6-0.5v0.2c0.2,1.1,0.6,1.9,1.4,2.4s1.8,0.7,3.1,0.5
					c1.4-0.2,2.4-0.7,3.1-1.5s0.9-1.9,0.7-3.2c-0.2-1.4-0.7-2.4-1.6-2.9c-0.9-0.5-2.1-0.8-3.6-0.5c-0.1,0-0.2,0-0.3,0.1
					c-0.2,0-0.3,0.1-0.4,0.1l-0.4-3c0.1,0,0.2,0,0.3,0c0.2,0,0.3,0,0.3,0c1.4-0.2,2.3-0.6,3-1.3c0.6-0.7,0.8-1.6,0.7-2.7
					c-0.1-1-0.6-1.7-1.3-2.2c-0.7-0.5-1.6-0.7-2.6-0.5c-1.1,0.2-2,0.6-2.5,1.2c-0.6,0.6-0.8,1.4-0.7,2.4l-3.4,0.5
					c-0.2-2,0.3-3.6,1.4-4.8c1.1-1.2,2.7-2,4.9-2.3c2.1-0.3,3.9,0,5.2,0.9c1.4,0.9,2.2,2.3,2.5,4.2c0.2,1.4,0,2.6-0.5,3.6
					c-0.6,1-1.5,1.7-2.7,2.1c1.5,0.1,2.7,0.5,3.6,1.4c0.9,0.9,1.5,2.2,1.7,3.9c0.3,2-0.2,3.8-1.5,5.2c-1.3,1.4-3.1,2.3-5.6,2.6
					c-2.2,0.3-4.1,0-5.6-1.1C583,169.2,582.1,167.6,581.7,165.6z"/>
			</g>
			<g id="XMLID_1089_">
				<path id="XMLID_1465_" class="st0" d="M628.5,165.2l-2.8-19.8l-4.8,0.7l1-3.2l6.7-1l3.3,22.8L628.5,165.2z"/>
			</g>
			<g id="XMLID_1092_">
				<path id="XMLID_1461_" class="st0" d="M650.9,162l-0.7-4.7l-11,1.6l10.7-20.5l1.1-0.2l2.3,16l2.8-0.4l0.4,2.6l-2.8,0.4l0.7,4.7
					L650.9,162z M648.8,146.4l-4.7,9.1l5.8-0.8l-0.9-6c0-0.3-0.1-0.7-0.1-1.1C648.9,147.3,648.8,146.8,648.8,146.4z"/>
			</g>
			<g id="XMLID_1096_">
				<path id="XMLID_1458_" class="st0" d="M686.8,156.8L684,137l-4.8,0.7l1-3.2l6.7-1l3.3,22.8L686.8,156.8z"/>
			</g>
			<g id="XMLID_1098_">
				<path id="XMLID_1455_" class="st0" d="M700.7,149.2c0.7,0.9,1.5,1.6,2.4,2s1.9,0.5,2.9,0.4c1.5-0.2,2.7-0.9,3.5-2s1.1-2.4,0.9-4
					c-0.2-1.5-0.9-2.7-2-3.5s-2.5-1.1-4.1-0.9c-1,0.1-1.8,0.4-2.6,0.9c-0.8,0.4-1.4,1-2,1.8l-1-0.1l1.2-12.1l10.9-1.6l0.4,3
					l-8.6,1.2l-0.6,5.3c0.6-0.4,1.2-0.6,1.7-0.8c0.6-0.2,1.1-0.4,1.7-0.4c2.2-0.3,4.1,0.1,5.6,1.3c1.6,1.2,2.5,2.9,2.8,5.2
					c0.4,2.6-0.1,4.7-1.5,6.5s-3.4,2.8-6.1,3.2c-1.6,0.2-3,0.1-4.3-0.2s-2.4-1.1-3.4-2.1L700.7,149.2z"/>
			</g>
			<g id="XMLID_1100_">
				<path id="XMLID_1452_" class="st0" d="M745.2,148.5l-2.8-19.8l-4.8,0.7l1-3.2l6.7-1l3.3,22.8L745.2,148.5z"/>
			</g>
			<g id="XMLID_1102_">
				<path id="XMLID_1448_" class="st0" d="M761.5,131.9c0.5-0.3,1-0.6,1.4-0.8c0.5-0.2,1-0.3,1.5-0.4c2.1-0.3,3.8,0.2,5.4,1.4
					s2.4,2.9,2.8,5.1c0.3,2.4-0.1,4.4-1.4,6s-3.2,2.7-5.6,3c-2.3,0.3-4.2-0.1-5.8-1.3c-1.6-1.2-2.6-3-2.9-5.3
					c-0.4-2.5,0.8-6.3,3.5-11.5l0.3-0.6l3.2-6.3l3.1,1L761.5,131.9z M760.4,139.1c0.2,1.4,0.7,2.4,1.6,3.2c0.9,0.7,1.9,1,3.2,0.8
					c1.4-0.2,2.4-0.8,3.1-1.7c0.7-0.9,0.9-2.1,0.7-3.5s-0.8-2.5-1.6-3.2s-2-1-3.4-0.8c-1.2,0.2-2.2,0.7-2.8,1.7
					C760.5,136.6,760.2,137.8,760.4,139.1z"/>
			</g>
			<g id="XMLID_1106_">
				<path id="XMLID_1445_" class="st0" d="M803.5,140.2l-2.8-19.8l-4.8,0.7l1-3.2l6.7-1l3.3,22.8L803.5,140.2z"/>
			</g>
			<g id="XMLID_1109_">
				<path id="XMLID_1386_" class="st0" d="M817.9,137.6l6.6-20.7l-10.6,1.5l-0.4-3l15.9-2.3l-8.2,25.3L817.9,137.6z"/>
			</g>
			<g id="XMLID_1111_">
				<path id="XMLID_1383_" class="st0" d="M861.8,131.9L859,112l-4.8,0.7l1-3.2l6.7-1l3.3,22.8L861.8,131.9z"/>
			</g>
			<g id="XMLID_1114_">
				<path id="XMLID_1378_" class="st0" d="M876.9,117.3c-1.2-0.3-2.1-0.9-2.8-1.6c-0.6-0.7-1.1-1.7-1.2-2.9
					c-0.3-1.8,0.2-3.4,1.3-4.7c1.1-1.3,2.8-2.1,4.9-2.4c2.2-0.3,4,0,5.5,1s2.3,2.4,2.6,4.3c0.2,1.1,0,2.1-0.4,3s-1.2,1.6-2.2,2.2
					c1.3,0.2,2.4,0.8,3.3,1.8c0.9,1,1.4,2.2,1.6,3.6c0.3,2.1-0.2,3.9-1.4,5.3s-3.1,2.3-5.6,2.6c-2.4,0.3-4.5,0-6-1
					c-1.6-1-2.5-2.5-2.8-4.6c-0.2-1.5,0-2.8,0.5-4C874.7,118.8,875.6,117.9,876.9,117.3z M882.1,126.5c1.4-0.2,2.4-0.7,3-1.5
					c0.7-0.8,0.9-1.8,0.7-3.1c-0.2-1.3-0.7-2.2-1.6-2.8c-0.9-0.6-2-0.8-3.3-0.6c-1.3,0.2-2.3,0.7-3,1.5s-0.9,1.9-0.7,3.1
					s0.7,2.2,1.6,2.8C879.6,126.4,880.7,126.6,882.1,126.5z M879.6,108.7c-1.1,0.2-1.9,0.6-2.5,1.2c-0.5,0.7-0.8,1.5-0.6,2.5
					c0.1,1,0.6,1.7,1.2,2.1c0.7,0.5,1.6,0.6,2.6,0.5c1.1-0.2,1.9-0.5,2.5-1.2c0.5-0.6,0.7-1.4,0.6-2.4c-0.1-1-0.6-1.7-1.2-2.2
					C881.5,108.7,880.7,108.5,879.6,108.7z"/>
			</g>
		</g>
		<g id="XMLID_647_">
			<g id="XMLID_954_">
				<path id="XMLID_1374_" class="st0" d="M519.6,235.5l-2.8-19.8l-4.8,0.7l1-3.2l6.7-1L523,235L519.6,235.5z"/>
			</g>
			<g id="XMLID_961_">
				<path id="XMLID_1370_" class="st0" d="M541,223.6c-0.4,0.3-0.9,0.6-1.4,0.7c-0.5,0.2-1,0.3-1.5,0.4c-2.1,0.3-3.9-0.2-5.4-1.3
					c-1.5-1.2-2.4-2.9-2.8-5c-0.3-2.4,0.1-4.4,1.4-6c1.3-1.7,3.2-2.7,5.6-3c2.3-0.3,4.2,0.1,5.8,1.3c1.6,1.2,2.6,3,2.9,5.3
					c0.4,2.5-0.8,6.3-3.5,11.5l-0.3,0.6l-3.2,6.3l-3-1L541,223.6z M542.1,216.3c-0.2-1.4-0.7-2.4-1.6-3.2c-0.9-0.7-1.9-1-3.2-0.8
					c-1.4,0.2-2.4,0.8-3.1,1.7c-0.7,0.9-0.9,2.1-0.7,3.5c0.2,1.4,0.8,2.5,1.6,3.2c0.9,0.7,2,1,3.4,0.8c1.2-0.2,2.2-0.8,2.8-1.7
					S542.3,217.7,542.1,216.3z"/>
			</g>
			<g id="XMLID_1027_">
				<path id="XMLID_1367_" class="st0" d="M585,223.1l0.4,3l-15.4,2.2l7.1-11.5c0.9-1.4,1.5-2.7,1.9-3.7s0.5-2,0.4-2.8
					c-0.2-1.1-0.6-2-1.4-2.6s-1.7-0.8-2.9-0.6c-1,0.1-1.9,0.6-2.5,1.4c-0.6,0.8-0.8,1.7-0.8,2.7l-3.6,0.5c-0.3-2.1,0.2-3.8,1.4-5.2
					c1.2-1.4,3-2.3,5.3-2.6c2.2-0.3,4.1,0,5.5,1c1.4,1,2.3,2.4,2.6,4.4c0.2,1.4,0,2.9-0.5,4.4s-1.8,3.8-3.8,6.9l-2.4,3.8L585,223.1z
					"/>
			</g>
			<g id="XMLID_1029_">
				<path id="XMLID_1363_" class="st0" d="M605.2,211.9c0.5,3.7,0.2,6.6-1,8.9s-3.1,3.6-5.6,4c-2.6,0.4-4.8-0.4-6.5-2.3
					c-1.7-1.9-2.9-4.7-3.4-8.5s-0.2-6.8,0.9-9.1c1.2-2.3,3.1-3.6,5.7-4c2.6-0.4,4.8,0.4,6.5,2.3C603.5,205.1,604.7,208,605.2,211.9z
					 M598.1,221.6c1.5-0.2,2.6-1.1,3.1-2.7s0.6-3.8,0.2-6.7c-0.4-2.8-1.1-4.9-2.1-6.3s-2.2-2-3.6-1.7c-1.5,0.2-2.6,1.1-3.1,2.7
					c-0.6,1.6-0.6,3.8-0.2,6.7c0.4,2.8,1.1,4.9,2.1,6.3C595.4,221.2,596.7,221.8,598.1,221.6z"/>
			</g>
			<g id="XMLID_1033_">
				<path id="XMLID_1360_" class="st0" d="M643.4,214.7l0.4,3l-15.4,2.2l7.1-11.5c0.9-1.4,1.5-2.7,1.9-3.7c0.4-1,0.5-2,0.4-2.8
					c-0.2-1.1-0.6-2-1.4-2.6c-0.8-0.6-1.7-0.8-2.9-0.6c-1,0.1-1.9,0.6-2.5,1.4s-0.8,1.7-0.8,2.7l-3.6,0.5c-0.3-2.1,0.2-3.8,1.4-5.2
					s3-2.3,5.3-2.6c2.2-0.3,4.1,0,5.5,1s2.3,2.4,2.6,4.4c0.2,1.4,0,2.9-0.5,4.4s-1.8,3.8-3.8,6.9l-2.4,3.8L643.4,214.7z"/>
			</g>
			<g id="XMLID_1036_">
				<path id="XMLID_1357_" class="st0" d="M655.6,216l-2.8-19.8l-4.8,0.7l1-3.2l6.7-1l3.3,22.8L655.6,216z"/>
			</g>
			<g id="XMLID_1039_">
				<path id="XMLID_1354_" class="st0" d="M701.7,206.4l0.4,3l-15.4,2.2l7.1-11.5c0.9-1.4,1.5-2.7,1.9-3.7s0.5-2,0.4-2.8
					c-0.2-1.1-0.6-2-1.4-2.6s-1.7-0.8-2.9-0.6c-1,0.1-1.9,0.6-2.5,1.4s-0.8,1.7-0.8,2.7l-3.6,0.5c-0.3-2.1,0.2-3.8,1.4-5.2
					s3-2.3,5.3-2.6c2.2-0.3,4.1,0,5.5,1s2.3,2.4,2.6,4.4c0.2,1.4,0,2.9-0.5,4.4s-1.8,3.8-3.8,6.9l-2.4,3.8L701.7,206.4z"/>
			</g>
			<g id="XMLID_1041_">
				<path id="XMLID_1351_" class="st0" d="M721.1,203.6l0.4,3l-15.4,2.2l7.1-11.5c0.9-1.4,1.5-2.7,1.9-3.7s0.5-2,0.4-2.8
					c-0.2-1.1-0.6-2-1.4-2.6c-0.8-0.6-1.7-0.8-2.9-0.6c-1,0.1-1.9,0.6-2.5,1.4s-0.8,1.7-0.8,2.7l-3.6,0.5c-0.3-2.1,0.2-3.8,1.4-5.2
					s3-2.3,5.3-2.6c2.2-0.3,4.1,0,5.5,1s2.3,2.4,2.6,4.4c0.2,1.4,0,2.9-0.5,4.4s-1.8,3.8-3.8,6.9l-2.4,3.8L721.1,203.6z"/>
			</g>
			<g id="XMLID_1044_">
				<path id="XMLID_1348_" class="st0" d="M760,198.1l0.4,3l-15.4,2.2l7.1-11.5c0.9-1.4,1.5-2.7,1.9-3.7s0.5-2,0.4-2.8
					c-0.2-1.1-0.6-2-1.4-2.6c-0.8-0.6-1.7-0.8-2.9-0.6c-1,0.1-1.9,0.6-2.5,1.4s-0.8,1.7-0.8,2.7l-3.6,0.5c-0.3-2.1,0.2-3.8,1.4-5.2
					s3-2.3,5.3-2.6c2.2-0.3,4.1,0,5.5,1s2.3,2.4,2.6,4.4c0.2,1.4,0,2.9-0.5,4.4s-1.8,3.8-3.8,6.9l-2.4,3.8L760,198.1z"/>
			</g>
			<g id="XMLID_1047_">
				<path id="XMLID_1345_" class="st0" d="M764.4,194.2l3.6-0.5v0.2c0.2,1.1,0.6,1.9,1.4,2.4c0.8,0.5,1.8,0.7,3.1,0.5
					c1.4-0.2,2.4-0.7,3.1-1.5c0.7-0.8,0.9-1.9,0.7-3.2c-0.2-1.4-0.7-2.4-1.6-2.9c-0.9-0.6-2.1-0.8-3.6-0.5c-0.1,0-0.2,0-0.3,0.1
					s-0.3,0.1-0.4,0.1l-0.4-3c0.1,0,0.2,0,0.3,0c0.2,0,0.3,0,0.3,0c1.4-0.2,2.3-0.6,3-1.3c0.6-0.7,0.8-1.6,0.7-2.7
					c-0.1-1-0.6-1.7-1.3-2.2s-1.6-0.7-2.6-0.5c-1.1,0.2-2,0.6-2.5,1.2c-0.6,0.6-0.8,1.4-0.7,2.4l-3.4,0.5c-0.2-2,0.3-3.6,1.4-4.8
					s2.7-2,4.9-2.3c2.1-0.3,3.9,0,5.2,0.9c1.4,0.9,2.2,2.3,2.5,4.2c0.2,1.4,0,2.6-0.5,3.6c-0.6,1-1.5,1.7-2.7,2.1
					c1.5,0.1,2.7,0.5,3.6,1.4c0.9,0.9,1.5,2.2,1.7,3.9c0.3,2-0.2,3.8-1.5,5.2c-1.3,1.4-3.1,2.3-5.6,2.6c-2.2,0.3-4.1,0-5.6-1.1
					C765.7,197.8,764.7,196.3,764.4,194.2z"/>
			</g>
			<g id="XMLID_1050_">
				<path id="XMLID_1342_" class="st0" d="M818.3,189.8l0.4,3l-15.4,2.2l7.1-11.5c0.9-1.4,1.5-2.7,1.9-3.7s0.5-2,0.4-2.8
					c-0.2-1.1-0.6-2-1.4-2.6c-0.8-0.6-1.7-0.8-2.9-0.6c-1,0.1-1.9,0.6-2.5,1.4s-0.8,1.7-0.8,2.7l-3.6,0.5c-0.3-2.1,0.2-3.8,1.4-5.2
					c1.2-1.4,3-2.3,5.3-2.6c2.2-0.3,4.1,0,5.5,1s2.3,2.4,2.6,4.4c0.2,1.4,0,2.9-0.5,4.4s-1.8,3.8-3.8,6.9l-2.4,3.8L818.3,189.8z"/>
			</g>
			<g id="XMLID_1068_">
				<path id="XMLID_1338_" class="st0" d="M833.5,190.6l-0.7-4.7l-11,1.6l10.7-20.5l1.1-0.2l2.3,16l2.8-0.4l0.4,2.6l-2.8,0.4
					l0.7,4.7L833.5,190.6z M831.4,175.1l-4.7,9.1l5.8-0.8l-0.9-6c0-0.3-0.1-0.7-0.1-1.1C831.5,175.9,831.4,175.5,831.4,175.1z"/>
			</g>
			<g id="XMLID_1072_">
				<path id="XMLID_1335_" class="st0" d="M876.6,181.4l0.4,3l-15.4,2.2l7.1-11.5c0.9-1.4,1.5-2.7,1.9-3.7s0.5-2,0.4-2.8
					c-0.2-1.1-0.6-2-1.4-2.6c-0.8-0.6-1.7-0.8-2.9-0.6c-1,0.1-1.9,0.6-2.5,1.4s-0.8,1.7-0.8,2.7l-3.6,0.5c-0.3-2.1,0.2-3.8,1.4-5.2
					s3-2.3,5.3-2.6c2.2-0.3,4.1,0,5.5,1s2.3,2.4,2.6,4.4c0.2,1.4,0,2.9-0.5,4.4s-1.8,3.8-3.8,6.9l-2.4,3.8L876.6,181.4z"/>
			</g>
			<g id="XMLID_1074_">
				<path id="XMLID_1332_" class="st0" d="M883.3,177.9c0.7,0.9,1.5,1.6,2.4,2s1.9,0.5,2.9,0.4c1.5-0.2,2.7-0.9,3.5-2s1.1-2.4,0.9-4
					c-0.2-1.5-0.9-2.7-2-3.5s-2.5-1.1-4.1-0.9c-1,0.1-1.8,0.4-2.6,0.9s-1.4,1-2,1.8l-1-0.1l1.2-12.1l10.9-1.6l0.4,3l-8.6,1.2
					l-0.6,5.3c0.6-0.4,1.2-0.6,1.7-0.8c0.6-0.2,1.1-0.4,1.7-0.4c2.2-0.3,4.1,0.1,5.6,1.3c1.6,1.2,2.5,2.9,2.8,5.2
					c0.4,2.6-0.1,4.7-1.5,6.5s-3.4,2.8-6.1,3.2c-1.6,0.2-3,0.1-4.3-0.2c-1.3-0.4-2.4-1.1-3.4-2.1L883.3,177.9z"/>
			</g>
		</g>
		<g id="XMLID_658_">
			<g id="XMLID_812_">
				<path id="XMLID_4_" class="st0" d="M534.4,285.1l0.4,3l-15.4,2.2l7.1-11.5c0.9-1.4,1.5-2.7,1.9-3.7c0.4-1,0.5-2,0.4-2.8
					c-0.2-1.1-0.6-2-1.4-2.6c-0.8-0.6-1.7-0.8-2.9-0.6c-1,0.1-1.9,0.6-2.5,1.4s-0.8,1.7-0.8,2.7l-3.6,0.5c-0.3-2.1,0.2-3.8,1.4-5.2
					c1.2-1.4,3-2.3,5.3-2.6c2.2-0.3,4.1,0,5.5,1s2.3,2.4,2.6,4.4c0.2,1.4,0,2.9-0.5,4.4s-1.8,3.8-3.8,6.9l-2.4,3.8L534.4,285.1z"/>
			</g>
			<g id="XMLID_814_">
				<path id="XMLID_3_" class="st0" d="M543.6,272.5c0.5-0.3,1-0.6,1.4-0.8c0.5-0.2,1-0.3,1.5-0.4c2.1-0.3,3.8,0.2,5.4,1.4
					c1.5,1.2,2.4,2.9,2.8,5.1c0.3,2.4-0.1,4.4-1.4,6c-1.3,1.7-3.2,2.7-5.6,3c-2.3,0.3-4.2-0.1-5.8-1.3s-2.6-3-2.9-5.3
					c-0.4-2.5,0.8-6.3,3.5-11.5l0.3-0.6l3.2-6.3l3.1,1L543.6,272.5z M542.5,279.7c0.2,1.4,0.7,2.4,1.6,3.2c0.9,0.7,1.9,1,3.2,0.8
					c1.4-0.2,2.4-0.8,3.1-1.7s0.9-2.1,0.7-3.5s-0.8-2.5-1.6-3.2c-0.9-0.7-2-1-3.4-0.8c-1.2,0.2-2.2,0.7-2.8,1.7
					C542.5,277.2,542.3,278.4,542.5,279.7z"/>
			</g>
			<g id="XMLID_817_">
				<path id="XMLID_1320_" class="st0" d="M592.7,276.7l0.4,3l-15.4,2.2l7.1-11.5c0.9-1.4,1.5-2.7,1.9-3.7s0.5-2,0.4-2.8
					c-0.2-1.1-0.6-2-1.4-2.6s-1.7-0.8-2.9-0.6c-1,0.1-1.9,0.6-2.5,1.4c-0.6,0.8-0.8,1.7-0.8,2.7l-3.6,0.5c-0.3-2.1,0.2-3.8,1.4-5.2
					c1.2-1.4,3-2.3,5.3-2.6c2.2-0.3,4.1,0,5.5,1c1.4,1,2.3,2.4,2.6,4.4c0.2,1.4,0,2.9-0.5,4.4s-1.8,3.8-3.8,6.9L584,278L592.7,276.7
					z"/>
			</g>
			<g id="XMLID_819_">
				<path id="XMLID_2_" class="st0" d="M600,278.2l6.6-20.7L596,259l-0.4-3l15.9-2.3l-8.2,25.3L600,278.2z"/>
			</g>
			<g id="XMLID_821_">
				<path id="XMLID_1314_" class="st0" d="M651,268.4l0.4,3l-15.4,2.2l7.1-11.5c0.9-1.4,1.5-2.7,1.9-3.7s0.5-2,0.4-2.8
					c-0.2-1.1-0.6-2-1.4-2.6c-0.8-0.6-1.7-0.8-2.9-0.6c-1,0.1-1.9,0.6-2.5,1.4c-0.6,0.8-0.8,1.7-0.8,2.7l-3.6,0.5
					c-0.3-2.1,0.2-3.8,1.4-5.2c1.2-1.4,3-2.3,5.3-2.6c2.2-0.3,4.1,0,5.5,1s2.3,2.4,2.6,4.4c0.2,1.4,0,2.9-0.5,4.4s-1.8,3.8-3.8,6.9
					l-2.4,3.8L651,268.4z"/>
			</g>
			<g id="XMLID_823_">
				<path id="XMLID_1309_" class="st0" d="M658.9,257.9c-1.2-0.3-2.1-0.9-2.8-1.6s-1.1-1.7-1.2-2.9c-0.3-1.8,0.2-3.4,1.3-4.7
					s2.8-2.1,4.9-2.4c2.2-0.3,4,0,5.5,1s2.3,2.4,2.6,4.3c0.2,1.1,0,2.1-0.4,3s-1.2,1.6-2.2,2.2c1.3,0.2,2.4,0.8,3.3,1.8
					c0.9,1,1.4,2.2,1.6,3.6c0.3,2.1-0.2,3.9-1.4,5.3s-3.1,2.3-5.6,2.6c-2.4,0.3-4.5,0-6-1c-1.6-1-2.5-2.5-2.8-4.6
					c-0.2-1.5,0-2.8,0.5-4S657.7,258.5,658.9,257.9z M664.1,267.1c1.4-0.2,2.4-0.7,3-1.5c0.7-0.8,0.9-1.8,0.7-3.1s-0.7-2.2-1.6-2.8
					c-0.9-0.6-2-0.8-3.3-0.6s-2.3,0.7-3,1.5s-0.9,1.9-0.7,3.1c0.2,1.2,0.7,2.2,1.6,2.8C661.7,267.1,662.8,267.3,664.1,267.1z
					 M661.7,249.3c-1.1,0.2-1.9,0.6-2.5,1.2s-0.8,1.5-0.6,2.5c0.1,1,0.6,1.7,1.2,2.1c0.7,0.5,1.6,0.6,2.6,0.5
					c1.1-0.2,1.9-0.5,2.5-1.2s0.7-1.4,0.6-2.4c-0.1-1-0.6-1.7-1.2-2.2C663.6,249.3,662.7,249.1,661.7,249.3z"/>
			</g>
			<g id="XMLID_827_">
				<path id="XMLID_1306_" class="st0" d="M709.3,260.1l0.4,3l-15.4,2.2l7.1-11.5c0.9-1.4,1.5-2.7,1.9-3.7s0.5-2,0.4-2.8
					c-0.2-1.1-0.6-2-1.4-2.6c-0.8-0.6-1.7-0.8-2.9-0.6c-1,0.1-1.9,0.6-2.5,1.4c-0.6,0.8-0.8,1.7-0.8,2.7l-3.6,0.5
					c-0.3-2.1,0.2-3.8,1.4-5.2s3-2.3,5.3-2.6c2.2-0.3,4.1,0,5.5,1s2.3,2.4,2.6,4.4c0.2,1.4,0,2.9-0.5,4.4s-1.8,3.8-3.8,6.9l-2.4,3.8
					L709.3,260.1z"/>
			</g>
			<g id="XMLID_829_">
				<path id="XMLID_1302_" class="st0" d="M723.6,252.2c-0.4,0.3-0.9,0.6-1.4,0.7c-0.5,0.2-1,0.3-1.5,0.4c-2.1,0.3-3.9-0.2-5.4-1.3
					c-1.5-1.2-2.4-2.9-2.8-5c-0.3-2.4,0.1-4.4,1.4-6c1.3-1.7,3.2-2.7,5.6-3c2.3-0.3,4.2,0.1,5.8,1.3s2.6,3,2.9,5.3
					c0.4,2.5-0.8,6.3-3.5,11.5l-0.3,0.6l-3.2,6.3l-3-1L723.6,252.2z M724.7,245c-0.2-1.4-0.7-2.4-1.6-3.2c-0.9-0.7-1.9-1-3.2-0.8
					c-1.4,0.2-2.4,0.8-3.1,1.7c-0.7,0.9-0.9,2.1-0.7,3.5s0.8,2.5,1.6,3.2c0.9,0.7,2,1,3.4,0.8c1.2-0.2,2.2-0.8,2.8-1.7
					C724.7,247.5,724.9,246.4,724.7,245z"/>
			</g>
			<g id="XMLID_888_">
				<path id="XMLID_1299_" class="st0" d="M752.6,250.7l3.6-0.5v0.2c0.2,1.1,0.6,1.9,1.4,2.4c0.8,0.5,1.8,0.7,3.1,0.5
					c1.4-0.2,2.4-0.7,3.1-1.5c0.7-0.8,0.9-1.9,0.7-3.2c-0.2-1.4-0.7-2.4-1.6-2.9s-2.1-0.8-3.6-0.5c-0.1,0-0.2,0-0.3,0.1
					c-0.2,0-0.3,0.1-0.4,0.1l-0.4-3c0.1,0,0.2,0,0.3,0s0.3,0,0.3,0c1.4-0.2,2.3-0.6,3-1.3c0.6-0.7,0.8-1.6,0.7-2.7
					c-0.1-1-0.6-1.7-1.3-2.2s-1.6-0.7-2.6-0.5c-1.1,0.2-2,0.6-2.5,1.2c-0.6,0.6-0.8,1.4-0.7,2.4l-3.4,0.5c-0.2-2,0.3-3.6,1.4-4.8
					s2.7-2,4.9-2.3c2.1-0.3,3.9,0,5.2,0.9c1.4,0.9,2.2,2.3,2.5,4.2c0.2,1.4,0,2.6-0.5,3.6c-0.6,1-1.5,1.7-2.7,2.1
					c1.5,0.1,2.7,0.5,3.6,1.4c0.9,0.9,1.5,2.2,1.7,3.9c0.3,2-0.2,3.8-1.5,5.2s-3.1,2.3-5.6,2.6c-2.2,0.3-4.1,0-5.6-1.1
					C753.9,254.3,752.9,252.7,752.6,250.7z"/>
			</g>
			<g id="XMLID_890_">
				<path id="XMLID_1295_" class="st0" d="M787.8,240.6c0.5,3.7,0.2,6.6-1,8.9s-3.1,3.6-5.6,4c-2.6,0.4-4.8-0.4-6.5-2.3
					c-1.7-1.9-2.9-4.7-3.4-8.5s-0.2-6.8,0.9-9.1s3.1-3.6,5.7-4c2.6-0.4,4.8,0.4,6.5,2.3C786.1,233.8,787.3,236.7,787.8,240.6z
					 M780.7,250.3c1.5-0.2,2.6-1.1,3.1-2.7c0.6-1.6,0.6-3.8,0.2-6.7c-0.4-2.8-1.1-4.9-2.1-6.3c-1-1.4-2.2-2-3.6-1.7
					c-1.5,0.2-2.6,1.1-3.1,2.7c-0.6,1.6-0.6,3.8-0.2,6.7c0.4,2.8,1.1,4.9,2.1,6.3C778.1,249.9,779.3,250.5,780.7,250.3z"/>
			</g>
			<g id="XMLID_893_">
				<path id="XMLID_1292_" class="st0" d="M810.9,242.3l3.6-0.5v0.2c0.2,1.1,0.6,1.9,1.4,2.4c0.8,0.5,1.8,0.7,3.1,0.5
					c1.4-0.2,2.4-0.7,3.1-1.5c0.7-0.8,0.9-1.9,0.7-3.2c-0.2-1.4-0.7-2.4-1.6-2.9c-0.9-0.6-2.1-0.8-3.6-0.5c-0.1,0-0.2,0-0.3,0.1
					c-0.2,0-0.3,0.1-0.4,0.1l-0.4-3c0.1,0,0.2,0,0.3,0c0.2,0,0.3,0,0.3,0c1.4-0.2,2.3-0.6,3-1.3s0.8-1.6,0.7-2.7
					c-0.1-1-0.6-1.7-1.3-2.2s-1.6-0.7-2.6-0.5c-1.1,0.2-2,0.6-2.5,1.2s-0.8,1.4-0.7,2.4l-3.4,0.5c-0.2-2,0.3-3.6,1.4-4.8
					c1.1-1.2,2.7-2,4.9-2.3c2.1-0.3,3.9,0,5.2,0.9c1.4,0.9,2.2,2.3,2.5,4.2c0.2,1.4,0,2.6-0.5,3.6c-0.6,1-1.5,1.7-2.7,2.1
					c1.5,0.1,2.7,0.5,3.6,1.4c0.9,0.9,1.5,2.2,1.7,3.9c0.3,2-0.2,3.8-1.5,5.2s-3.1,2.3-5.6,2.6c-2.2,0.3-4.1,0-5.6-1.1
					S811.2,244.4,810.9,242.3z"/>
			</g>
			<g id="XMLID_895_">
				<path id="XMLID_1289_" class="st0" d="M838.2,244.7l-2.8-19.8l-4.8,0.7l1-3.2l6.7-1l3.3,22.8L838.2,244.7z"/>
			</g>
		</g>
		<g id="XMLID_659_">
			<g id="XMLID_790_">
				<path id="XMLID_1285_" class="st0" d="M677.6,48.7l-2.8-19.8l-4.8,0.7l1-3.2l6.7-1l3.3,22.8L677.6,48.7z"/>
			</g>
			<g id="XMLID_792_">
				<path id="XMLID_1282_" class="st0" d="M752.8,34.9l0.4,3l-15.4,2.2l7.1-11.5c0.9-1.4,1.5-2.7,1.9-3.7s0.5-2,0.4-2.8
					c-0.2-1.1-0.6-2-1.4-2.6c-0.8-0.6-1.7-0.8-2.9-0.6c-1,0.1-1.9,0.6-2.5,1.4s-0.8,1.7-0.8,2.7l-3.6,0.5c-0.3-2.1,0.2-3.8,1.4-5.2
					c1.2-1.4,3-2.3,5.3-2.6c2.2-0.3,4.1,0,5.5,1s2.3,2.4,2.6,4.4c0.2,1.4,0,2.9-0.5,4.4s-1.8,3.8-3.8,6.9l-2.4,3.8L752.8,34.9z"/>
			</g>
			<g id="XMLID_807_">
				<path id="XMLID_1279_" class="st0" d="M796.1,25.5l3.6-0.5v0.2c0.2,1.1,0.6,1.9,1.4,2.4c0.8,0.5,1.8,0.7,3.1,0.5
					c1.4-0.2,2.4-0.7,3.1-1.5c0.7-0.8,0.9-1.9,0.7-3.2c-0.2-1.4-0.7-2.4-1.6-2.9c-0.9-0.6-2.1-0.8-3.6-0.5c-0.1,0-0.2,0-0.3,0.1
					s-0.3,0.1-0.4,0.1l-0.4-3c0.1,0,0.2,0,0.3,0s0.3,0,0.3,0c1.4-0.2,2.3-0.6,3-1.3c0.6-0.7,0.8-1.6,0.7-2.7c-0.1-1-0.6-1.7-1.3-2.2
					s-1.6-0.7-2.6-0.5c-1.1,0.2-2,0.6-2.5,1.2c-0.6,0.6-0.8,1.4-0.7,2.4l-3.4,0.5c-0.2-2,0.3-3.6,1.4-4.8c1.1-1.2,2.7-2,4.9-2.3
					c2.1-0.3,3.9,0,5.2,0.9c1.4,0.9,2.2,2.3,2.5,4.2c0.2,1.4,0,2.6-0.5,3.6c-0.6,1-1.5,1.7-2.7,2.1c1.5,0.1,2.7,0.5,3.6,1.4
					c0.9,0.9,1.5,2.2,1.7,3.9c0.3,2-0.2,3.8-1.5,5.2c-1.3,1.4-3.1,2.3-5.6,2.6c-2.2,0.3-4.1,0-5.6-1.1
					C797.4,29.1,796.4,27.5,796.1,25.5z"/>
			</g>
			<g id="XMLID_809_">
				<path id="XMLID_1275_" class="st0" d="M865.2,21.9l-0.7-4.7l-11,1.6l10.7-20.5l1.1-0.2l2.3,16l2.8-0.4l0.4,2.6l-2.8,0.4l0.7,4.7
					L865.2,21.9z M863.1,6.3l-4.7,9.1l5.8-0.8l-0.9-6c0-0.3-0.1-0.7-0.1-1.1C863.2,7.2,863.1,6.7,863.1,6.3z"/>
			</g>
		</g>
	</g>
	<g id="XMLID_1142_">
		<path id="XMLID_1169_" class="st0" d="M859,36.6c-14,0-25.4-11.4-25.4-25.4S845-14.2,859-14.2s25.4,11.4,25.4,25.4
			S873,36.6,859,36.6z M859-10.7c-12.1,0-21.9,9.8-21.9,21.9s9.8,21.9,21.9,21.9c12.1,0,21.9-9.8,21.9-21.9S871.1-10.7,859-10.7z"/>
	</g>
	<g id="XMLID_1143_">
		<path id="XMLID_1166_" class="st0" d="M802.8,45.4c-14,0-25.4-11.4-25.4-25.4s11.4-25.4,25.4-25.4S828.2,6,828.2,20
			S816.8,45.4,802.8,45.4z M802.8-1.9c-12.1,0-21.9,9.8-21.9,21.9s9.8,21.9,21.9,21.9s21.9-9.8,21.9-21.9
			C824.7,8,814.9-1.9,802.8-1.9z"/>
	</g>
	<g id="XMLID_1144_">
		<path id="XMLID_1163_" class="st0" d="M744.6,55.2c-14,0-25.4-11.4-25.4-25.4s11.4-25.4,25.4-25.4S770,15.8,770,29.8
			C769.9,43.8,758.6,55.2,744.6,55.2z M744.6,7.9c-12.1,0-21.9,9.8-21.9,21.9s9.8,21.9,21.9,21.9s21.9-9.8,21.9-21.9
			C766.5,17.7,756.7,7.9,744.6,7.9z"/>
	</g>
	<g id="XMLID_1146_">
		<path id="XMLID_1158_" class="st0" d="M568,131.7c-14,0-25.4-11.4-25.4-25.4S554,80.9,568,80.9s25.4,11.4,25.4,25.4
			C593.4,120.4,582,131.7,568,131.7z M568,84.5c-12.1,0-21.9,9.8-21.9,21.9s9.8,21.9,21.9,21.9s21.9-9.8,21.9-21.9
			S580.1,84.5,568,84.5z"/>
	</g>
	<g id="XMLID_1145_">
		<path id="XMLID_1155_" class="st0" d="M509.8,141.5c-14,0-25.4-11.4-25.4-25.4s11.4-25.4,25.4-25.4s25.4,11.4,25.4,25.4
			C535.2,130.1,523.8,141.5,509.8,141.5z M509.8,94.2c-12.1,0-21.9,9.8-21.9,21.9s9.8,21.9,21.9,21.9c12.1,0,21.9-9.8,21.9-21.9
			C531.7,104,521.9,94.2,509.8,94.2z"/>
	</g>
</g>
</svg>
