<?xml version="1.0" encoding="utf-8"?>
<!-- Generator: Adobe Illustrator 16.0.0, SVG Export Plug-In . SVG Version: 6.00 Build 0)  -->
<!DOCTYPE svg PUBLIC "-//W3C//DTD SVG 1.1//EN" "http://www.w3.org/Graphics/SVG/1.1/DTD/svg11.dtd">
<svg version="1.1" id="Layer_2" xmlns="http://www.w3.org/2000/svg" xmlns:xlink="http://www.w3.org/1999/xlink" x="0px" y="0px"
	 width="150px" height="150px" viewBox="0 0 150 150" enable-background="new 0 0 150 150" xml:space="preserve">
<polygon fill="none" stroke="#C9B250" stroke-width="0.5" stroke-miterlimit="10" points="148.999,75.064 75.505,148.555 
	2.012,75.064 75.505,1.573 "/>
<radialGradient id="SVGID_1_" cx="-96.3027" cy="1046.2275" r="27.0099" gradientTransform="matrix(1.3299 0 0 0.4692 209.8574 -425.0236)" gradientUnits="userSpaceOnUse">
	<stop  offset="0" style="stop-color:#FFF58A"/>
	<stop  offset="1" style="stop-color:#C49A2B"/>
</radialGradient>
<path fill="none" stroke="url(#SVGID_1_)" stroke-width="0.1879" stroke-miterlimit="10" d="M117.998,76.877
	c0,0.813-1.504,1.469-3.357,1.469H48.924c-1.852,0-3.354-0.656-3.354-1.469V54.856c0-0.811,1.503-1.47,3.354-1.47h65.717
	c1.854,0,3.356,0.659,3.356,1.47L117.998,76.877L117.998,76.877z"/>
<g>
	<path fill="#C9B250" d="M53.565,62.813c2.662,0,4.821,2.16,4.821,4.821c0,2.662-2.16,4.823-4.821,4.823s-4.821-2.161-4.821-4.823
		C48.744,64.973,50.903,62.813,53.565,62.813z M53.565,72.071c2.443,0,4.436-1.993,4.436-4.437c0-2.442-1.993-4.436-4.436-4.436
		s-4.436,1.993-4.436,4.436C49.129,70.078,51.122,72.071,53.565,72.071z"/>
	<path fill="#C9B250" d="M64.05,69.884l2.572,2.572h-0.541l-2.571-2.572h-3.163v2.572h-0.386v-9.644h4.179
		c1.954,0,3.536,1.582,3.536,3.536c0,1.955-1.582,3.536-3.536,3.536H64.05z M60.347,69.499h3.793c1.735,0,3.15-1.414,3.15-3.15
		c0-1.736-1.415-3.15-3.15-3.15h-3.793V69.499z"/>
	<path fill="#C9B250" d="M69.189,62.813h2.893c2.662,0,4.822,2.16,4.822,4.821c0,2.662-2.161,4.823-4.822,4.823h-2.893V62.813z
		 M69.575,72.071h2.507c2.443,0,4.438-1.993,4.438-4.437c0-2.442-1.995-4.436-4.438-4.436h-2.507V72.071z"/>
	<path fill="#C9B250" d="M78.473,62.813h5.145v0.386h-4.758v4.242h4.371v0.386h-4.371v4.244h4.758v0.386h-5.145V62.813z"/>
	<path fill="#C9B250" d="M88.973,69.884l2.573,2.572h-0.541l-2.571-2.572h-3.162v2.572h-0.388v-9.644h4.181
		c1.953,0,3.535,1.582,3.535,3.536c0,1.955-1.582,3.536-3.535,3.536H88.973z M85.271,69.499h3.793c1.732,0,3.147-1.414,3.147-3.15
		c0-1.736-1.415-3.15-3.147-3.15h-3.793V69.499z"/>
</g>
<rect x="97.706" y="62.055" fill="none" stroke="#C9B250" stroke-width="0.25" stroke-miterlimit="10" width="10.748" height="10.747"/>
<g>
	<path fill="#C9B250" d="M27.463,94.75h1.756c0.82,0,1.486-0.667,1.486-1.486c0-2.17-3.242-0.818-3.242-3.24
		c0-0.973,0.784-1.756,1.756-1.756h1.756v0.271h-1.756c-0.819,0-1.485,0.667-1.485,1.485c0,2.168,3.241,0.818,3.241,3.24
		c0,0.973-0.784,1.756-1.756,1.756h-1.756V94.75z"/>
	<path fill="#C9B250" d="M32.014,88.268h3.601v0.271h-3.331v2.972h3.061v0.271h-3.061v2.972h3.331v0.271h-3.601V88.268z"/>
	<path fill="#C9B250" d="M36.655,88.268h3.601v0.271h-3.33v2.972h3.061v0.271h-3.061v2.972h3.33v0.271h-3.601V88.268z"/>
	<path fill="#C9B250" d="M46.993,95.02h-0.27v-1.801l-3.314-4.951h0.315l3.133,4.683l3.123-4.683h0.324l-3.312,4.951L46.993,95.02
		L46.993,95.02z"/>
	<path fill="#C9B250" d="M54.043,88.268c1.864,0,3.376,1.514,3.376,3.375c0,1.864-1.512,3.377-3.376,3.377
		c-1.863,0-3.375-1.513-3.375-3.377C50.668,89.779,52.181,88.268,54.043,88.268z M54.043,94.75c1.71,0,3.106-1.396,3.106-3.107
		c0-1.709-1.396-3.104-3.106-3.104c-1.711,0-3.105,1.396-3.105,3.104C50.938,93.354,52.333,94.75,54.043,94.75z"/>
	<path fill="#C9B250" d="M58.624,92.543v-4.275h0.271v4.275c0,1.216,0.99,2.207,2.205,2.207c1.215,0,2.205-0.991,2.205-2.207v-4.275
		h0.271v4.275c0,1.369-1.107,2.477-2.476,2.477S58.624,93.912,58.624,92.543z"/>
	<path fill="#C9B250" d="M66.729,88.268H67v6.752h-0.271V88.268z"/>
	<path fill="#C9B250" d="M74.533,95.02h-0.261l-5.104-6.481h-0.495v6.481h-0.271v-6.752h0.901l4.959,6.313v-6.313h0.27L74.533,95.02
		L74.533,95.02z"/>
	<path fill="#C9B250" d="M77.688,88.268h2.744c0.973,0,1.756,0.783,1.756,1.756c0,0.738-0.449,1.358-1.08,1.619
		c0.631,0.271,1.08,0.894,1.08,1.621c0,0.973-0.783,1.756-1.756,1.756h-2.744V88.268z M77.957,91.508h2.475
		c0.855,0,1.485-0.686,1.485-1.484c0-0.818-0.664-1.485-1.485-1.485h-2.475V91.508z M77.957,94.75h2.475
		c0.821,0,1.485-0.667,1.485-1.486c0-0.793-0.63-1.484-1.485-1.484h-2.475V94.75z"/>
	<path fill="#C9B250" d="M83.525,88.268h3.603v0.271h-3.331v2.972h3.063v0.271h-3.063v2.972h3.331v0.271h-3.603V88.268z"/>
	<path fill="#C9B250" d="M88.166,88.268h0.271v6.482h3.332v0.27h-3.604L88.166,88.268L88.166,88.268z"/>
	<path fill="#C9B250" d="M93.294,93.838c1.179,1.182,3.097,1.208,4.312,0.083v-1.603h0.271v1.709c-1.314,1.324-3.457,1.324-4.771,0
		c-1.321-1.313-1.321-3.455,0-4.771c1.313-1.322,3.455-1.322,4.771,0l-0.188,0.189c-1.205-1.207-3.188-1.207-4.394,0
		C92.086,90.652,92.086,92.633,93.294,93.838z"/>
	<path fill="#C9B250" d="M102.01,93.219l1.803,1.801h-0.379l-1.802-1.801h-2.214v1.801h-0.271v-6.752h2.929
		c1.366,0,2.476,1.106,2.476,2.478c0,1.366-1.105,2.476-2.476,2.476L102.01,93.219L102.01,93.219z M99.418,92.947h2.656
		c1.215,0,2.205-0.99,2.205-2.204c0-1.218-0.99-2.207-2.205-2.207h-2.656V92.947z"/>
	<path fill="#C9B250" d="M111.09,93.354h-4.816l-0.736,1.666h-0.288l2.987-6.752h0.9l2.988,6.752h-0.298L111.09,93.354z
		 M106.391,93.083h4.572l-2.008-4.547h-0.549L106.391,93.083z"/>
	<path fill="#C9B250" d="M113.173,88.268h2.026c1.863,0,3.375,1.514,3.375,3.375c0,1.864-1.512,3.377-3.375,3.377h-2.026V88.268z
		 M113.443,94.75h1.756c1.71,0,3.105-1.396,3.105-3.107c0-1.709-1.396-3.104-3.105-3.104h-1.756V94.75z"/>
	<path fill="#C9B250" d="M119.816,88.268h3.6v0.271h-3.331v2.972h3.062v0.271h-3.062v2.972h3.331v0.271h-3.6V88.268z"/>
	<path fill="#C9B250" d="M124.456,88.268h0.271v4.502h-0.271V88.268z M124.727,95.02h-0.271V94.12h0.271V95.02z"/>
</g>
<g>
	<path fill="#C9B250" d="M66.181,30.722h1.849c1.701,0,3.083,1.381,3.083,3.082c0,1.701-1.382,3.082-3.083,3.082h-1.849V30.722z
		 M66.428,36.638h1.602c1.562,0,2.835-1.273,2.835-2.834c0-1.562-1.273-2.835-2.835-2.835h-1.602V36.638z"/>
	<path fill="#C9B250" d="M75.177,30.722c1.701,0,3.082,1.381,3.082,3.082c0,1.701-1.381,3.082-3.082,3.082
		c-1.7,0-3.081-1.38-3.081-3.082C72.096,32.102,73.477,30.722,75.177,30.722z M75.177,36.638c1.563,0,2.836-1.273,2.836-2.834
		c0-1.562-1.273-2.835-2.836-2.835c-1.561,0-2.834,1.273-2.834,2.835C72.343,35.365,73.616,36.638,75.177,36.638z"/>
	<path fill="#C9B250" d="M85.02,36.885h-0.235l-4.659-5.917h-0.451v5.917h-0.248v-6.164h0.822l4.525,5.761v-5.761h0.246V36.885z"/>
	<path fill="#C9B250" d="M86.354,30.722h3.287v0.247H86.6v2.712h2.795v0.247H86.6v2.711h3.041v0.247h-3.287V30.722z"/>
	<path fill="#C9B250" d="M90.62,30.722h0.247v4.108H90.62V30.722z M90.867,36.885H90.62v-0.822h0.247V36.885z"/>
</g>
<g>
	
		<radialGradient id="SVGID_2_" cx="61.9409" cy="467.9668" r="15.9001" gradientTransform="matrix(1 0 0 1 16.585 -429.5859)" gradientUnits="userSpaceOnUse">
		<stop  offset="0" style="stop-color:#FFF58A"/>
		<stop  offset="1" style="stop-color:#C49A2B"/>
	</radialGradient>
	
		<line fill="none" stroke="url(#SVGID_2_)" stroke-width="0.2419" stroke-miterlimit="10" x1="56.04" y1="38.382" x2="101.012" y2="38.382"/>
</g>
<polygon opacity="0.7" fill="#CEAB4D" enable-background="new    " points="98.764,65.394 103.782,70.747 113.551,57.764 
	103.514,67.468 "/>
</svg>
