<?xml version="1.0" encoding="utf-8"?>
<!-- Generator: Adobe Illustrator 16.0.0, SVG Export Plug-In . SVG Version: 6.00 Build 0)  -->
<!DOCTYPE svg PUBLIC "-//W3C//DTD SVG 1.1//EN" "http://www.w3.org/Graphics/SVG/1.1/DTD/svg11.dtd">
<svg version="1.1" id="Layer_1" xmlns="http://www.w3.org/2000/svg" xmlns:xlink="http://www.w3.org/1999/xlink" x="0px" y="0px"
	 width="150px" height="150px" viewBox="0 0 150 150" enable-background="new 0 0 150 150" xml:space="preserve">
<g id="Layer_2">
</g>
<radialGradient id="SVGID_1_" cx="44.9326" cy="580.1152" r="3.9164" gradientTransform="matrix(1 0 0 0.8696 16.585 -450.1199)" gradientUnits="userSpaceOnUse">
	<stop  offset="0" style="stop-color:#FFF58A"/>
	<stop  offset="1" style="stop-color:#C49A2B"/>
</radialGradient>
<path fill="none" stroke="url(#SVGID_1_)" stroke-width="0.1786" stroke-miterlimit="10" d="M60.364,57.962
	c0,0.554,0.517,1.003,1.154,1.003l0,0c0.637,0,1.153-0.449,1.153-1.003v-7.225c0-0.555-0.517-1.004-1.153-1.004l0,0
	c-0.638,0-1.154,0.449-1.154,1.004V57.962z"/>
<radialGradient id="SVGID_2_" cx="58.7891" cy="580.1152" r="3.9164" gradientTransform="matrix(1 0 0 0.8696 16.585 -450.1199)" gradientUnits="userSpaceOnUse">
	<stop  offset="0" style="stop-color:#FFF58A"/>
	<stop  offset="1" style="stop-color:#C49A2B"/>
</radialGradient>
<path fill="none" stroke="url(#SVGID_2_)" stroke-width="0.1786" stroke-miterlimit="10" d="M74.22,57.962
	c0,0.554,0.517,1.003,1.154,1.003l0,0c0.64,0,1.153-0.449,1.153-1.003v-7.225c0-0.555-0.516-1.004-1.153-1.004l0,0
	c-0.637,0-1.154,0.449-1.154,1.004V57.962z"/>
<radialGradient id="SVGID_3_" cx="72.6445" cy="580.1152" r="3.9164" gradientTransform="matrix(1 0 0 0.8696 16.585 -450.1199)" gradientUnits="userSpaceOnUse">
	<stop  offset="0" style="stop-color:#FFF58A"/>
	<stop  offset="1" style="stop-color:#C49A2B"/>
</radialGradient>
<path fill="none" stroke="url(#SVGID_3_)" stroke-width="0.1786" stroke-miterlimit="10" d="M88.076,57.962
	c0,0.554,0.518,1.003,1.154,1.003l0,0c0.638,0,1.152-0.449,1.152-1.003v-7.225c0-0.555-0.517-1.004-1.152-1.004l0,0
	c-0.639,0-1.154,0.449-1.154,1.004V57.962z"/>
<g>
	<path fill="#C9B250" d="M71.617,65.497h-2.314l-0.355,0.8h-0.139l1.437-3.245h0.433l1.436,3.245h-0.142L71.617,65.497z
		 M69.358,65.366h2.198l-0.965-2.185h-0.264L69.358,65.366z"/>
	<path fill="#C9B250" d="M72.665,63.052h1.406c0.658,0,1.189,0.532,1.189,1.19c0,0.657-0.532,1.189-1.189,1.189h-1.276v0.865h-0.13
		V63.052z M72.795,65.302h1.276c0.584,0,1.061-0.476,1.061-1.06s-0.476-1.061-1.061-1.061h-1.276V65.302z"/>
	<path fill="#C9B250" d="M77.229,65.431l0.864,0.865h-0.182l-0.865-0.865H75.98v0.865h-0.127v-3.245h1.404
		c0.658,0,1.188,0.532,1.188,1.189c0,0.657-0.529,1.189-1.188,1.189L77.229,65.431L77.229,65.431z M75.98,65.302h1.276
		c0.585,0,1.062-0.476,1.062-1.06s-0.477-1.061-1.062-1.061H75.98V65.302z"/>
	<path fill="#C9B250" d="M79.068,63.052h0.129v3.245h-0.129V63.052z"/>
	<path fill="#C9B250" d="M79.914,63.052h0.131v3.115h1.6v0.13h-1.729L79.914,63.052L79.914,63.052z"/>
</g>
<g>
	
		<radialGradient id="SVGID_4_" cx="59.0713" cy="497.6514" r="11.3781" gradientTransform="matrix(1 0 0 1 16.585 -429.5859)" gradientUnits="userSpaceOnUse">
		<stop  offset="0" style="stop-color:#FFF58A"/>
		<stop  offset="1" style="stop-color:#C49A2B"/>
	</radialGradient>
	
		<line fill="none" stroke="url(#SVGID_4_)" stroke-width="0.1731" stroke-miterlimit="10" x1="59.566" y1="68.065" x2="91.747" y2="68.065"/>
</g>
<g>
	<path fill="#C9B250" d="M52.475,72.009h0.433v3.246h-0.13v-3.116h-0.303V72.009z"/>
	<path fill="#C9B250" d="M59.867,75.255v-0.131l1.372-1.847c0.238-0.307,0.173-0.767-0.151-0.996
		c-0.312-0.233-0.762-0.169-0.996,0.152c-0.091,0.12-0.138,0.259-0.143,0.396h-0.125c0.004-0.164,0.061-0.333,0.168-0.475
		c0.272-0.375,0.801-0.458,1.177-0.172c0.372,0.277,0.45,0.804,0.173,1.171l-1.315,1.77h1.48v0.131L59.867,75.255L59.867,75.255z"/>
	<path fill="#C9B250" d="M67.345,72.853c0-0.467,0.375-0.843,0.843-0.843s0.844,0.376,0.844,0.843c0,0.355-0.216,0.653-0.519,0.779
		c0.302,0.13,0.519,0.428,0.519,0.779c0,0.467-0.376,0.844-0.844,0.844s-0.843-0.377-0.843-0.844h0.129
		c0,0.393,0.32,0.713,0.713,0.713c0.395,0,0.714-0.32,0.714-0.713c0-0.395-0.32-0.714-0.714-0.714v-0.13
		c0.411,0,0.714-0.329,0.714-0.714c0-0.393-0.32-0.713-0.714-0.713c-0.393,0-0.713,0.321-0.713,0.713H67.345z"/>
	<path fill="#C9B250" d="M74.866,74.107l0.921-2.098h0.143l-0.926,2.098h1.463v-1.016h0.129v2.164h-0.129v-1.018h-1.601V74.107z"/>
	<path fill="#C9B250" d="M82.43,72.009h1.887v0.13h-1.758v1.189c0.426-0.338,1.043-0.312,1.441,0.078c0.42,0.425,0.42,1.107,0,1.532
		c-0.425,0.419-1.107,0.419-1.532,0l0.091-0.091c0.373,0.368,0.979,0.368,1.353,0c0.366-0.372,0.366-0.978,0-1.35
		c-0.372-0.368-0.979-0.368-1.353,0H82.43V72.009z"/>
	<path fill="#C9B250" d="M91.209,72.009h0.15l-0.688,1.188c0.338-0.212,0.779-0.238,1.147-0.021
		c0.531,0.307,0.723,0.987,0.414,1.518c-0.308,0.533-0.989,0.72-1.522,0.413c-0.536-0.308-0.714-0.992-0.411-1.523L91.209,72.009z
		 M90.771,74.995c0.476,0.273,1.076,0.108,1.351-0.363c0.272-0.472,0.108-1.069-0.368-1.341c-0.459-0.269-1.056-0.13-1.341,0.358
		C90.145,74.12,90.3,74.722,90.771,74.995z"/>
	<path fill="#C9B250" d="M97.139,72.009h1.688v0.13l-1.371,3.116h-0.14l1.371-3.116h-1.549V72.009z"/>
</g>
<g>
	<path fill="#C9B250" d="M53.588,79.217c0.316,0,0.575,0.256,0.575,0.572c0,0.203-0.108,0.385-0.272,0.488
		c0.467,0.129,0.813,0.562,0.813,1.066c0,0.615-0.502,1.116-1.116,1.116c-0.614,0-1.112-0.501-1.112-1.116
		c0-0.507,0.342-0.938,0.809-1.066c-0.16-0.104-0.268-0.285-0.268-0.488C53.017,79.473,53.272,79.217,53.588,79.217z M53.588,82.332
		c0.545,0,0.987-0.439,0.987-0.986c0-0.545-0.442-0.98-0.987-0.98s-0.982,0.438-0.982,0.98
		C52.605,81.893,53.043,82.332,53.588,82.332z M53.588,80.234c0.247,0,0.446-0.199,0.446-0.445c0-0.248-0.199-0.441-0.446-0.441
		s-0.441,0.193-0.441,0.441C53.146,80.035,53.341,80.234,53.588,80.234z"/>
	<path fill="#C9B250" d="M60.633,82.467h-0.151l0.688-1.189c-0.337,0.213-0.779,0.238-1.147,0.021
		c-0.531-0.307-0.722-0.986-0.415-1.52c0.307-0.53,0.991-0.719,1.523-0.41c0.537,0.309,0.714,0.99,0.411,1.523L60.633,82.467z
		 M61.071,79.48c-0.477-0.271-1.078-0.107-1.35,0.363c-0.272,0.473-0.108,1.067,0.368,1.342c0.458,0.269,1.056,0.131,1.341-0.359
		C61.698,80.355,61.542,79.754,61.071,79.48z"/>
	<path fill="#C9B250" d="M67.526,79.217h0.434v3.245h-0.131v-3.114h-0.303V79.217z"/>
	<path fill="#C9B250" d="M70.357,80.061v1.56c0,0.468-0.376,0.844-0.844,0.844c-0.468,0-0.844-0.376-0.844-0.844v-1.56
		c0-0.467,0.376-0.844,0.844-0.844C69.981,79.217,70.357,79.594,70.357,80.061z M68.8,81.618c0,0.396,0.32,0.714,0.713,0.714
		c0.394,0,0.714-0.318,0.714-0.714v-1.558c0-0.395-0.32-0.715-0.714-0.715S68.8,79.667,68.8,80.061V81.618z"/>
	<path fill="#C9B250" d="M76.189,79.217h0.434v3.245h-0.13v-3.114h-0.304V79.217z"/>
	<path fill="#C9B250" d="M77.212,79.217h0.433v3.245h-0.129v-3.114h-0.304V79.217z"/>
	<path fill="#C9B250" d="M83.479,79.217h0.435v3.245h-0.131v-3.114h-0.304V79.217z"/>
	<path fill="#C9B250" d="M84.544,82.462v-0.13l1.372-1.848c0.238-0.31,0.173-0.768-0.152-0.996
		c-0.312-0.232-0.762-0.168-0.994,0.152c-0.092,0.121-0.14,0.26-0.144,0.397h-0.125c0.004-0.165,0.062-0.334,0.168-0.479
		c0.272-0.375,0.802-0.457,1.177-0.172c0.372,0.277,0.45,0.805,0.174,1.172l-1.313,1.771h1.479v0.13L84.544,82.462L84.544,82.462z"
		/>
	<path fill="#C9B250" d="M90.939,79.217h0.434v3.245h-0.129v-3.114h-0.305V79.217z"/>
	<path fill="#C9B250" d="M92.016,80.061c0-0.467,0.377-0.844,0.846-0.844c0.468,0,0.844,0.377,0.844,0.844
		c0,0.355-0.217,0.654-0.52,0.778c0.303,0.132,0.52,0.431,0.52,0.779c0,0.468-0.376,0.844-0.844,0.844
		c-0.469,0-0.846-0.376-0.846-0.844h0.131c0,0.396,0.32,0.714,0.715,0.714s0.715-0.318,0.715-0.714s-0.32-0.714-0.715-0.714v-0.129
		c0.41,0,0.715-0.33,0.715-0.715c0-0.395-0.32-0.715-0.715-0.715s-0.715,0.32-0.715,0.715H92.016L92.016,80.061z"/>
	<path fill="#C9B250" d="M98.457,79.217h0.434v3.245h-0.132v-3.114h-0.302V79.217z"/>
	<path fill="#C9B250" d="M99.457,81.316l0.921-2.102h0.144l-0.926,2.102h1.463v-1.02h0.129v2.163h-0.129v-1.019h-1.602V81.316z"/>
</g>
<radialGradient id="SVGID_5_" cx="-7.8677" cy="483.4512" r="14.7386" gradientTransform="matrix(1.2304 0 0 1 85.5133 -429.5859)" gradientUnits="userSpaceOnUse">
	<stop  offset="0" style="stop-color:#FFF58A"/>
	<stop  offset="1" style="stop-color:#C49A2B"/>
</radialGradient>
<line fill="none" stroke="url(#SVGID_5_)" stroke-width="0.2125" stroke-miterlimit="10" x1="50.187" y1="53.866" x2="101.479" y2="53.866"/>
<g>
	<path fill="#C9B250" d="M52.476,87.868h0.433v3.245h-0.13v-3.115h-0.303V87.868z"/>
	<path fill="#C9B250" d="M53.579,87.868h1.886v0.13h-1.757v1.189c0.424-0.338,1.043-0.313,1.441,0.076
		c0.42,0.426,0.42,1.107,0,1.531c-0.424,0.419-1.107,0.419-1.532,0l0.091-0.091c0.372,0.366,0.978,0.366,1.351,0
		c0.368-0.372,0.368-0.979,0-1.351c-0.373-0.369-0.979-0.369-1.351,0h-0.129V87.868z"/>
	<path fill="#C9B250" d="M60.219,87.868h0.433v3.245h-0.13v-3.115H60.22L60.219,87.868L60.219,87.868z"/>
	<path fill="#C9B250" d="M62.312,87.868h0.151l-0.688,1.188c0.337-0.213,0.779-0.238,1.146-0.021
		c0.533,0.307,0.723,0.984,0.416,1.52c-0.307,0.531-0.991,0.719-1.523,0.41c-0.537-0.307-0.713-0.99-0.411-1.521L62.312,87.868z
		 M61.875,90.854c0.476,0.272,1.077,0.107,1.35-0.361c0.273-0.473,0.108-1.069-0.368-1.344c-0.459-0.269-1.056-0.129-1.341,0.358
		C61.248,89.979,61.403,90.58,61.875,90.854z"/>
	<path fill="#C9B250" d="M68.241,87.868h0.433v3.245h-0.13v-3.115h-0.302L68.241,87.868L68.241,87.868z"/>
	<path fill="#C9B250" d="M69.218,87.868h1.687v0.13l-1.371,3.115h-0.138l1.371-3.115h-1.549V87.868z"/>
	<path fill="#C9B250" d="M76.738,87.868h0.434v3.245h-0.13v-3.115h-0.304V87.868z"/>
	<path fill="#C9B250" d="M78.9,87.868c0.315,0,0.576,0.254,0.576,0.569c0,0.205-0.108,0.385-0.272,0.488
		c0.468,0.131,0.813,0.563,0.813,1.069c0,0.612-0.502,1.114-1.117,1.114c-0.613,0-1.11-0.502-1.11-1.114
		c0-0.507,0.341-0.938,0.808-1.069c-0.158-0.104-0.267-0.283-0.267-0.488C78.331,88.122,78.585,87.868,78.9,87.868z M78.9,90.982
		c0.545,0,0.986-0.441,0.986-0.985c0-0.546-0.441-0.983-0.986-0.983s-0.981,0.438-0.981,0.983
		C77.919,90.541,78.355,90.982,78.9,90.982z M78.9,88.885c0.248,0,0.445-0.199,0.445-0.445S79.148,88,78.9,88
		c-0.246,0-0.44,0.193-0.44,0.439S78.654,88.885,78.9,88.885z"/>
	<path fill="#C9B250" d="M84.77,87.868h0.435v3.245h-0.132v-3.115H84.77V87.868z"/>
	<path fill="#C9B250" d="M86.932,91.117h-0.152l0.688-1.189c-0.338,0.213-0.778,0.238-1.146,0.021
		c-0.532-0.309-0.723-0.986-0.416-1.52c0.308-0.533,0.992-0.72,1.523-0.412c0.535,0.309,0.713,0.991,0.409,1.522L86.932,91.117z
		 M87.368,88.132c-0.478-0.272-1.077-0.108-1.351,0.363c-0.272,0.471-0.107,1.069,0.366,1.342c0.459,0.269,1.058,0.129,1.343-0.358
		C87.995,89.005,87.84,88.402,87.368,88.132z"/>
	<path fill="#C9B250" d="M91.706,91.113v-0.131l1.371-1.848c0.237-0.308,0.174-0.768-0.149-0.996
		c-0.313-0.232-0.764-0.17-0.996,0.15c-0.092,0.121-0.14,0.261-0.144,0.396h-0.125c0.004-0.164,0.062-0.334,0.169-0.476
		c0.271-0.377,0.8-0.459,1.177-0.173c0.372,0.275,0.449,0.804,0.173,1.172l-1.313,1.77h1.479v0.131h-1.642V91.113z"/>
	<path fill="#C9B250" d="M95.584,88.711v1.559c0,0.467-0.377,0.846-0.844,0.846c-0.469,0-0.844-0.379-0.844-0.846v-1.559
		c0-0.468,0.375-0.843,0.844-0.843C95.207,87.868,95.584,88.243,95.584,88.711z M94.025,90.27c0,0.395,0.32,0.713,0.715,0.713
		c0.393,0,0.714-0.318,0.714-0.713v-1.559c0-0.395-0.321-0.713-0.714-0.713c-0.395,0-0.715,0.318-0.715,0.713V90.27z"/>
	<path fill="#C9B250" d="M99.299,91.113v-0.131l1.371-1.848c0.238-0.308,0.174-0.768-0.15-0.996c-0.312-0.232-0.763-0.17-0.996,0.15
		c-0.09,0.121-0.137,0.261-0.143,0.396h-0.125c0.004-0.164,0.061-0.334,0.169-0.476c0.271-0.377,0.8-0.459,1.177-0.173
		c0.371,0.275,0.449,0.804,0.174,1.172l-1.314,1.77h1.479v0.131h-1.641V91.113z"/>
	<path fill="#C9B250" d="M101.374,87.868h0.433v3.245h-0.131v-3.115h-0.302V87.868z"/>
</g>
<g>
	<path fill="#C9B250" d="M52.519,99.764v-0.131l1.372-1.847c0.238-0.31,0.173-0.767-0.152-0.996
		c-0.311-0.233-0.762-0.168-0.995,0.151c-0.091,0.121-0.139,0.26-0.143,0.397h-0.125c0.004-0.165,0.06-0.334,0.168-0.479
		c0.272-0.375,0.801-0.457,1.177-0.172c0.372,0.277,0.45,0.807,0.173,1.172l-1.315,1.771h1.479v0.131h-1.639V99.764z"/>
	<path fill="#C9B250" d="M54.752,99.764v-0.131l1.372-1.847c0.238-0.31,0.173-0.767-0.151-0.996
		c-0.312-0.233-0.762-0.168-0.996,0.151c-0.091,0.121-0.138,0.26-0.142,0.397H54.71c0.004-0.165,0.061-0.334,0.168-0.479
		c0.272-0.375,0.801-0.457,1.177-0.172c0.372,0.277,0.45,0.807,0.173,1.172l-1.315,1.771h1.48v0.131h-1.641V99.764z"/>
	<path fill="#C9B250" d="M60.112,99.764v-0.131l1.372-1.847c0.238-0.31,0.173-0.767-0.151-0.996
		c-0.312-0.233-0.762-0.168-0.996,0.151c-0.09,0.121-0.138,0.26-0.142,0.397H60.07c0.004-0.165,0.06-0.334,0.168-0.479
		c0.272-0.375,0.8-0.457,1.177-0.172c0.372,0.277,0.45,0.807,0.173,1.172l-1.315,1.771h1.479v0.131h-1.64V99.764z"/>
	<path fill="#C9B250" d="M62.301,97.361c0-0.467,0.376-0.844,0.844-0.844s0.844,0.377,0.844,0.844c0,0.354-0.217,0.654-0.519,0.777
		c0.302,0.131,0.519,0.43,0.519,0.779c0,0.467-0.376,0.844-0.844,0.844s-0.844-0.377-0.844-0.844h0.129
		c0,0.395,0.321,0.713,0.714,0.713s0.714-0.318,0.714-0.713c0-0.396-0.321-0.714-0.714-0.714v-0.13c0.411,0,0.714-0.33,0.714-0.717
		c0-0.393-0.321-0.713-0.714-0.713s-0.714,0.32-0.714,0.713h-0.129V97.361z"/>
	<path fill="#C9B250" d="M67.705,99.764v-0.131l1.371-1.847c0.239-0.31,0.173-0.767-0.151-0.996
		c-0.312-0.233-0.762-0.168-0.995,0.151c-0.091,0.121-0.139,0.26-0.143,0.397h-0.125c0.005-0.165,0.061-0.334,0.169-0.479
		c0.272-0.375,0.8-0.457,1.177-0.172c0.372,0.277,0.45,0.807,0.173,1.172l-1.315,1.771h1.479v0.131h-1.64V99.764z"/>
	<path fill="#C9B250" d="M69.708,98.617l0.922-2.1h0.143l-0.926,2.1h1.463V97.6h0.129v2.164H71.31v-1.017h-1.601L69.708,98.617
		L69.708,98.617z"/>
	<path fill="#C9B250" d="M75.154,99.764v-0.131l1.374-1.847c0.236-0.31,0.174-0.767-0.151-0.996
		c-0.313-0.233-0.763-0.168-0.995,0.151c-0.091,0.121-0.139,0.26-0.143,0.397h-0.125c0.004-0.165,0.061-0.334,0.168-0.479
		c0.274-0.375,0.802-0.457,1.177-0.172c0.372,0.277,0.45,0.807,0.173,1.172l-1.314,1.771h1.48v0.131h-1.642L75.154,99.764
		L75.154,99.764z"/>
	<path fill="#C9B250" d="M77.344,96.518h1.887v0.131h-1.756v1.189c0.424-0.338,1.043-0.313,1.439,0.077
		c0.42,0.425,0.42,1.108,0,1.532c-0.424,0.42-1.107,0.42-1.531,0l0.092-0.092c0.371,0.369,0.979,0.369,1.352,0
		c0.365-0.371,0.365-0.979,0-1.352c-0.373-0.367-0.979-0.367-1.352,0h-0.131V96.518L77.344,96.518z"/>
	<path fill="#C9B250" d="M82.945,99.764v-0.131l1.371-1.847c0.238-0.31,0.174-0.767-0.15-0.996
		c-0.313-0.233-0.764-0.168-0.996,0.151c-0.092,0.121-0.138,0.26-0.143,0.397h-0.125c0.004-0.165,0.061-0.334,0.168-0.479
		c0.271-0.375,0.801-0.457,1.178-0.172c0.371,0.277,0.449,0.807,0.173,1.172l-1.315,1.771h1.48v0.131h-1.641V99.764z"/>
	<path fill="#C9B250" d="M86.061,96.518h0.15l-0.688,1.19c0.336-0.212,0.776-0.237,1.146-0.022c0.533,0.31,0.724,0.987,0.416,1.521
		c-0.308,0.531-0.991,0.718-1.522,0.411c-0.537-0.31-0.713-0.991-0.412-1.522L86.061,96.518z M85.622,99.504
		c0.476,0.271,1.077,0.107,1.351-0.363c0.272-0.473,0.107-1.068-0.367-1.342c-0.459-0.27-1.057-0.13-1.342,0.359
		C84.995,98.63,85.15,99.23,85.622,99.504z"/>
	<path fill="#C9B250" d="M90.951,99.764v-0.131l1.371-1.847c0.238-0.31,0.173-0.767-0.151-0.996
		c-0.312-0.233-0.762-0.168-0.994,0.151c-0.092,0.121-0.14,0.26-0.144,0.397h-0.126c0.005-0.165,0.061-0.334,0.169-0.479
		c0.271-0.375,0.801-0.457,1.177-0.172c0.372,0.277,0.45,0.807,0.175,1.172l-1.316,1.771h1.479v0.131h-1.64V99.764z"/>
	<path fill="#C9B250" d="M93.063,96.518h1.688v0.131l-1.372,3.115h-0.14l1.373-3.115h-1.549V96.518z"/>
	<path fill="#C9B250" d="M98.465,99.764v-0.131l1.371-1.847c0.238-0.31,0.173-0.767-0.15-0.996
		c-0.313-0.233-0.763-0.168-0.996,0.151c-0.09,0.121-0.139,0.26-0.144,0.397h-0.125c0.004-0.165,0.062-0.334,0.169-0.479
		c0.271-0.375,0.801-0.457,1.178-0.172c0.371,0.277,0.448,0.807,0.172,1.172l-1.313,1.771h1.479v0.131h-1.641V99.764z"/>
	<path fill="#C9B250" d="M101.632,96.518c0.315,0,0.575,0.256,0.575,0.572c0,0.203-0.107,0.385-0.271,0.488
		c0.467,0.13,0.813,0.563,0.813,1.068c0,0.612-0.502,1.115-1.116,1.115c-0.613,0-1.109-0.503-1.109-1.115
		c0-0.508,0.34-0.938,0.809-1.068c-0.16-0.104-0.27-0.285-0.27-0.488C101.061,96.771,101.316,96.518,101.632,96.518z
		 M101.632,99.633c0.546,0,0.986-0.439,0.986-0.986c0-0.545-0.44-0.979-0.986-0.979c-0.545,0-0.983,0.438-0.983,0.979
		C100.648,99.191,101.087,99.633,101.632,99.633z M101.632,97.535c0.247,0,0.445-0.199,0.445-0.445s-0.198-0.441-0.445-0.441
		c-0.245,0-0.442,0.195-0.442,0.441S101.387,97.535,101.632,97.535z"/>
</g>
<g>
	<path fill="#C9B250" d="M52.519,108.413v-0.13l1.372-1.848c0.238-0.31,0.173-0.768-0.152-0.996c-0.311-0.233-0.762-0.17-0.995,0.15
		c-0.091,0.121-0.139,0.262-0.143,0.398h-0.125c0.004-0.166,0.06-0.334,0.168-0.479c0.272-0.376,0.801-0.459,1.177-0.173
		c0.372,0.276,0.45,0.806,0.173,1.173l-1.315,1.771h1.479v0.13L52.519,108.413L52.519,108.413z"/>
	<path fill="#C9B250" d="M55.88,108.417h-0.151l0.688-1.188c-0.337,0.211-0.779,0.237-1.146,0.021
		c-0.532-0.309-0.723-0.984-0.416-1.52c0.307-0.533,0.991-0.719,1.523-0.412c0.536,0.309,0.714,0.992,0.411,1.522L55.88,108.417z
		 M56.317,105.432c-0.476-0.271-1.077-0.105-1.35,0.363c-0.272,0.473-0.108,1.068,0.368,1.342c0.459,0.27,1.056,0.131,1.342-0.359
		C56.944,106.307,56.789,105.704,56.317,105.432z"/>
	<path fill="#C9B250" d="M60.612,106.012c0-0.468,0.376-0.844,0.844-0.844c0.467,0,0.844,0.376,0.844,0.844
		c0,0.354-0.217,0.653-0.519,0.778c0.302,0.13,0.519,0.429,0.519,0.778c0,0.468-0.376,0.845-0.844,0.845
		c-0.468,0-0.844-0.377-0.844-0.845h0.13c0,0.394,0.32,0.715,0.713,0.715c0.394,0,0.714-0.321,0.714-0.715
		c0-0.396-0.32-0.715-0.714-0.715v-0.129c0.411,0,0.714-0.328,0.714-0.715c0-0.394-0.32-0.714-0.714-0.714s-0.713,0.32-0.713,0.714
		L60.612,106.012L60.612,106.012z"/>
	<path fill="#C9B250" d="M64.653,106.012v1.559c0,0.468-0.376,0.845-0.844,0.845c-0.467,0-0.843-0.377-0.843-0.845v-1.559
		c0-0.468,0.376-0.844,0.843-0.844C64.277,105.168,64.653,105.544,64.653,106.012z M63.095,107.568c0,0.394,0.321,0.715,0.714,0.715
		c0.394,0,0.714-0.321,0.714-0.715v-1.559c0-0.394-0.321-0.714-0.714-0.714s-0.714,0.32-0.714,0.714V107.568z"/>
</g>
<radialGradient id="SVGID_6_" cx="48.7109" cy="519.1152" r="9.6348" gradientTransform="matrix(1.0654 0 0 1 36.7031 -429.5859)" gradientUnits="userSpaceOnUse">
	<stop  offset="0" style="stop-color:#FFF58A"/>
	<stop  offset="1" style="stop-color:#C49A2B"/>
</radialGradient>
<polyline fill="none" stroke="url(#SVGID_6_)" stroke-width="0.2193" stroke-miterlimit="10" points="102.779,92.338 74.536,92.338 
	74.536,86.721 102.779,86.721 "/>
<radialGradient id="SVGID_7_" cx="-966.126" cy="527.7646" r="9.619" gradientTransform="matrix(-0.5072 0 0 1 -431.5198 -429.5859)" gradientUnits="userSpaceOnUse">
	<stop  offset="0" style="stop-color:#FFF58A"/>
	<stop  offset="1" style="stop-color:#C49A2B"/>
</radialGradient>
<polyline fill="none" stroke="url(#SVGID_7_)" stroke-width="0.1513" stroke-miterlimit="10" points="51.757,100.988 
	65.204,100.988 65.204,95.369 51.757,95.369 "/>
<radialGradient id="SVGID_8_" cx="60.0435" cy="543.1641" r="9.9815" gradientTransform="matrix(1.021 0 0 0.9583 27.3537 -430.9843)" gradientUnits="userSpaceOnUse">
	<stop  offset="0" style="stop-color:#FFF58A"/>
	<stop  offset="1" style="stop-color:#C49A2B"/>
</radialGradient>
<polyline opacity="0.1" fill="url(#SVGID_8_)" enable-background="new    " points="102.779,92.338 74.536,92.338 74.536,86.721 
	102.779,86.721 "/>
<radialGradient id="SVGID_9_" cx="-1064.8257" cy="-307.126" r="5.1847" gradientTransform="matrix(-0.9929 0 0 -1.9574 -998.7853 -502.9838)" gradientUnits="userSpaceOnUse">
	<stop  offset="0" style="stop-color:#FFF58A"/>
	<stop  offset="1" style="stop-color:#C49A2B"/>
</radialGradient>
<polyline opacity="0.1" fill="url(#SVGID_9_)" enable-background="new    " points="51.757,100.988 65.204,100.988 65.204,95.369 
	51.757,95.369 "/>
<g>
	<path fill="#C9B250" d="M59.751,34.265c-1.093,1.101-2.873,1.101-3.964,0c-1.099-1.091-1.099-2.871,0-3.962
		c1.091-1.099,2.871-1.099,3.964,0l-0.157,0.157c-1.001-1.003-2.647-1.003-3.649,0c-1.001,1.002-1.001,2.647,0,3.647
		c1.002,1.002,2.648,1.002,3.649,0L59.751,34.265z"/>
	<path fill="#C9B250" d="M65.356,33.704h-4.001l-0.614,1.385h-0.237l2.482-5.608h0.748l2.482,5.608H65.97L65.356,33.704z
		 M61.452,33.48h3.799l-1.668-3.776h-0.457L61.452,33.48z"/>
	<path fill="#C9B250" d="M67.117,29.479h0.224v5.384h2.768v0.225h-2.992V29.479z"/>
	<path fill="#C9B250" d="M71,29.479h2.992v0.224h-2.768v2.468h2.541v0.226h-2.541v2.466h2.768v0.225H71V29.479z"/>
	<path fill="#C9B250" d="M79.977,35.087H79.76l-4.242-5.385h-0.411v5.385h-0.225v-5.609h0.748l4.122,5.243v-5.243h0.225V35.087
		L79.977,35.087z"/>
	<path fill="#C9B250" d="M81.189,29.479h1.684c1.549,0,2.805,1.256,2.805,2.804c0,1.548-1.256,2.805-2.805,2.805h-1.684V29.479z
		 M81.414,34.862h1.459c1.422,0,2.579-1.159,2.579-2.58c0-1.421-1.157-2.58-2.579-2.58h-1.459V34.862z"/>
	<path fill="#C9B250" d="M91.037,33.704h-4.001l-0.613,1.385h-0.237l2.482-5.608h0.746l2.484,5.608h-0.246L91.037,33.704z
		 M87.134,33.48h3.8l-1.666-3.776h-0.457L87.134,33.48z"/>
	<path fill="#C9B250" d="M95.178,33.59l1.493,1.497h-0.313l-1.494-1.497H93.02v1.497h-0.224v-5.609h2.433
		c1.139,0,2.058,0.92,2.058,2.058c0,1.136-0.919,2.056-2.058,2.056h-0.052C95.177,33.592,95.177,33.59,95.178,33.59z M93.021,33.367
		h2.205c1.012,0,1.834-0.823,1.834-1.832c0-1.01-0.822-1.833-1.834-1.833h-2.205V33.367z"/>
</g>
<g>
	
		<radialGradient id="SVGID_10_" cx="8.7383" cy="528.7881" r="12.7388" gradientTransform="matrix(1.1865 0 0 0.9033 66.3391 -441.4797)" gradientUnits="userSpaceOnUse">
		<stop  offset="0" style="stop-color:#FFF58A"/>
		<stop  offset="1" style="stop-color:#C49A2B"/>
	</radialGradient>
	
		<line fill="none" stroke="url(#SVGID_10_)" stroke-width="0.2006" stroke-miterlimit="10" x1="55.333" y1="36.171" x2="98.083" y2="36.171"/>
</g>
<rect x="23.265" y="22.713" transform="matrix(0.7071 -0.7071 0.7071 0.7071 -30.8498 75.257)" fill="none" stroke="#C9B250" stroke-width="0.5" stroke-miterlimit="10" width="104.309" height="104.311"/>
</svg>
