<?xml version="1.0" encoding="utf-8"?>
<!-- Generator: Adobe Illustrator 16.0.0, SVG Export Plug-In . SVG Version: 6.00 Build 0)  -->
<!DOCTYPE svg PUBLIC "-//W3C//DTD SVG 1.1//EN" "http://www.w3.org/Graphics/SVG/1.1/DTD/svg11.dtd">
<svg version="1.1" id="Layer_3" xmlns="http://www.w3.org/2000/svg" xmlns:xlink="http://www.w3.org/1999/xlink" x="0px" y="0px"
	 width="150px" height="150px" viewBox="0 0 150 150" enable-background="new 0 0 150 150" xml:space="preserve">
<radialGradient id="SVGID_1_" cx="61.5176" cy="67.6675" r="3.9165" gradientTransform="matrix(1 0 0 0.8696 0 -4.4946)" gradientUnits="userSpaceOnUse">
	<stop  offset="0" style="stop-color:#FFF58A"/>
	<stop  offset="1" style="stop-color:#C49A2B"/>
</radialGradient>
<path fill="none" stroke="url(#SVGID_1_)" stroke-width="0.1786" stroke-miterlimit="10" d="M60.364,57.962
	c0,0.554,0.517,1.003,1.154,1.003l0,0c0.637,0,1.153-0.449,1.153-1.003v-7.225c0-0.555-0.517-1.004-1.153-1.004l0,0
	c-0.638,0-1.154,0.449-1.154,1.004V57.962z"/>
<radialGradient id="SVGID_2_" cx="75.3735" cy="67.6675" r="3.9164" gradientTransform="matrix(1 0 0 0.8696 0 -4.4946)" gradientUnits="userSpaceOnUse">
	<stop  offset="0" style="stop-color:#FFF58A"/>
	<stop  offset="1" style="stop-color:#C49A2B"/>
</radialGradient>
<path fill="none" stroke="url(#SVGID_2_)" stroke-width="0.1786" stroke-miterlimit="10" d="M74.22,57.962
	c0,0.554,0.517,1.003,1.154,1.003l0,0c0.639,0,1.153-0.449,1.153-1.003v-7.225c0-0.555-0.515-1.004-1.153-1.004l0,0
	c-0.637,0-1.154,0.449-1.154,1.004V57.962z"/>
<radialGradient id="SVGID_3_" cx="89.2305" cy="67.6675" r="3.9165" gradientTransform="matrix(1 0 0 0.8696 0 -4.4946)" gradientUnits="userSpaceOnUse">
	<stop  offset="0" style="stop-color:#FFF58A"/>
	<stop  offset="1" style="stop-color:#C49A2B"/>
</radialGradient>
<path fill="none" stroke="url(#SVGID_3_)" stroke-width="0.1786" stroke-miterlimit="10" d="M88.076,57.962
	c0,0.554,0.518,1.003,1.154,1.003l0,0c0.638,0,1.154-0.449,1.154-1.003v-7.225c0-0.555-0.517-1.004-1.154-1.004l0,0
	c-0.637,0-1.154,0.449-1.154,1.004V57.962z"/>
<g>
	<path fill="#C9B250" d="M71.617,65.497h-2.314l-0.355,0.8h-0.139l1.437-3.245h0.433l1.436,3.245h-0.142L71.617,65.497z
		 M69.358,65.366h2.198l-0.965-2.185h-0.264L69.358,65.366z"/>
	<path fill="#C9B250" d="M72.665,63.052h1.406c0.658,0,1.189,0.532,1.189,1.19c0,0.657-0.532,1.189-1.189,1.189h-1.276v0.865h-0.13
		V63.052z M72.795,65.302h1.276c0.584,0,1.061-0.476,1.061-1.06s-0.476-1.061-1.061-1.061h-1.276V65.302z"/>
	<path fill="#C9B250" d="M77.229,65.431l0.864,0.865h-0.182l-0.865-0.865h-1.065v0.865h-0.128v-3.245h1.406
		c0.658,0,1.189,0.532,1.189,1.19c0,0.657-0.531,1.189-1.189,1.189H77.229z M75.981,65.302h1.277c0.585,0,1.06-0.476,1.06-1.06
		s-0.475-1.061-1.06-1.061h-1.277V65.302z"/>
	<path fill="#C9B250" d="M79.068,63.052h0.129v3.245h-0.129V63.052z"/>
	<path fill="#C9B250" d="M79.914,63.052h0.131v3.115h1.6v0.13h-1.73V63.052z"/>
</g>
<g>
	<radialGradient id="SVGID_4_" cx="75.6567" cy="68.0654" r="11.3777" gradientUnits="userSpaceOnUse">
		<stop  offset="0" style="stop-color:#FFF58A"/>
		<stop  offset="1" style="stop-color:#C49A2B"/>
	</radialGradient>
	
		<line fill="none" stroke="url(#SVGID_4_)" stroke-width="0.1731" stroke-miterlimit="10" x1="59.566" y1="68.065" x2="91.747" y2="68.065"/>
</g>
<g>
	<path fill="#C9B250" d="M52.475,72.009h0.433v3.246h-0.13v-3.116h-0.303V72.009z"/>
	<path fill="#C9B250" d="M59.867,75.255v-0.131l1.372-1.847c0.238-0.307,0.173-0.767-0.151-0.996
		c-0.312-0.233-0.762-0.169-0.996,0.152c-0.091,0.12-0.138,0.259-0.143,0.396h-0.125c0.004-0.164,0.061-0.333,0.168-0.475
		c0.272-0.375,0.801-0.458,1.177-0.172c0.372,0.277,0.45,0.804,0.173,1.171l-1.315,1.77h1.48v0.131H59.867z"/>
	<path fill="#C9B250" d="M67.345,72.853c0-0.467,0.375-0.843,0.843-0.843s0.844,0.376,0.844,0.843c0,0.355-0.216,0.653-0.519,0.779
		c0.302,0.13,0.519,0.428,0.519,0.779c0,0.467-0.376,0.844-0.844,0.844s-0.843-0.377-0.843-0.844h0.129
		c0,0.393,0.32,0.713,0.713,0.713c0.395,0,0.714-0.32,0.714-0.713c0-0.395-0.32-0.714-0.714-0.714v-0.13
		c0.411,0,0.714-0.329,0.714-0.714c0-0.393-0.32-0.713-0.714-0.713c-0.393,0-0.713,0.321-0.713,0.713H67.345z"/>
	<path fill="#C9B250" d="M74.866,74.107l0.921-2.098h0.143l-0.926,2.098h1.463v-1.016h0.128v2.164h-0.128v-1.018h-1.601V74.107z"/>
	<path fill="#C9B250" d="M82.429,72.009h1.887v0.13h-1.758v1.189c0.426-0.338,1.044-0.312,1.442,0.078
		c0.42,0.425,0.42,1.107,0,1.532c-0.425,0.419-1.108,0.419-1.532,0l0.09-0.091c0.373,0.368,0.979,0.368,1.352,0
		c0.367-0.372,0.367-0.978,0-1.35c-0.372-0.368-0.979-0.368-1.352,0h-0.129V72.009z"/>
	<path fill="#C9B250" d="M91.209,72.009h0.15l-0.688,1.189c0.338-0.212,0.779-0.238,1.147-0.021
		c0.532,0.307,0.723,0.987,0.415,1.518c-0.307,0.533-0.99,0.72-1.523,0.413c-0.536-0.308-0.714-0.992-0.411-1.523L91.209,72.009z
		 M90.771,74.995c0.476,0.273,1.077,0.108,1.351-0.363c0.272-0.472,0.108-1.069-0.368-1.341c-0.459-0.269-1.056-0.13-1.341,0.358
		C90.144,74.12,90.3,74.722,90.771,74.995z"/>
	<path fill="#C9B250" d="M97.139,72.009h1.687v0.13l-1.371,3.116h-0.139l1.372-3.116h-1.549V72.009z"/>
</g>
<g>
	<path fill="#C9B250" d="M53.588,79.217c0.316,0,0.575,0.256,0.575,0.572c0,0.203-0.108,0.385-0.272,0.488
		c0.467,0.13,0.813,0.562,0.813,1.068c0,0.615-0.502,1.116-1.116,1.116c-0.614,0-1.112-0.501-1.112-1.116
		c0-0.507,0.342-0.938,0.809-1.068c-0.16-0.104-0.268-0.285-0.268-0.488C53.017,79.473,53.272,79.217,53.588,79.217z M53.588,82.332
		c0.545,0,0.987-0.44,0.987-0.986c0-0.545-0.442-0.982-0.987-0.982s-0.982,0.438-0.982,0.982
		C52.605,81.892,53.043,82.332,53.588,82.332z M53.588,80.234c0.247,0,0.446-0.199,0.446-0.445c0-0.248-0.199-0.442-0.446-0.442
		c-0.247,0-0.441,0.194-0.441,0.442C53.146,80.035,53.341,80.234,53.588,80.234z"/>
	<path fill="#C9B250" d="M60.633,82.467h-0.151l0.688-1.189c-0.337,0.211-0.779,0.237-1.147,0.021
		c-0.531-0.307-0.722-0.986-0.415-1.519c0.307-0.531,0.991-0.719,1.523-0.411c0.537,0.308,0.714,0.991,0.411,1.523L60.633,82.467z
		 M61.071,79.481c-0.477-0.272-1.078-0.108-1.35,0.363c-0.272,0.472-0.108,1.068,0.368,1.341c0.458,0.269,1.056,0.131,1.341-0.359
		C61.698,80.355,61.542,79.754,61.071,79.481z"/>
	<path fill="#C9B250" d="M67.526,79.217h0.434v3.245h-0.131v-3.115h-0.303V79.217z"/>
	<path fill="#C9B250" d="M70.357,80.061v1.558c0,0.468-0.376,0.844-0.844,0.844s-0.844-0.376-0.844-0.844v-1.558
		c0-0.467,0.376-0.844,0.844-0.844S70.357,79.594,70.357,80.061z M68.8,81.618c0,0.395,0.32,0.714,0.713,0.714
		c0.394,0,0.714-0.319,0.714-0.714v-1.558c0-0.393-0.32-0.714-0.714-0.714c-0.394,0-0.713,0.321-0.713,0.714V81.618z"/>
	<path fill="#C9B250" d="M76.19,79.217h0.433v3.245h-0.13v-3.115H76.19V79.217z"/>
	<path fill="#C9B250" d="M77.212,79.217h0.433v3.245h-0.13v-3.115h-0.303V79.217z"/>
	<path fill="#C9B250" d="M83.479,79.217h0.433v3.245h-0.131v-3.115h-0.302V79.217z"/>
	<path fill="#C9B250" d="M84.544,82.462v-0.13l1.372-1.847c0.238-0.309,0.173-0.767-0.152-0.996
		c-0.312-0.233-0.762-0.168-0.995,0.152c-0.091,0.121-0.139,0.259-0.143,0.398h-0.125c0.004-0.165,0.061-0.334,0.168-0.478
		c0.273-0.375,0.801-0.458,1.177-0.172c0.372,0.277,0.45,0.805,0.173,1.172l-1.314,1.77h1.479v0.13H84.544z"/>
	<path fill="#C9B250" d="M90.94,79.217h0.433v3.245h-0.129v-3.115H90.94V79.217z"/>
	<path fill="#C9B250" d="M92.016,80.061c0-0.467,0.377-0.844,0.845-0.844c0.467,0,0.843,0.377,0.843,0.844
		c0,0.355-0.216,0.654-0.519,0.778c0.303,0.131,0.519,0.43,0.519,0.779c0,0.468-0.376,0.844-0.843,0.844
		c-0.468,0-0.845-0.376-0.845-0.844h0.131c0,0.395,0.32,0.714,0.714,0.714s0.714-0.319,0.714-0.714s-0.32-0.714-0.714-0.714v-0.129
		c0.41,0,0.714-0.329,0.714-0.715c0-0.393-0.32-0.714-0.714-0.714s-0.714,0.321-0.714,0.714H92.016z"/>
	<path fill="#C9B250" d="M98.457,79.217h0.433v3.245h-0.131v-3.115h-0.302V79.217z"/>
	<path fill="#C9B250" d="M99.457,81.316l0.921-2.1h0.143l-0.926,2.1h1.463v-1.018h0.13v2.163h-0.13v-1.017h-1.601V81.316z"/>
</g>
<radialGradient id="SVGID_5_" cx="111.9717" cy="53.8662" r="14.7389" gradientTransform="matrix(1.2304 0 0 1 -61.9385 0)" gradientUnits="userSpaceOnUse">
	<stop  offset="0" style="stop-color:#FFF58A"/>
	<stop  offset="1" style="stop-color:#C49A2B"/>
</radialGradient>
<line fill="none" stroke="url(#SVGID_5_)" stroke-width="0.2125" stroke-miterlimit="10" x1="50.187" y1="53.866" x2="101.479" y2="53.866"/>
<g>
	<path fill="#C9B250" d="M52.476,87.868h0.433v3.245h-0.13v-3.115h-0.303V87.868z"/>
	<path fill="#C9B250" d="M53.579,87.868h1.886v0.13h-1.757v1.189c0.424-0.338,1.043-0.312,1.441,0.077
		c0.42,0.425,0.42,1.108,0,1.532c-0.424,0.419-1.107,0.419-1.532,0l0.091-0.091c0.372,0.367,0.978,0.367,1.351,0
		c0.368-0.372,0.368-0.978,0-1.35c-0.373-0.368-0.979-0.368-1.351,0h-0.129V87.868z"/>
	<path fill="#C9B250" d="M60.219,87.868h0.433v3.245h-0.13v-3.115h-0.302V87.868z"/>
	<path fill="#C9B250" d="M62.312,87.868h0.151l-0.688,1.189c0.337-0.213,0.779-0.238,1.146-0.021
		c0.533,0.307,0.723,0.986,0.416,1.518c-0.307,0.533-0.991,0.72-1.523,0.412c-0.537-0.307-0.713-0.991-0.411-1.522L62.312,87.868z
		 M61.875,90.854c0.476,0.272,1.077,0.107,1.35-0.363c0.273-0.472,0.108-1.069-0.368-1.342c-0.459-0.269-1.056-0.13-1.341,0.358
		C61.248,89.979,61.403,90.58,61.875,90.854z"/>
	<path fill="#C9B250" d="M68.241,87.868h0.433v3.245h-0.13v-3.115h-0.302V87.868z"/>
	<path fill="#C9B250" d="M69.218,87.868h1.687v0.13l-1.371,3.115h-0.138l1.371-3.115h-1.549V87.868z"/>
	<path fill="#C9B250" d="M76.739,87.868h0.433v3.245h-0.13v-3.115h-0.303V87.868z"/>
	<path fill="#C9B250" d="M78.901,87.868c0.316,0,0.575,0.254,0.575,0.57c0,0.204-0.108,0.385-0.272,0.489
		c0.468,0.13,0.813,0.563,0.813,1.069c0,0.614-0.502,1.116-1.116,1.116s-1.111-0.502-1.111-1.116c0-0.507,0.341-0.939,0.808-1.069
		c-0.159-0.104-0.267-0.285-0.267-0.489C78.331,88.122,78.585,87.868,78.901,87.868z M78.901,90.982
		c0.545,0,0.986-0.441,0.986-0.985c0-0.546-0.441-0.983-0.986-0.983s-0.982,0.438-0.982,0.983
		C77.919,90.541,78.356,90.982,78.901,90.982z M78.901,88.884c0.247,0,0.445-0.198,0.445-0.445c0-0.246-0.198-0.44-0.445-0.44
		c-0.246,0-0.441,0.194-0.441,0.44C78.46,88.686,78.655,88.884,78.901,88.884z"/>
	<path fill="#C9B250" d="M84.77,87.868h0.433v3.245h-0.13v-3.115H84.77V87.868z"/>
	<path fill="#C9B250" d="M86.932,91.117h-0.152l0.688-1.19c-0.338,0.213-0.779,0.239-1.146,0.022
		c-0.532-0.308-0.723-0.986-0.416-1.52c0.308-0.532,0.992-0.718,1.523-0.411c0.537,0.308,0.714,0.992,0.411,1.523L86.932,91.117z
		 M87.368,88.132c-0.477-0.273-1.077-0.108-1.35,0.363c-0.273,0.471-0.108,1.069,0.367,1.342c0.459,0.269,1.056,0.129,1.342-0.359
		C87.995,89.005,87.84,88.403,87.368,88.132z"/>
	<path fill="#C9B250" d="M91.706,91.113v-0.131l1.371-1.847c0.238-0.307,0.174-0.767-0.15-0.996
		c-0.312-0.233-0.763-0.169-0.995,0.151c-0.092,0.121-0.14,0.261-0.144,0.398h-0.125c0.004-0.164,0.061-0.334,0.169-0.476
		c0.271-0.377,0.8-0.459,1.177-0.173c0.372,0.276,0.449,0.804,0.173,1.172l-1.314,1.77h1.479v0.131H91.706z"/>
	<path fill="#C9B250" d="M95.584,88.711v1.559c0,0.466-0.377,0.844-0.844,0.844c-0.468,0-0.844-0.378-0.844-0.844v-1.559
		c0-0.468,0.376-0.843,0.844-0.843C95.207,87.868,95.584,88.243,95.584,88.711z M94.025,90.27c0,0.393,0.321,0.713,0.715,0.713
		c0.393,0,0.714-0.32,0.714-0.713v-1.559c0-0.394-0.321-0.713-0.714-0.713c-0.394,0-0.715,0.319-0.715,0.713V90.27z"/>
	<path fill="#C9B250" d="M99.299,91.113v-0.131l1.371-1.847c0.238-0.307,0.174-0.767-0.15-0.996
		c-0.312-0.233-0.763-0.169-0.996,0.151c-0.091,0.121-0.138,0.261-0.143,0.398h-0.125c0.004-0.164,0.061-0.334,0.169-0.476
		c0.271-0.377,0.8-0.459,1.177-0.173c0.371,0.276,0.449,0.804,0.173,1.172l-1.315,1.77h1.48v0.131H99.299z"/>
	<path fill="#C9B250" d="M101.374,87.868h0.433v3.245h-0.131v-3.115h-0.302V87.868z"/>
</g>
<g>
	<path fill="#C9B250" d="M52.519,99.763v-0.13l1.372-1.847c0.238-0.309,0.173-0.767-0.152-0.996
		c-0.311-0.233-0.762-0.168-0.995,0.151c-0.091,0.122-0.139,0.26-0.143,0.399h-0.125c0.004-0.165,0.06-0.334,0.168-0.478
		c0.272-0.375,0.801-0.458,1.177-0.172c0.372,0.277,0.45,0.805,0.173,1.172l-1.315,1.77h1.479v0.13H52.519z"/>
	<path fill="#C9B250" d="M54.752,99.763v-0.13l1.372-1.847c0.238-0.309,0.173-0.767-0.151-0.996
		c-0.312-0.233-0.762-0.168-0.996,0.151c-0.091,0.122-0.138,0.26-0.142,0.399h-0.125c0.004-0.165,0.061-0.334,0.168-0.478
		c0.272-0.375,0.801-0.458,1.177-0.172c0.372,0.277,0.45,0.805,0.173,1.172l-1.315,1.77h1.48v0.13H54.752z"/>
	<path fill="#C9B250" d="M60.112,99.763v-0.13l1.372-1.847c0.238-0.309,0.173-0.767-0.151-0.996
		c-0.312-0.233-0.762-0.168-0.996,0.151c-0.09,0.122-0.138,0.26-0.142,0.399h-0.125c0.004-0.165,0.06-0.334,0.168-0.478
		c0.272-0.375,0.8-0.458,1.177-0.172c0.372,0.277,0.45,0.805,0.173,1.172l-1.315,1.77h1.479v0.13H60.112z"/>
	<path fill="#C9B250" d="M62.301,97.361c0-0.467,0.376-0.844,0.844-0.844s0.844,0.377,0.844,0.844c0,0.355-0.217,0.654-0.519,0.778
		c0.302,0.131,0.519,0.43,0.519,0.78c0,0.467-0.376,0.843-0.844,0.843s-0.844-0.376-0.844-0.843h0.129
		c0,0.394,0.321,0.713,0.714,0.713s0.714-0.319,0.714-0.713c0-0.395-0.321-0.714-0.714-0.714v-0.13c0.411,0,0.714-0.33,0.714-0.715
		c0-0.393-0.321-0.714-0.714-0.714s-0.714,0.321-0.714,0.714H62.301z"/>
	<path fill="#C9B250" d="M67.705,99.763v-0.13l1.371-1.847c0.239-0.309,0.173-0.767-0.151-0.996
		c-0.312-0.233-0.762-0.168-0.995,0.151c-0.091,0.122-0.139,0.26-0.143,0.399h-0.125c0.005-0.165,0.061-0.334,0.169-0.478
		c0.272-0.375,0.8-0.458,1.177-0.172c0.372,0.277,0.45,0.805,0.173,1.172l-1.315,1.77h1.479v0.13H67.705z"/>
	<path fill="#C9B250" d="M69.708,98.617l0.922-2.1h0.143l-0.926,2.1h1.463V97.6h0.129v2.163h-0.129v-1.016h-1.601V98.617z"/>
	<path fill="#C9B250" d="M75.154,99.763v-0.13l1.373-1.847c0.237-0.309,0.173-0.767-0.152-0.996
		c-0.312-0.233-0.761-0.168-0.995,0.151c-0.091,0.122-0.139,0.26-0.143,0.399h-0.125c0.004-0.165,0.061-0.334,0.168-0.478
		c0.273-0.375,0.802-0.458,1.177-0.172c0.372,0.277,0.45,0.805,0.173,1.172l-1.314,1.77h1.48v0.13H75.154z"/>
	<path fill="#C9B250" d="M77.344,96.518h1.887v0.13h-1.757v1.19c0.424-0.338,1.043-0.313,1.44,0.077c0.42,0.425,0.42,1.108,0,1.533
		c-0.424,0.419-1.107,0.419-1.531,0l0.091-0.093c0.372,0.369,0.978,0.369,1.351,0c0.367-0.371,0.367-0.977,0-1.35
		c-0.373-0.368-0.979-0.368-1.351,0h-0.13V96.518z"/>
	<path fill="#C9B250" d="M82.945,99.763v-0.13l1.371-1.847c0.238-0.309,0.174-0.767-0.15-0.996
		c-0.313-0.233-0.763-0.168-0.996,0.151c-0.092,0.122-0.138,0.26-0.143,0.399h-0.125c0.004-0.165,0.061-0.334,0.169-0.478
		c0.271-0.375,0.8-0.458,1.177-0.172c0.371,0.277,0.449,0.805,0.173,1.172l-1.315,1.77h1.48v0.13H82.945z"/>
	<path fill="#C9B250" d="M86.06,96.518h0.151l-0.688,1.19c0.337-0.212,0.778-0.238,1.146-0.022c0.533,0.308,0.723,0.987,0.416,1.52
		c-0.308,0.532-0.991,0.718-1.523,0.411c-0.536-0.308-0.713-0.991-0.411-1.523L86.06,96.518z M85.622,99.504
		c0.476,0.271,1.077,0.108,1.35-0.364c0.273-0.472,0.108-1.068-0.367-1.341c-0.459-0.269-1.056-0.13-1.342,0.359
		C84.995,98.63,85.15,99.231,85.622,99.504z"/>
	<path fill="#C9B250" d="M90.951,99.763v-0.13l1.371-1.847c0.239-0.309,0.173-0.767-0.151-0.996
		c-0.311-0.233-0.762-0.168-0.994,0.151c-0.092,0.122-0.14,0.26-0.144,0.399h-0.126c0.005-0.165,0.061-0.334,0.169-0.478
		c0.272-0.375,0.801-0.458,1.177-0.172c0.372,0.277,0.45,0.805,0.174,1.172l-1.315,1.77h1.479v0.13H90.951z"/>
	<path fill="#C9B250" d="M93.062,96.518h1.687v0.13l-1.372,3.115h-0.138l1.372-3.115h-1.549V96.518z"/>
	<path fill="#C9B250" d="M98.465,99.763v-0.13l1.371-1.847c0.238-0.309,0.173-0.767-0.151-0.996
		c-0.313-0.233-0.762-0.168-0.995,0.151c-0.091,0.122-0.139,0.26-0.144,0.399h-0.125c0.004-0.165,0.061-0.334,0.169-0.478
		c0.272-0.375,0.801-0.458,1.177-0.172c0.372,0.277,0.449,0.805,0.173,1.172l-1.314,1.77h1.479v0.13H98.465z"/>
	<path fill="#C9B250" d="M101.632,96.518c0.315,0,0.575,0.255,0.575,0.572c0,0.203-0.108,0.385-0.272,0.488
		c0.468,0.13,0.813,0.562,0.813,1.068c0,0.614-0.502,1.116-1.116,1.116s-1.111-0.502-1.111-1.116c0-0.507,0.341-0.938,0.809-1.068
		c-0.16-0.104-0.269-0.285-0.269-0.488C101.061,96.772,101.316,96.518,101.632,96.518z M101.632,99.633
		c0.545,0,0.986-0.44,0.986-0.986c0-0.545-0.441-0.981-0.986-0.981s-0.983,0.437-0.983,0.981
		C100.648,99.192,101.087,99.633,101.632,99.633z M101.632,97.535c0.247,0,0.445-0.199,0.445-0.445c0-0.247-0.198-0.442-0.445-0.442
		c-0.246,0-0.442,0.195-0.442,0.442C101.189,97.336,101.386,97.535,101.632,97.535z"/>
</g>
<g>
	<path fill="#C9B250" d="M52.519,108.413v-0.13l1.372-1.848c0.238-0.308,0.173-0.766-0.152-0.996
		c-0.311-0.233-0.762-0.169-0.995,0.152c-0.091,0.121-0.139,0.26-0.143,0.398h-0.125c0.004-0.165,0.06-0.334,0.168-0.477
		c0.272-0.376,0.801-0.459,1.177-0.173c0.372,0.277,0.45,0.805,0.173,1.173l-1.315,1.77h1.479v0.13H52.519z"/>
	<path fill="#C9B250" d="M55.88,108.417h-0.151l0.688-1.189c-0.337,0.212-0.779,0.238-1.146,0.021
		c-0.532-0.308-0.723-0.986-0.416-1.519c0.307-0.533,0.991-0.719,1.523-0.412c0.536,0.308,0.714,0.992,0.411,1.523L55.88,108.417z
		 M56.317,105.432c-0.476-0.272-1.077-0.107-1.35,0.363c-0.272,0.472-0.108,1.069,0.368,1.342c0.459,0.269,1.056,0.13,1.342-0.359
		C56.944,106.306,56.789,105.704,56.317,105.432z"/>
	<path fill="#C9B250" d="M60.612,106.012c0-0.468,0.376-0.844,0.844-0.844c0.467,0,0.844,0.376,0.844,0.844
		c0,0.354-0.217,0.653-0.519,0.778c0.302,0.13,0.519,0.429,0.519,0.779c0,0.467-0.376,0.844-0.844,0.844
		c-0.468,0-0.844-0.377-0.844-0.844h0.13c0,0.393,0.32,0.714,0.713,0.714c0.394,0,0.714-0.321,0.714-0.714
		c0-0.395-0.32-0.715-0.714-0.715v-0.129c0.411,0,0.714-0.329,0.714-0.714c0-0.394-0.32-0.714-0.714-0.714
		c-0.394,0-0.713,0.32-0.713,0.714H60.612z"/>
	<path fill="#C9B250" d="M64.653,106.012v1.558c0,0.467-0.376,0.844-0.844,0.844c-0.467,0-0.843-0.377-0.843-0.844v-1.558
		c0-0.468,0.376-0.844,0.843-0.844C64.277,105.168,64.653,105.544,64.653,106.012z M63.095,107.569c0,0.393,0.321,0.714,0.714,0.714
		c0.394,0,0.714-0.321,0.714-0.714v-1.558c0-0.394-0.321-0.714-0.714-0.714c-0.393,0-0.714,0.32-0.714,0.714V107.569z"/>
</g>
<radialGradient id="SVGID_6_" cx="99.1445" cy="89.5293" r="9.6348" gradientTransform="matrix(1.0654 0 0 1 -17.0283 0)" gradientUnits="userSpaceOnUse">
	<stop  offset="0" style="stop-color:#FFF58A"/>
	<stop  offset="1" style="stop-color:#C49A2B"/>
</radialGradient>
<polyline fill="none" stroke="url(#SVGID_6_)" stroke-width="0.2193" stroke-miterlimit="10" points="102.78,92.338 74.536,92.338 
	74.536,86.72 102.78,86.72 "/>
<radialGradient id="SVGID_7_" cx="689.0488" cy="98.1797" r="9.6183" gradientTransform="matrix(-0.5072 0 0 1 407.9849 0)" gradientUnits="userSpaceOnUse">
	<stop  offset="0" style="stop-color:#FFF58A"/>
	<stop  offset="1" style="stop-color:#C49A2B"/>
</radialGradient>
<polyline fill="none" stroke="url(#SVGID_7_)" stroke-width="0.1513" stroke-miterlimit="10" points="51.757,100.989 
	65.204,100.989 65.204,95.369 51.757,95.369 "/>
<radialGradient id="SVGID_8_" cx="87.9707" cy="89.5293" r="9.9803" gradientTransform="matrix(1.021 0 0 0.9583 -1.1592 3.7304)" gradientUnits="userSpaceOnUse">
	<stop  offset="0" style="stop-color:#FFF58A"/>
	<stop  offset="1" style="stop-color:#C49A2B"/>
</radialGradient>
<polyline opacity="0.1" fill="url(#SVGID_8_)" points="102.78,92.338 74.536,92.338 74.536,86.72 102.78,86.72 "/>
<radialGradient id="SVGID_9_" cx="58.5332" cy="98.1797" r="5.184" gradientTransform="matrix(-0.9929 0 0 -1.9574 116.5975 290.3615)" gradientUnits="userSpaceOnUse">
	<stop  offset="0" style="stop-color:#FFF58A"/>
	<stop  offset="1" style="stop-color:#C49A2B"/>
</radialGradient>
<polyline opacity="0.1" fill="url(#SVGID_9_)" points="51.757,100.989 65.204,100.989 65.204,95.369 51.757,95.369 "/>
<g>
	<path fill="#C9B250" d="M62.69,34.434c-0.869,0.875-2.284,0.875-3.152,0c-0.874-0.868-0.874-2.283,0-3.151
		c0.868-0.874,2.283-0.874,3.152,0l-0.125,0.125c-0.796-0.797-2.105-0.797-2.902,0c-0.796,0.797-0.796,2.105,0,2.901
		c0.797,0.797,2.106,0.797,2.902,0L62.69,34.434z"/>
	<path fill="#C9B250" d="M67.148,33.988h-3.182l-0.488,1.101h-0.189l1.974-4.46h0.595l1.974,4.46h-0.196L67.148,33.988z
		 M64.043,33.81h3.021l-1.326-3.003h-0.363L64.043,33.81z"/>
	<path fill="#C9B250" d="M68.548,30.628h0.178v4.281h2.201v0.179h-2.379V30.628z"/>
	<path fill="#C9B250" d="M71.635,30.628h2.379v0.178h-2.201v1.963h2.021v0.179h-2.021v1.961h2.201v0.179h-2.379V30.628z"/>
	<path fill="#C9B250" d="M78.771,35.088H78.6l-3.372-4.282h-0.327v4.282h-0.179v-4.46h0.595l3.277,4.169v-4.169h0.178V35.088z"/>
	<path fill="#C9B250" d="M79.736,30.628h1.338c1.231,0,2.23,0.999,2.23,2.23c0,1.231-0.999,2.23-2.23,2.23h-1.338V30.628z
		 M79.914,34.909h1.16c1.13,0,2.051-0.921,2.051-2.051c0-1.13-0.921-2.052-2.051-2.052h-1.16V34.909z"/>
	<path fill="#C9B250" d="M87.566,33.988h-3.182l-0.488,1.101h-0.189l1.974-4.46h0.595l1.975,4.46h-0.196L87.566,33.988z
		 M84.462,33.81h3.021l-1.325-3.003h-0.363L84.462,33.81z"/>
	<path fill="#C9B250" d="M90.857,33.898l1.189,1.19h-0.25l-1.189-1.19h-1.464v1.19h-0.178v-4.46h1.933
		c0.904,0,1.636,0.732,1.636,1.636c0,0.903-0.731,1.635-1.636,1.635H90.857z M89.144,33.72h1.755c0.803,0,1.456-0.654,1.456-1.457
		s-0.653-1.458-1.456-1.458h-1.755V33.72z"/>
</g>
<g>
	
		<radialGradient id="SVGID_10_" cx="75.708" cy="40.0449" r="12.7378" gradientTransform="matrix(1 0 0 0.9033 0 0)" gradientUnits="userSpaceOnUse">
		<stop  offset="0" style="stop-color:#FFF58A"/>
		<stop  offset="1" style="stop-color:#C49A2B"/>
	</radialGradient>
	
		<line fill="none" stroke="url(#SVGID_10_)" stroke-width="0.1842" stroke-miterlimit="10" x1="57.694" y1="36.171" x2="93.722" y2="36.171"/>
</g>
<radialGradient id="SVGID_11_" cx="-49.9688" cy="157.1133" r="52.3511" gradientTransform="matrix(0.7071 -0.7071 0.7071 0.7071 -0.3438 -71.5625)" gradientUnits="userSpaceOnUse">
	<stop  offset="0" style="stop-color:#FFF58A"/>
	<stop  offset="1" style="stop-color:#C49A2B"/>
</radialGradient>
<rect x="23.263" y="22.711" transform="matrix(0.7071 -0.7071 0.7071 0.7071 -30.8495 75.257)" fill="none" stroke="url(#SVGID_11_)" stroke-width="0.3874" stroke-miterlimit="10" width="104.311" height="104.313"/>
</svg>
