<?xml version="1.0" encoding="utf-8"?>
<!-- Generator: Adobe Illustrator 16.0.0, SVG Export Plug-In . SVG Version: 6.00 Build 0)  -->
<!DOCTYPE svg PUBLIC "-//W3C//DTD SVG 1.1//EN" "http://www.w3.org/Graphics/SVG/1.1/DTD/svg11.dtd">
<svg version="1.1" id="Layer_1" xmlns="http://www.w3.org/2000/svg" xmlns:xlink="http://www.w3.org/1999/xlink" x="0px" y="0px"
	 width="150px" height="150px" viewBox="0 0 150 150" enable-background="new 0 0 150 150" xml:space="preserve">
<radialGradient id="SVGID_1_" cx="74.1416" cy="73.0391" r="30.4611" gradientUnits="userSpaceOnUse">
	<stop  offset="0" style="stop-color:#FFF58A"/>
	<stop  offset="1" style="stop-color:#C49A2B"/>
</radialGradient>
<path fill="none" stroke="url(#SVGID_1_)" stroke-width="0.2681" stroke-miterlimit="10" d="M104.822,99.479
	c0,1.949-1.272,3.529-2.845,3.529H46.303c-1.569,0-2.842-1.58-2.842-3.529V46.599c0-1.949,1.273-3.528,2.842-3.528h55.674
	c1.572,0,2.845,1.579,2.845,3.528V99.479z"/>
<g>
	<path fill="#C9B250" d="M53.626,58.332c-1.43,1.44-3.763,1.44-5.193,0c-1.441-1.43-1.441-3.763,0-5.193
		c1.43-1.441,3.763-1.441,5.193,0l-0.206,0.206c-1.312-1.313-3.468-1.313-4.782,0c-1.313,1.313-1.313,3.469,0,4.782
		c1.314,1.313,3.47,1.313,4.782,0L53.626,58.332z"/>
	<path fill="#C9B250" d="M54.728,52.06h0.293v7.055h3.625v0.294h-3.919V52.06z"/>
	<path fill="#C9B250" d="M59.24,56.714V52.06h0.294v4.654c0,1.324,1.077,2.401,2.401,2.401c1.322,0,2.4-1.077,2.4-2.401V52.06h0.294
		v4.654c0,1.491-1.206,2.695-2.695,2.695C60.445,59.41,59.24,58.205,59.24,56.714z"/>
	<path fill="#C9B250" d="M66.127,52.06h2.989c1.057,0,1.911,0.853,1.911,1.912c0,0.802-0.49,1.479-1.176,1.763
		c0.686,0.294,1.176,0.971,1.176,1.764c0,1.059-0.854,1.911-1.911,1.911h-2.989V52.06z M66.421,55.588h2.695
		c0.931,0,1.616-0.745,1.616-1.616c0-0.892-0.725-1.618-1.616-1.618h-2.695V55.588z M66.421,59.115h2.695
		c0.891,0,1.616-0.724,1.616-1.616c0-0.862-0.686-1.616-1.616-1.616h-2.695V59.115z"/>
</g>
<g>
	<path fill="#C9B250" d="M47.345,64.171h2.205c2.028,0,3.674,1.647,3.674,3.675c0,2.028-1.646,3.674-3.674,3.674h-2.205V64.171z
		 M47.64,71.228h1.911c1.861,0,3.381-1.519,3.381-3.381s-1.52-3.381-3.381-3.381H47.64V71.228z"/>
	<path fill="#C9B250" d="M55.417,64.171h0.294v5.439c0,1.059-0.853,1.911-1.911,1.911v-0.293c0.892,0,1.616-0.726,1.616-1.617
		V64.171z"/>
</g>
<g>
	<path fill="#C9B250" d="M47.345,76.284h0.294v3.528h3.821v-3.528h0.294v7.35h-0.294v-3.527H47.64v3.527h-0.294V76.284z"/>
	<path fill="#C9B250" d="M56.741,76.284c2.027,0,3.674,1.646,3.674,3.676c0,2.027-1.647,3.674-3.674,3.674
		c-2.03,0-3.676-1.646-3.676-3.674C53.065,77.931,54.711,76.284,56.741,76.284z M56.741,83.339c1.861,0,3.38-1.517,3.38-3.379
		c0-1.863-1.52-3.382-3.38-3.382c-1.863,0-3.381,1.519-3.381,3.382C53.36,81.822,54.878,83.339,56.741,83.339z"/>
	<path fill="#C9B250" d="M60.732,76.284h4.899v0.294h-2.303v7.056h-0.294v-7.056h-2.302V76.284z"/>
	<path fill="#C9B250" d="M66.728,76.284h3.92v0.294h-3.625v3.234h3.331v0.294h-3.331v3.232h3.625v0.295h-3.92V76.284z"/>
	<path fill="#C9B250" d="M71.745,76.284h0.293v7.055h3.626v0.295h-3.92V76.284z"/>
</g>
<g>
	<path fill="#C9B250" d="M47.345,95.451h1.911c0.892,0,1.617-0.726,1.617-1.617c0-2.362-3.527-0.893-3.527-3.527
		c0-1.058,0.853-1.911,1.911-1.911h1.911v0.294h-1.911c-0.892,0-1.616,0.726-1.616,1.617c0,2.361,3.527,0.892,3.527,3.527
		c0,1.059-0.852,1.911-1.911,1.911h-1.911V95.451z"/>
	<path fill="#C9B250" d="M52.263,88.396h3.185c1.489,0,2.695,1.205,2.695,2.694c0,1.49-1.206,2.695-2.695,2.695h-2.891v1.96h-0.294
		V88.396z M52.557,93.491h2.891c1.322,0,2.401-1.077,2.401-2.401c0-1.322-1.079-2.4-2.401-2.4h-2.891V93.491z"/>
	<path fill="#C9B250" d="M64.857,93.932h-5.242l-0.804,1.813h-0.313l3.253-7.35h0.979l3.254,7.35h-0.324L64.857,93.932z
		 M59.743,93.639h4.977l-2.185-4.949h-0.598L59.743,93.639z"/>
</g>
<rect x="88.967" y="53.38" fill="#CEAB4D" width="5.958" height="5.958"/>
<rect x="88.967" y="77.222" fill="none" stroke="#CEAB4D" stroke-width="0.268" stroke-miterlimit="10" width="5.958" height="5.957"/>
<rect x="88.967" y="89.143" fill="#CEAB4D" width="5.958" height="5.959"/>
<rect x="88.967" y="66.68" fill="none" stroke="#DB9840" stroke-width="0.1787" stroke-miterlimit="10" width="5.958" height="5.955"/>
<g>
	<path fill="#C9B250" d="M54.807,30.302h2.674c1.251,0,2.264,1.012,2.264,2.264c0,1.25-1.013,2.262-2.264,2.262h-2.427v1.646h-0.247
		V30.302z M55.054,34.581h2.427c1.111,0,2.017-0.904,2.017-2.015s-0.906-2.017-2.017-2.017h-2.427V34.581z"/>
	<path fill="#C9B250" d="M65.459,34.952h-4.402l-0.675,1.523h-0.263l2.731-6.172h0.823l2.733,6.172h-0.272L65.459,34.952z
		 M61.163,34.705h4.181l-1.835-4.156h-0.502L61.163,34.705z"/>
	<path fill="#C9B250" d="M72.234,35.568c-1.202,1.21-3.16,1.21-4.362,0c-1.209-1.201-1.209-3.16,0-4.36
		c1.202-1.21,3.16-1.21,4.362,0l-0.173,0.172c-1.102-1.102-2.913-1.102-4.016,0c-1.103,1.103-1.103,2.913,0,4.015
		c1.104,1.104,2.914,1.104,4.016,0L72.234,35.568z"/>
	<path fill="#C9B250" d="M74.356,33.389l2.781,3.086h-0.329l-2.624-2.897l-0.692,0.774l-0.024-0.016v2.139H73.22v-6.172h0.247v3.695
		l3.341-3.695h0.337L74.356,33.389z"/>
	<path fill="#C9B250" d="M83.465,34.952h-4.404l-0.675,1.523h-0.263l2.732-6.172h0.822l2.732,6.172h-0.272L83.465,34.952z
		 M79.169,34.705h4.18l-1.836-4.156h-0.501L79.169,34.705z"/>
	<path fill="#C9B250" d="M86.05,35.396c1.079,1.079,2.831,1.104,3.941,0.075v-1.465h0.248v1.563c-1.203,1.21-3.16,1.21-4.361,0
		c-1.211-1.201-1.211-3.16,0-4.36c1.201-1.21,3.158-1.21,4.361,0l-0.175,0.172c-1.1-1.102-2.91-1.102-4.015,0
		C84.947,32.483,84.947,34.293,86.05,35.396z"/>
	<path fill="#C9B250" d="M91.432,30.302h3.292v0.247h-3.046v2.716h2.799v0.247h-2.799v2.715h3.046v0.248h-3.292V30.302z"/>
</g>
<g>
	<radialGradient id="SVGID_2_" cx="74.7676" cy="37.9741" r="15.9219" gradientUnits="userSpaceOnUse">
		<stop  offset="0" style="stop-color:#FFF58A"/>
		<stop  offset="1" style="stop-color:#C49A2B"/>
	</radialGradient>
	
		<line fill="none" stroke="url(#SVGID_2_)" stroke-width="0.2422" stroke-miterlimit="10" x1="52.25" y1="37.974" x2="97.284" y2="37.974"/>
</g>
<radialGradient id="SVGID_3_" cx="-50.0366" cy="157.166" r="52.3049" gradientTransform="matrix(0.7071 -0.7071 0.7071 0.7071 -0.3438 -71.5625)" gradientUnits="userSpaceOnUse">
	<stop  offset="0" style="stop-color:#FFF58A"/>
	<stop  offset="1" style="stop-color:#C49A2B"/>
</radialGradient>
<rect x="23.374" y="22.916" transform="matrix(0.7071 -0.7071 0.7071 0.7071 -30.9118 75.2722)" fill="none" stroke="url(#SVGID_3_)" stroke-width="0.5361" stroke-miterlimit="10" width="104.07" height="104.07"/>
<radialGradient id="SVGID_4_" cx="92.2949" cy="69.8809" r="5.3193" gradientUnits="userSpaceOnUse">
	<stop  offset="0" style="stop-color:#FFF58A"/>
	<stop  offset="1" style="stop-color:#C49A2B"/>
</radialGradient>
<circle opacity="0.4" fill="none" stroke="url(#SVGID_4_)" stroke-width="1.8602" stroke-miterlimit="10" cx="92.295" cy="69.881" r="4.389"/>
<radialGradient id="SVGID_5_" cx="65.1934" cy="173.8936" r="5.2941" gradientTransform="matrix(0.83 -0.5578 0.5578 0.83 -57.126 -36.5239)" gradientUnits="userSpaceOnUse">
	<stop  offset="0" style="stop-color:#FFF58A"/>
	<stop  offset="1" style="stop-color:#C49A2B"/>
</radialGradient>
<polygon fill="url(#SVGID_5_)" points="96.432,73.115 100.152,72.453 90.693,66.48 90.693,66.534 90.644,66.515 92.601,77.529 
	94.617,74.333 96.439,76.947 98.162,75.789 "/>
</svg>
