<?xml version="1.0" encoding="utf-8"?>
<!-- Generator: Adobe Illustrator 16.0.0, SVG Export Plug-In . SVG Version: 6.00 Build 0)  -->
<!DOCTYPE svg PUBLIC "-//W3C//DTD SVG 1.1//EN" "http://www.w3.org/Graphics/SVG/1.1/DTD/svg11.dtd">
<svg version="1.1" id="Layer_2" xmlns="http://www.w3.org/2000/svg" xmlns:xlink="http://www.w3.org/1999/xlink" x="0px" y="0px"
	 width="150px" height="150px" viewBox="0 0 150 150" enable-background="new 0 0 150 150" xml:space="preserve">
<radialGradient id="SVGID_1_" cx="-50.0483" cy="157.3145" r="52.2361" gradientTransform="matrix(0.7071 -0.7071 0.7071 0.7071 -0.3438 -71.5625)" gradientUnits="userSpaceOnUse">
	<stop  offset="0" style="stop-color:#FFF58A"/>
	<stop  offset="1" style="stop-color:#C49A2B"/>
</radialGradient>
<polygon fill="none" stroke="url(#SVGID_1_)" stroke-width="0.5354" stroke-miterlimit="10" points="148.999,75.064 75.505,148.554 
	2.012,75.064 75.505,1.573 "/>
<radialGradient id="SVGID_2_" cx="57.0684" cy="-8.4922" r="27.0101" gradientTransform="matrix(1.3299 0 0 0.4692 5.8896 69.8503)" gradientUnits="userSpaceOnUse">
	<stop  offset="0" style="stop-color:#FFF58A"/>
	<stop  offset="1" style="stop-color:#C49A2B"/>
</radialGradient>
<path fill="none" stroke="url(#SVGID_2_)" stroke-width="0.1879" stroke-miterlimit="10" d="M117.998,76.877
	c0,0.812-1.504,1.469-3.357,1.469H48.924c-1.852,0-3.354-0.657-3.354-1.469V54.856c0-0.811,1.503-1.47,3.354-1.47h65.716
	c1.854,0,3.357,0.659,3.357,1.47V76.877z"/>
<g>
	<path fill="#C9B250" d="M53.565,62.813c2.662,0,4.821,2.16,4.821,4.821c0,2.662-2.16,4.823-4.821,4.823s-4.821-2.161-4.821-4.823
		C48.744,64.973,50.903,62.813,53.565,62.813z M53.565,72.071c2.443,0,4.436-1.993,4.436-4.437c0-2.442-1.993-4.435-4.436-4.435
		s-4.436,1.993-4.436,4.435C49.129,70.078,51.122,72.071,53.565,72.071z"/>
	<path fill="#C9B250" d="M64.05,69.884l2.572,2.572h-0.541l-2.571-2.572h-3.163v2.572h-0.386v-9.644h4.179
		c1.954,0,3.536,1.582,3.536,3.536c0,1.955-1.582,3.536-3.536,3.536H64.05z M60.347,69.499h3.793c1.735,0,3.15-1.414,3.15-3.15
		s-1.415-3.15-3.15-3.15h-3.793V69.499z"/>
	<path fill="#C9B250" d="M69.189,62.813h2.893c2.662,0,4.822,2.16,4.822,4.821c0,2.662-2.161,4.823-4.822,4.823h-2.893V62.813z
		 M69.575,72.071h2.507c2.443,0,4.437-1.993,4.437-4.437c0-2.442-1.994-4.435-4.437-4.435h-2.507V72.071z"/>
	<path fill="#C9B250" d="M78.472,62.813h5.144v0.386h-4.757v4.242h4.372v0.386h-4.372v4.244h4.757v0.386h-5.144V62.813z"/>
	<path fill="#C9B250" d="M88.973,69.884l2.573,2.572h-0.541l-2.572-2.572h-3.162v2.572h-0.387v-9.644h4.18
		c1.953,0,3.535,1.582,3.535,3.536c0,1.955-1.582,3.536-3.535,3.536H88.973z M85.271,69.499h3.793c1.734,0,3.149-1.414,3.149-3.15
		s-1.415-3.15-3.149-3.15h-3.793V69.499z"/>
</g>
<rect x="97.706" y="62.055" fill="none" stroke="#C9B250" stroke-width="0.4278" stroke-miterlimit="10" width="10.748" height="10.747"/>
<g>
	<path fill="#C9B250" d="M27.463,94.75h1.756c0.82,0,1.486-0.667,1.486-1.487c0-2.169-3.242-0.818-3.242-3.24
		c0-0.972,0.784-1.756,1.756-1.756h1.756v0.27h-1.756c-0.819,0-1.485,0.667-1.485,1.486c0,2.169,3.241,0.819,3.241,3.24
		c0,0.973-0.784,1.756-1.756,1.756h-1.756V94.75z"/>
	<path fill="#C9B250" d="M32.014,88.267h3.601v0.27h-3.331v2.972h3.061v0.271h-3.061v2.972h3.331v0.269h-3.601V88.267z"/>
	<path fill="#C9B250" d="M36.655,88.267h3.601v0.27h-3.33v2.972h3.061v0.271h-3.061v2.972h3.33v0.269h-3.601V88.267z"/>
	<path fill="#C9B250" d="M46.993,95.019h-0.27v-1.8l-3.314-4.952h0.315l3.133,4.682l3.123-4.682h0.324l-3.312,4.952V95.019z"/>
	<path fill="#C9B250" d="M54.043,88.267c1.864,0,3.376,1.513,3.376,3.376c0,1.864-1.512,3.376-3.376,3.376
		c-1.863,0-3.375-1.512-3.375-3.376C50.668,89.779,52.181,88.267,54.043,88.267z M54.043,94.75c1.71,0,3.106-1.397,3.106-3.107
		s-1.396-3.106-3.106-3.106c-1.711,0-3.105,1.396-3.105,3.106S52.333,94.75,54.043,94.75z"/>
	<path fill="#C9B250" d="M58.624,92.543v-4.276h0.271v4.276c0,1.216,0.99,2.207,2.205,2.207c1.215,0,2.205-0.991,2.205-2.207v-4.276
		h0.271v4.276c0,1.369-1.107,2.476-2.476,2.476C59.731,95.019,58.624,93.912,58.624,92.543z"/>
	<path fill="#C9B250" d="M66.729,88.267H67v6.752h-0.271V88.267z"/>
	<path fill="#C9B250" d="M74.533,95.019h-0.261l-5.104-6.482h-0.495v6.482h-0.271v-6.752h0.901l4.959,6.312v-6.312h0.27V95.019z"/>
	<path fill="#C9B250" d="M77.687,88.267h2.745c0.973,0,1.756,0.784,1.756,1.756c0,0.739-0.449,1.359-1.08,1.62
		c0.631,0.271,1.08,0.892,1.08,1.62c0,0.973-0.783,1.756-1.756,1.756h-2.745V88.267z M77.957,91.508h2.475
		c0.855,0,1.485-0.685,1.485-1.485c0-0.819-0.664-1.486-1.485-1.486h-2.475V91.508z M77.957,94.75h2.475
		c0.821,0,1.485-0.667,1.485-1.487c0-0.792-0.63-1.484-1.485-1.484h-2.475V94.75z"/>
	<path fill="#C9B250" d="M83.525,88.267h3.603v0.27h-3.331v2.972h3.062v0.271h-3.062v2.972h3.331v0.269h-3.603V88.267z"/>
	<path fill="#C9B250" d="M88.166,88.267h0.271v6.483h3.332v0.269h-3.603V88.267z"/>
	<path fill="#C9B250" d="M93.294,93.838c1.178,1.181,3.096,1.208,4.312,0.083v-1.603h0.27v1.71c-1.315,1.323-3.457,1.323-4.771,0
		c-1.322-1.314-1.322-3.456,0-4.771c1.313-1.323,3.455-1.323,4.771,0l-0.189,0.19c-1.205-1.208-3.187-1.208-4.392,0
		C92.086,90.652,92.086,92.633,93.294,93.838z"/>
	<path fill="#C9B250" d="M102.01,93.219l1.802,1.8h-0.378l-1.802-1.8h-2.214v1.8h-0.271v-6.752h2.927
		c1.368,0,2.476,1.107,2.476,2.477c0,1.368-1.107,2.476-2.476,2.476H102.01z M99.418,92.948h2.656c1.215,0,2.205-0.991,2.205-2.205
		c0-1.217-0.99-2.207-2.205-2.207h-2.656V92.948z"/>
	<path fill="#C9B250" d="M111.09,93.353h-4.816l-0.738,1.666h-0.288l2.989-6.752h0.9l2.988,6.752h-0.298L111.09,93.353z
		 M106.39,93.083h4.573l-2.008-4.547h-0.549L106.39,93.083z"/>
	<path fill="#C9B250" d="M113.173,88.267h2.026c1.863,0,3.375,1.513,3.375,3.376c0,1.864-1.512,3.376-3.375,3.376h-2.026V88.267z
		 M113.444,94.75h1.755c1.71,0,3.105-1.397,3.105-3.107s-1.396-3.106-3.105-3.106h-1.755V94.75z"/>
	<path fill="#C9B250" d="M119.816,88.267h3.6v0.27h-3.331v2.972h3.061v0.271h-3.061v2.972h3.331v0.269h-3.6V88.267z"/>
	<path fill="#C9B250" d="M124.456,88.267h0.27v4.502h-0.27V88.267z M124.726,95.019h-0.27v-0.9h0.27V95.019z"/>
</g>
<g>
	<path fill="#C9B250" d="M66.181,30.722h1.849c1.701,0,3.083,1.381,3.083,3.082s-1.382,3.082-3.083,3.082h-1.849V30.722z
		 M66.428,36.638h1.602c1.562,0,2.835-1.273,2.835-2.834c0-1.562-1.273-2.835-2.835-2.835h-1.602V36.638z"/>
	<path fill="#C9B250" d="M75.177,30.722c1.701,0,3.082,1.381,3.082,3.082s-1.381,3.082-3.082,3.082c-1.7,0-3.081-1.38-3.081-3.082
		S73.477,30.722,75.177,30.722z M75.177,36.638c1.563,0,2.836-1.273,2.836-2.834c0-1.562-1.273-2.835-2.836-2.835
		c-1.561,0-2.834,1.273-2.834,2.835C72.343,35.365,73.616,36.638,75.177,36.638z"/>
	<path fill="#C9B250" d="M85.02,36.885h-0.237l-4.659-5.917h-0.451v5.917h-0.248v-6.164h0.822l4.527,5.761v-5.761h0.246V36.885z"/>
	<path fill="#C9B250" d="M86.354,30.722h3.287v0.247H86.6v2.712h2.795v0.247H86.6v2.711h3.041v0.247h-3.287V30.722z"/>
	<path fill="#C9B250" d="M90.62,30.722h0.247v4.108H90.62V30.722z M90.867,36.885H90.62v-0.822h0.247V36.885z"/>
</g>
<g>
	<radialGradient id="SVGID_3_" cx="78.5254" cy="38.3818" r="15.8998" gradientUnits="userSpaceOnUse">
		<stop  offset="0" style="stop-color:#FFF58A"/>
		<stop  offset="1" style="stop-color:#C49A2B"/>
	</radialGradient>
	
		<line fill="none" stroke="url(#SVGID_3_)" stroke-width="0.2419" stroke-miterlimit="10" x1="56.04" y1="38.382" x2="101.011" y2="38.382"/>
</g>
<polygon fill="#CEAB4D" points="98.764,65.394 103.782,70.747 113.551,57.764 103.514,67.468 "/>
</svg>
