<?xml version="1.0" encoding="utf-8"?>
<!-- Generator: Adobe Illustrator 19.0.0, SVG Export Plug-In . SVG Version: 6.00 Build 0)  -->
<svg version="1.1" id="Layer_1" xmlns="http://www.w3.org/2000/svg" xmlns:xlink="http://www.w3.org/1999/xlink" x="0px" y="0px"
	 viewBox="0 0 700 452.9" style="enable-background:new 0 0 700 452.9;" xml:space="preserve">
<style type="text/css">
	.st0{fill:#C5B358;}
</style>
<g id="XMLID_24_">
	<g id="XMLID_75_">
		<g id="XMLID_76_">
			<path id="XMLID_77_" class="st0" d="M140.7,442.9H92.6L5.5,356l2.2-1.7L437.3,10.3L697,356.2l-31,31L440.2,216.4l-0.7,0.5
				L140.7,442.9z M94.5,438H139l296.3-224.1l2.2-59.8h4.9l2.2,59.8l220.7,167l25.1-25.1L436.3,17.4L12.8,356.2L94.5,438z"/>
		</g>
	</g>
	<g id="XMLID_70_">
		<g id="XMLID_71_">
			<path id="XMLID_72_" class="st0" d="M645.5,407.8L440.7,240.5l-0.7-24.9L666.5,387L645.5,407.8z M445.6,238.1l199.7,163.1
				l13.9-13.9L445.3,225.6L445.6,238.1z"/>
		</g>
	</g>
	<g id="XMLID_65_">
		<g id="XMLID_66_">
			<path id="XMLID_67_" class="st0" d="M619.6,433.6l-1.7-1.7L441.7,264.2l-1-24.9L646,407.3L619.6,433.6z M446.5,262l173.1,164.8
				l19.3-19.3L446.1,250.1L446.5,262z"/>
		</g>
	</g>
	<g id="XMLID_60_">
		<g id="XMLID_61_">
			<path id="XMLID_62_" class="st0" d="M575.7,442.9h-38.1l-94.2-128.2l-1-24.2L575.7,442.9z M540.3,438h24.7L448,304.3l0.2,9
				L540.3,438z"/>
		</g>
	</g>
	<g id="XMLID_55_">
		<g id="XMLID_56_">
			<path id="XMLID_57_" class="st0" d="M538.8,442.9h-90.6l-4.9-129.6L538.8,442.9z M452.9,438h76.2l-80.3-109.1L452.9,438z"/>
		</g>
	</g>
	<g id="XMLID_50_">
		<g id="XMLID_51_">
			<path id="XMLID_52_" class="st0" d="M610.3,442.9h-35.6L442.6,291.8l-1-28.8l178.7,169.9L610.3,442.9z M576.9,438h31.5l4.9-4.9
				L447,275l0.5,15.1L576.9,438z"/>
		</g>
	</g>
	<g id="XMLID_45_">
		<g id="XMLID_46_">
			<path id="XMLID_47_" class="st0" d="M431.9,442.9h-90.8L436.5,313L431.9,442.9z M350.9,438h76.4l4.1-109.4L350.9,438z"/>
		</g>
	</g>
	<g id="XMLID_40_">
		<g id="XMLID_41_">
			<path id="XMLID_42_" class="st0" d="M191.2,442.9h-52l301-227.5l-1,24.9l-0.7,0.7L191.2,442.9z M153.9,438h35.9l245.1-200.2
				l0.5-12.4L153.9,438z"/>
		</g>
	</g>
	<g id="XMLID_35_">
		<g id="XMLID_36_">
			<path id="XMLID_37_" class="st0" d="M305.2,442.9h-56.1l189.2-180.1l-0.7,29L305.2,442.9z M261.5,438h41.7l129.4-148.2l0.5-15.1
				L261.5,438z"/>
		</g>
	</g>
	<g id="XMLID_30_">
		<g id="XMLID_31_">
			<path id="XMLID_32_" class="st0" d="M250.3,442.9H190l249.5-203.8l-1,24.9L250.3,442.9z M203.7,438h44.7l185.3-176.2l0.5-12
				L203.7,438z"/>
		</g>
	</g>
	<g id="XMLID_25_">
		<g id="XMLID_26_">
			<path id="XMLID_27_" class="st0" d="M342.1,442.9H304l133.5-152.6l-1,24.2L342.1,442.9z M315,438h24.7l92-125.2l0.2-9L315,438z"
				/>
		</g>
	</g>
</g>
</svg>
