<svg xmlns="http://www.w3.org/2000/svg" xmlns:xlink="http://www.w3.org/1999/xlink" version="1.1" width="182" height="68" enable-background="new 0 0 283.46 260.79" xml:space="preserve"><rect id="backgroundrect" width="100%" height="100%" x="0" y="0" fill="none" stroke="none" class=""/>
  
  
<g class="currentLayer"><title>Layer 1</title><g id="svg_1" class="">
    <path fill="#ceab4d" d="M16.39100253295898,42.924032958984384 v23.5 h5.709 c1.1,0 1.9660000000000002,-0.08200000000000002 2.598,-0.24600000000000002 s1.255,-0.5630000000000001 1.8690000000000002,-1.195 c0.6130000000000001,-0.6320000000000001 1.087,-1.3840000000000001 1.4220000000000002,-2.257 c0.3350000000000001,-0.8720000000000001 0.6920000000000002,-2.086 1.072,-3.6420000000000003 h0.8910000000000001 l-0.7020000000000001,8.308 H7.874002532958983 v-0.9680000000000001 h4.002 v-23.5 h-4.002 v-0.9670000000000001 h12.746 v0.9670000000000001 H16.39100253295898 z" id="svg_2"/>
    <path fill="#ceab4d" d="M53.22400253295899,42.924032958984384 h-4.154 v-0.9670000000000001 h9.085 v0.9670000000000001 h-4.002 v15.383000000000001 c0,2.226 -0.16800000000000004,3.869 -0.503,4.932 c-0.3350000000000001,1.062 -0.9450000000000001,1.953 -1.83,2.6740000000000004 c-0.8850000000000001,0.7210000000000001 -1.944,1.246 -3.177,1.574 c-1.232,0.32900000000000007 -2.507,0.49300000000000005 -3.822,0.49300000000000005 c-2.782,0 -4.817,-0.43700000000000006 -6.107,-1.3090000000000002 c-1.29,-0.8720000000000001 -2.083,-1.947 -2.38,-3.225 c-0.29700000000000004,-1.276 -0.44500000000000006,-2.99 -0.44500000000000006,-5.14 v-15.383000000000001 h-3.68 v-0.9670000000000001 h12.158 v0.9670000000000001 h-4.002 v14.946 c0,2.062 0.09500000000000003,3.68 0.28500000000000003,4.855 c0.18900000000000003,1.176 0.7020000000000001,2.156 1.536,2.94 s2.156,1.176 3.964,1.176 c1.467,0 2.782,-0.30100000000000005 3.9450000000000003,-0.901 c1.163,-0.6010000000000001 1.976,-1.4060000000000001 2.438,-2.418 c0.461,-1.012 0.6920000000000002,-2.896 0.6920000000000002,-5.652 V42.924032958984384 z" id="svg_3"/>
    <path fill="#ceab4d" d="M76.95200253295897,52.90103295898439 l9.824,13.523 h3.188 v0.9680000000000001 h-12.784 v-0.9680000000000001 h4.343 l-7.302,-10.071 l-7.966,10.071 h4.969 v0.9680000000000001 h-10.053 v-0.9680000000000001 h3.851 l8.535,-10.887 l-9.161,-12.613 h-3.225 v-0.9670000000000001 h12.67 v0.9670000000000001 h-4.191 l6.638,9.086 l7.227,-9.086 h-4.362 v-0.9670000000000001 h9.218 v0.9670000000000001 h-3.584 L76.95200253295897,52.90103295898439 z" id="svg_4"/>
    <path fill="#ceab4d" d="M114.31600253295898,42.924032958984384 h-4.1530000000000005 v-0.9670000000000001 h9.085 v0.9670000000000001 h-4.002 v15.383000000000001 c0,2.226 -0.16800000000000004,3.869 -0.503,4.932 c-0.3350000000000001,1.062 -0.9450000000000001,1.953 -1.83,2.6740000000000004 c-0.8860000000000001,0.7210000000000001 -1.944,1.246 -3.177,1.574 c-1.233,0.32900000000000007 -2.507,0.49300000000000005 -3.822,0.49300000000000005 c-2.782,0 -4.817,-0.43700000000000006 -6.107,-1.3090000000000002 c-1.2890000000000001,-0.8720000000000001 -2.083,-1.947 -2.38,-3.225 c-0.29800000000000004,-1.276 -0.44600000000000006,-2.99 -0.44600000000000006,-5.14 v-15.383000000000001 h-3.68 v-0.9670000000000001 h12.158 v0.9670000000000001 h-4.002 v14.946 c0,2.062 0.09500000000000003,3.68 0.28400000000000003,4.855 c0.19000000000000003,1.176 0.7020000000000001,2.156 1.536,2.94 c0.8350000000000001,0.784 2.156,1.176 3.965,1.176 c1.467,0 2.781,-0.30100000000000005 3.9450000000000003,-0.901 c1.163,-0.6010000000000001 1.975,-1.4060000000000001 2.4370000000000003,-2.418 s0.6920000000000002,-2.896 0.6920000000000002,-5.652 V42.924032958984384 z" id="svg_5"/>
    <path fill="#ceab4d" d="M127.15700253295898,66.42403295898436 v-23.5 h-4.002 v-0.9670000000000001 h13.94 c1.8210000000000002,0 3.316,0.15800000000000003 4.486,0.47400000000000003 c1.169,0.31600000000000006 2.178,0.971 3.025,1.964 c0.8470000000000001,0.992 1.271,2.134 1.271,3.423 c0,1.606 -0.6200000000000001,2.909 -1.859,3.907 c-1.239,0.999 -3.338,1.7520000000000002 -6.297,2.258 v0.09500000000000003 c2.125,0.41700000000000004 3.866,1.227 5.226,2.428 s2.039,3.236 2.039,6.107 c0,1.6440000000000001 0.19200000000000003,2.696 0.5780000000000001,3.157 c0.38600000000000007,0.462 0.92,0.6920000000000002 1.604,0.6920000000000002 c0.44200000000000006,0 0.973,-0.08800000000000002 1.593,-0.266 v0.93 c-1.101,0.38000000000000006 -2.162,0.5690000000000001 -3.187,0.5690000000000001 c-2.086,0 -3.56,-0.5820000000000001 -4.4190000000000005,-1.745 c-0.8600000000000001,-1.163 -1.2770000000000001,-2.302 -1.252,-3.414 l0.07500000000000001,-3.225 c0,-1.125 -0.35600000000000004,-2.234 -1.071,-3.3280000000000003 s-2.3360000000000003,-1.641 -4.865,-1.641 h-2.37 v12.081 h4.002 v0.9680000000000001 h-12.519 v-0.9680000000000001 H127.15700253295898 zM131.67200253295897,42.924032958984384 v10.527 h3.414 c1.466,0 2.585,-0.09800000000000003 3.356,-0.29400000000000004 s1.3880000000000001,-0.7080000000000001 1.85,-1.537 c0.461,-0.8270000000000001 0.6920000000000002,-2.146 0.6920000000000002,-3.954 c0,-1.479 -0.234,-2.561 -0.7020000000000001,-3.243 s-1.033,-1.104 -1.697,-1.262 s-1.533,-0.23700000000000002 -2.608,-0.23700000000000002 H131.67200253295897 z" id="svg_6"/>
    <path fill="#ceab4d" d="M148.344002532959,41.958032958984376 h12.708 v0.9670000000000001 h-4.192 l7.454,11.229 l7.341,-11.229 h-4.609 v-0.9670000000000001 h9.01 v0.9670000000000001 h-3.301 l-7.966,12.158 v11.342 h4.229 v0.9680000000000001 h-13.05 v-0.9680000000000001 h4.306 v-10.678 l-8.535,-12.822 h-3.395 V41.958032958984376 z" id="svg_7"/>
  </g><g id="svg_8" class="">
    <g id="svg_9">
      <path fill="#ceab4d" stroke="#ceab4d" stroke-miterlimit="10" d="M9.92400253295898,15.43303295898437 c1.013,0 1.971,-0.19000000000000003 2.873,-0.5700000000000001 c0.902,-0.38000000000000006 1.6860000000000002,-0.902 2.351,-1.566 c0.6650000000000001,-0.6650000000000001 1.187,-1.448 1.5670000000000002,-2.351 s0.5700000000000001,-1.859 0.5700000000000001,-2.873 c0,-1.013 -0.19000000000000003,-1.971 -0.5700000000000001,-2.872 c-0.38000000000000006,-0.902 -0.902,-1.6860000000000002 -1.5670000000000002,-2.351 c-0.6650000000000001,-0.6650000000000001 -1.448,-1.188 -2.351,-1.5670000000000002 c-0.902,-0.38000000000000006 -1.86,-0.5690000000000001 -2.873,-0.5690000000000001 h-9.924 v-0.7120000000000001 h9.924 c1.108,0 2.152,0.21300000000000002 3.134,0.6410000000000001 c0.981,0.42800000000000005 1.835,1.005 2.564,1.733 c0.7280000000000001,0.7290000000000001 1.306,1.5830000000000002 1.733,2.563 c0.42700000000000005,0.981 0.6410000000000001,2.026 0.6410000000000001,3.134 c0,1.108 -0.21400000000000002,2.153 -0.6410000000000001,3.134 c-0.42700000000000005,0.981 -1.005,1.8370000000000002 -1.733,2.564 c-0.7290000000000001,0.7290000000000001 -1.5830000000000002,1.306 -2.564,1.733 c-0.981,0.42700000000000005 -2.026,0.6410000000000001 -3.134,0.6410000000000001 V15.43303295898437 zM0.7130025329589813,33.23903295898438 h-0.7120000000000001 v-33.237 h0.7120000000000001 V33.23903295898438 zM12.251002532958978,15.385032958984368 c1.234,0 2.39,0.23700000000000002 3.466,0.7120000000000001 c1.076,0.47600000000000003 2.018,1.116 2.825,1.924 c0.807,0.807 1.448,1.749 1.923,2.825 c0.47500000000000003,1.076 0.7120000000000001,2.231 0.7120000000000001,3.466 s-0.23700000000000002,2.3970000000000002 -0.7120000000000001,3.49 c-0.47500000000000003,1.092 -1.116,2.042 -1.923,2.849 c-0.807,0.808 -1.75,1.44 -2.825,1.899 c-1.077,0.459 -2.232,0.6880000000000002 -3.466,0.6880000000000002 h-12.25 v-0.7600000000000001 h12.25 c1.1400000000000001,0 2.208,-0.21400000000000002 3.205,-0.6410000000000001 c0.997,-0.42800000000000005 1.867,-1.013 2.611,-1.7570000000000001 c0.7440000000000001,-0.7440000000000001 1.33,-1.606 1.7570000000000001,-2.588 c0.42800000000000005,-0.981 0.6410000000000001,-2.042 0.6410000000000001,-3.182 s-0.21300000000000002,-2.2 -0.6410000000000001,-3.182 c-0.42700000000000005,-0.98 -1.013,-1.844 -1.7570000000000001,-2.588 c-0.7440000000000001,-0.7430000000000001 -1.614,-1.3290000000000002 -2.611,-1.7570000000000001 c-0.997,-0.42700000000000005 -2.065,-0.6410000000000001 -3.205,-0.6410000000000001 V15.385032958984368 zM12.29800253295899,16.145032958984388 H0.001002532958985114 v-0.7120000000000001 h12.298 V16.145032958984388 z" id="svg_10"/>
      <path fill="#ceab4d" stroke="#ceab4d" stroke-miterlimit="10" d="M23.96900253295898,33.23903295898438 v-33.237 h0.7120000000000001 v33.237 H23.96900253295898 zM23.96900253295898,0.7130329589843711 v-0.7120000000000001 h16.714 v0.7120000000000001 H23.96900253295898 zM23.96900253295898,16.95303295898438 v-0.7130000000000001 h15.242 v0.7130000000000001 H23.96900253295898 zM23.96900253295898,33.23903295898438 v-0.7120000000000001 h16.714 v0.7120000000000001 H23.96900253295898 z" id="svg_11"/>
      <path fill="#ceab4d" stroke="#ceab4d" stroke-miterlimit="10" d="M42.60100253295899,33.23903295898438 v-33.237 h0.7120000000000001 v33.237 H42.60100253295899 zM42.60100253295899,33.23903295898438 v-0.7120000000000001 h16.714 v0.7120000000000001 H42.60100253295899 z" id="svg_12"/>
      <path fill="#ceab4d" stroke="#ceab4d" stroke-miterlimit="10" d="M72.47600253295897,33.23903295898438 c-2.089,0 -4.06,-0.43500000000000005 -5.912,-1.306 c-1.852,-0.8700000000000001 -3.466,-2.058 -4.843,-3.5620000000000003 c-1.377,-1.5030000000000001 -2.469,-3.268 -3.276,-5.2940000000000005 c-0.807,-2.025 -1.211,-4.179 -1.211,-6.458 s0.404,-4.432 1.211,-6.457 s1.899,-3.791 3.276,-5.295 c1.377,-1.5030000000000001 2.991,-2.689 4.843,-3.561 c1.852,-0.8710000000000001 3.823,-1.306 5.912,-1.306 c2.342,0 4.574,0.554 6.695,1.661 c1.013,0.539 2.001,1.259 2.968,2.161 c0.9650000000000001,0.901 1.812,1.844 2.54,2.825 h-0.901 c-1.3940000000000001,-1.931 -3.056,-3.411 -4.986,-4.44 c-1.931,-1.028 -4.036,-1.5430000000000001 -6.315,-1.5430000000000001 c-1.994,0 -3.878,0.42000000000000004 -5.65,1.259 c-1.7730000000000001,0.8390000000000001 -3.316,1.979 -4.6290000000000004,3.419 c-1.314,1.44 -2.351,3.134 -3.11,5.08 c-0.7600000000000001,1.947 -1.1400000000000001,4.013 -1.1400000000000001,6.196 c0,2.185 0.38000000000000006,4.25 1.1400000000000001,6.196 c0.7590000000000001,1.947 1.796,3.641 3.11,5.081 c1.3130000000000002,1.44 2.856,2.58 4.6290000000000004,3.419 c1.772,0.8390000000000001 3.656,1.258 5.65,1.258 c2.279,0 4.432,-0.562 6.458,-1.6860000000000002 c2.025,-1.123 3.734,-2.6500000000000004 5.128,-4.582 l0.6170000000000001,0.28500000000000003 c-0.7280000000000001,0.981 -1.5750000000000002,1.923 -2.54,2.825 c-0.9660000000000001,0.902 -1.955,1.622 -2.968,2.16 C77.14500253295898,32.68503295898438 74.91400253295899,33.23903295898438 72.47600253295897,33.23903295898438 zM74.56500253295897,19.70703295898437 v-0.7130000000000001 h10.113 v0.7130000000000001 H74.56500253295897 zM83.96700253295899,18.994032958984377 h0.7120000000000001 v14.197 h-0.7120000000000001 V18.994032958984377 z" id="svg_13"/>
      <path fill="#ceab4d" stroke="#ceab4d" stroke-miterlimit="10" d="M88.326002532959,16.145032958984388 v-0.7120000000000001 h9.924 c1.013,0 1.971,-0.19000000000000003 2.873,-0.5700000000000001 c0.901,-0.38000000000000006 1.6860000000000002,-0.902 2.35,-1.566 c0.6650000000000001,-0.6650000000000001 1.188,-1.448 1.5670000000000002,-2.351 s0.5690000000000001,-1.859 0.5690000000000001,-2.873 c0,-1.013 -0.18900000000000003,-1.971 -0.5690000000000001,-2.872 c-0.38000000000000006,-0.902 -0.902,-1.6860000000000002 -1.5670000000000002,-2.351 c-0.6640000000000001,-0.6650000000000001 -1.448,-1.188 -2.35,-1.5670000000000002 c-0.902,-0.38000000000000006 -1.86,-0.5690000000000001 -2.873,-0.5690000000000001 h-9.924 v-0.7120000000000001 h9.924 c1.107,0 2.152,0.21300000000000002 3.134,0.6410000000000001 c0.98,0.42800000000000005 1.836,1.005 2.564,1.733 c0.7280000000000001,0.7290000000000001 1.306,1.5830000000000002 1.7320000000000002,2.563 c0.42800000000000005,0.981 0.6420000000000001,2.026 0.6420000000000001,3.134 c0,1.108 -0.21400000000000002,2.153 -0.6420000000000001,3.134 c-0.42700000000000005,0.981 -1.005,1.8370000000000002 -1.7320000000000002,2.564 c-0.7290000000000001,0.7290000000000001 -1.584,1.306 -2.564,1.733 c-0.981,0.42700000000000005 -2.026,0.6410000000000001 -3.134,0.6410000000000001 H88.326002532959 zM89.03800253295898,33.23903295898438 h-0.7120000000000001 v-33.237 h0.7120000000000001 V33.23903295898438 zM106.60700253295897,33.23903295898438 l-9.069,-17.236 l0.6640000000000001,-0.38000000000000006 l9.117,17.616 H106.60700253295897 z" id="svg_14"/>
      <path fill="#ceab4d" stroke="#ceab4d" stroke-miterlimit="10" d="M135.44100253295898,33.23903295898438 h-0.7120000000000001 l-12.346,-32.24 l-12.346,32.24 h-0.7120000000000001 l12.678,-33.237 h0.7600000000000001 L135.44100253295898,33.23903295898438 zM113.93200253295899,22.223032958984362 v-0.7130000000000001 h16.856 v0.7130000000000001 H113.93200253295899 z" id="svg_15"/>
      <path fill="#ceab4d" stroke="#ceab4d" stroke-miterlimit="10" d="M147.165002532959,0.7130329589843711 h-9.829 l-0.09500000000000003,-0.7120000000000001 h9.924 V0.7130329589843711 zM137.336002532959,0.0020329589843868234 h0.7120000000000001 v33.237 h-0.7120000000000001 V0.0020329589843868234 zM147.212002532959,33.23903295898438 h-9.876 v-0.7120000000000001 h9.876 V33.23903295898438 zM147.117002532959,32.527032958984364 c1.994,0 3.8770000000000002,-0.42000000000000004 5.65,-1.259 c1.772,-0.8380000000000001 3.315,-1.978 4.63,-3.419 c1.3130000000000002,-1.439 2.357,-3.125 3.134,-5.057 c0.775,-1.931 1.163,-3.988 1.163,-6.173 c0,-2.184 -0.38000000000000006,-4.241 -1.1400000000000001,-6.173 c-0.7600000000000001,-1.9300000000000002 -1.804,-3.615 -3.134,-5.057 c-1.3290000000000002,-1.439 -2.8810000000000002,-2.579 -4.6530000000000005,-3.419 c-1.7730000000000001,-0.8380000000000001 -3.656,-1.258 -5.65,-1.258 v-0.7120000000000001 c2.025,0 3.957,0.42000000000000004 5.793,1.258 c1.836,0.8390000000000001 3.45,1.994 4.844,3.466 c1.393,1.473 2.508,3.229 3.347,5.271 c0.8390000000000001,2.042 1.259,4.25 1.259,6.6240000000000006 c0,2.059 -0.3490000000000001,4.076 -1.045,6.055 s-1.702,3.7510000000000003 -3.015,5.317 c-1.314,1.5670000000000002 -2.9130000000000003,2.834 -4.796,3.799 c-1.8840000000000001,0.9660000000000001 -4.013,1.448 -6.3870000000000005,1.448 V32.527032958984364 z" id="svg_16"/>
      <path fill="#ceab4d" stroke="#ceab4d" stroke-miterlimit="10" d="M165.36500253295898,33.23903295898438 v-33.237 h0.7120000000000001 v33.237 H165.36500253295898 zM165.36500253295898,0.7130329589843711 v-0.7120000000000001 h16.714 v0.7120000000000001 H165.36500253295898 zM165.36500253295898,16.95303295898438 v-0.7130000000000001 h15.242 v0.7130000000000001 H165.36500253295898 zM165.36500253295898,33.23903295898438 v-0.7120000000000001 h16.714 v0.7120000000000001 H165.36500253295898 z" id="svg_17"/>
    </g>
  </g></g></svg>