<?xml version="1.0" encoding="utf-8"?>
<!-- Generator: Adobe Illustrator 19.0.0, SVG Export Plug-In . SVG Version: 6.00 Build 0)  -->
<svg version="1.1" id="Layer_1" xmlns="http://www.w3.org/2000/svg" xmlns:xlink="http://www.w3.org/1999/xlink" x="0px" y="0px"
	 viewBox="0 -38.8 283.5 260.8" style="enable-background:new 0 -38.8 283.5 260.8;" xml:space="preserve">
<style type="text/css">
	.st0{fill:#C5B358;}
</style>
<g>
	<g>
		<g>
			<path class="st0" d="M68,119.4H50.5L18.9,87.8l0.8-0.6l156-124.9L270,87.9l-11.3,11.3l-82-62l-0.3,0.2L68,119.4z M51.3,117.6
				h16.1L175,36.2l0.8-21.7h1.8l0.8,21.7l80.1,60.6l9.1-9.1L175.3-35.1L21.6,87.9L51.3,117.6z"/>
		</g>
	</g>
	<g>
		<g>
			<path class="st0" d="M251.3,106.6l-74.3-60.7l-0.3-9l82.2,62.2L251.3,106.6z M178.7,45l72.5,59.2l5.1-5.1l-77.6-58.7L178.7,45z"
				/>
		</g>
	</g>
	<g>
		<g>
			<path class="st0" d="M241.9,116l-0.6-0.6l-64-60.9l-0.4-9l74.5,61L241.9,116z M179,53.7l62.8,59.8l7-7l-70-57.2L179,53.7z"/>
		</g>
	</g>
	<g>
		<g>
			<path class="st0" d="M225.9,119.4h-13.8l-34.2-46.5l-0.4-8.8L225.9,119.4z M213.1,117.6h9L179.6,69l0.1,3.3L213.1,117.6z"/>
		</g>
	</g>
	<g>
		<g>
			<path class="st0" d="M212.5,119.4h-32.9l-1.8-47.1L212.5,119.4z M181.3,117.6H209L179.8,78L181.3,117.6z"/>
		</g>
	</g>
	<g>
		<g>
			<path class="st0" d="M238.5,119.4h-12.9l-47.9-54.9L177.3,54l64.9,61.7L238.5,119.4z M226.4,117.6h11.4l1.8-1.8l-60.3-57.4
				l0.2,5.5L226.4,117.6z"/>
		</g>
	</g>
	<g>
		<g>
			<path class="st0" d="M173.7,119.4h-33l34.6-47.1L173.7,119.4z M144.3,117.6H172l1.5-39.7L144.3,117.6z"/>
		</g>
	</g>
	<g>
		<g>
			<path class="st0" d="M86.3,119.4H67.5l109.3-82.6l-0.4,9l-0.3,0.3L86.3,119.4z M72.8,117.6h13l89-72.7l0.2-4.5L72.8,117.6z"/>
		</g>
	</g>
	<g>
		<g>
			<path class="st0" d="M127.7,119.4h-20.4L176,54l-0.3,10.5L127.7,119.4z M111.9,117.6H127l47-53.8l0.2-5.5L111.9,117.6z"/>
		</g>
	</g>
	<g>
		<g>
			<path class="st0" d="M107.8,119.4H85.9l90.6-74l-0.4,9L107.8,119.4z M90.9,117.6h16.2l67.3-64l0.2-4.3L90.9,117.6z"/>
		</g>
	</g>
	<g>
		<g>
			<path class="st0" d="M141.1,119.4h-13.8L175.8,64l-0.4,8.8L141.1,119.4z M131.3,117.6h9l33.4-45.5l0.1-3.3L131.3,117.6z"/>
		</g>
	</g>
</g>
<g>
	<g>
		<path class="st0" d="M31,204.8c0,7.3,0,11.2,1.2,12.3c0.9,0.9,2.4,1.2,6.9,1.2c3,0,5.2,0,6.7-1.6c0.7-0.7,1.3-2.4,1.5-3.4
			c0-0.4,0.1-0.9,0.6-0.9c0.4,0,0.4,0.3,0.4,0.9c0,0.6-0.4,4.9-0.9,6.6c-0.3,1.2-0.6,1.5-3.6,1.5c-4,0-7-0.1-9.6-0.1
			c-2.5-0.1-4.6-0.1-7-0.1c-0.6,0-1.9,0-3.3,0c-1.3,0-2.8,0.1-3.9,0.1c-0.7,0-1.2-0.1-1.2-0.6c0-0.3,0.3-0.4,0.9-0.4
			c0.9,0,1.5-0.1,2.1-0.3c1.2-0.3,1.5-1.5,1.6-3.1c0.3-2.4,0.3-6.9,0.3-12.1v-10c0-8.7,0-10.3-0.1-12.1c-0.1-1.9-0.6-2.8-2.4-3.3
			c-0.4-0.1-1.2-0.1-1.9-0.1c-0.6,0-0.9-0.1-0.9-0.4c0-0.4,0.4-0.4,1.2-0.4c2.7,0,6.3,0.1,7.8,0.1c1.3,0,5.5-0.1,7.8-0.1
			c0.7,0,1.2,0.1,1.2,0.4c0,0.4-0.3,0.4-1,0.4c-0.6,0-1.5,0-2.2,0.1c-1.5,0.3-1.9,1.2-2.1,3.3c-0.1,1.8-0.1,3.4-0.1,12.1v10.3H31z"
			/>
	</g>
	<g>
		<path class="st0" d="M54.8,194.7c0-8.7,0-10.3-0.1-12.1c-0.1-1.9-0.6-2.8-2.4-3.3c-0.4-0.1-1.5-0.1-2.2-0.1
			c-0.6,0-0.9-0.1-0.9-0.4c0-0.4,0.4-0.4,1.2-0.4c3,0,6.6,0.1,8.4,0.1c1.3,0,4.9-0.1,7-0.1c0.9,0,1.2,0.1,1.2,0.4
			c0,0.4-0.3,0.4-0.9,0.4s-0.9,0-1.6,0.1c-1.5,0.3-1.9,1.2-2.1,3.3c-0.1,1.8-0.1,3.4-0.1,12.1v7.9c0,8.2,1.6,11.8,4.5,14.1
			c2.5,2.1,5.2,2.4,7.2,2.4c2.5,0,5.5-0.7,7.9-3.1c3.1-3.1,3.3-8.2,3.3-14.2v-7.2c0-8.7,0-10.3-0.1-12.1c-0.1-1.9-0.6-2.8-2.4-3.3
			c-0.4-0.1-1.5-0.1-2.1-0.1s-0.9-0.1-0.9-0.4c0-0.4,0.4-0.4,1.2-0.4c2.8,0,6.4,0.1,6.6,0.1c0.7,0,4.3-0.1,6.4-0.1
			c0.7,0,1.2,0.1,1.2,0.4c0,0.4-0.3,0.4-1,0.4c-0.6,0-0.9,0-1.6,0.1c-1.5,0.3-1.9,1.2-2.1,3.3c-0.1,1.8-0.1,3.4-0.1,12.1v6.1
			c0,6.3-0.6,13-5.4,17.2c-4,3.4-8.2,4-11.8,4c-3,0-8.5-0.1-12.7-3.9c-2.8-2.7-5.1-6.9-5.1-15.1v-8.2H54.8z"/>
	</g>
	<g>
		<path class="st0" d="M120.3,197.4c1.8,2.8,11.1,18.3,12.6,20.1c0.9,1.2,1.8,1.9,3.3,2.4c0.9,0.3,1.6,0.3,2.2,0.3
			c0.4,0,0.7,0.1,0.7,0.4c0,0.4-0.4,0.6-1,0.6h-1.6c-1.3,0-5.8,0-10.3-0.1c-1.5,0-1.9-0.1-1.9-0.6c0-0.3,0.3-0.4,0.7-0.6
			c0.3,0,0.4-0.6,0.1-1.3c-3.1-5.5-6.4-11.2-9-15.6l-8.4,13.6c-0.6,0.9-0.9,1.8-0.7,2.4c0,0.4,0.6,0.9,1,0.9c0.3,0,0.9,0.1,1.3,0.1
			c0.3,0,0.7,0.1,0.7,0.4c0,0.4-0.4,0.4-1.2,0.4h-1c-0.3,0-3.9-0.1-5.4-0.1c-1,0-3.9,0.1-4.8,0.1h-0.9c-0.6,0-0.9-0.1-0.9-0.4
			c0-0.3,0.3-0.4,0.7-0.4s1.2,0,2.1-0.3c1.6-0.4,2.7-1.5,4.6-4.3l10.9-15.6l-9.9-16.3c-1.3-2.2-2.7-3.6-4.8-4.3
			c-0.9-0.3-1.8-0.4-2.4-0.4c-0.3,0-0.6-0.1-0.6-0.6c0-0.3,0.4-0.4,1.2-0.4c1.3,0,6,0.1,8.7,0.1c0.7,0,4-0.1,6.1-0.1
			c0.7,0,1.2,0.1,1.2,0.4c0,0.4-0.3,0.4-0.9,0.4c-0.3,0-1,0-1.5,0.3c-0.4,0.1-0.7,0.6-0.7,0.9c0,0.3,0.3,1,0.6,1.6
			c2.4,4.6,5.1,8.7,7.2,12.6c1.6-2.5,6.9-10.5,7.8-12.1c0.4-0.7,0.6-1.6,0.6-2.2c0-0.4-0.4-0.9-0.9-1c-0.6-0.1-1.3-0.1-1.8-0.1
			c-0.3,0-0.7-0.1-0.7-0.4s0.4-0.4,1.2-0.4c2.2,0,4.6,0.1,5.7,0.1c1.2,0,3.4-0.1,5.5-0.1c0.6,0,1,0.1,1,0.4s-0.3,0.4-0.9,0.4
			c-0.6,0-1.2,0.1-2.1,0.3c-1.3,0.3-2.4,1.9-4.2,4.5L120.3,197.4z"/>
	</g>
	<g>
		<path class="st0" d="M144.3,194.7c0-8.7,0-10.3-0.1-12.1c-0.1-1.9-0.6-2.8-2.4-3.3c-0.4-0.1-1.5-0.1-2.2-0.1
			c-0.6,0-0.9-0.1-0.9-0.4c0-0.4,0.4-0.4,1.2-0.4c3,0,6.6,0.1,8.4,0.1c1.3,0,4.9-0.1,7-0.1c0.9,0,1.2,0.1,1.2,0.4
			c0,0.4-0.3,0.4-0.9,0.4c-0.6,0-0.9,0-1.6,0.1c-1.5,0.3-1.9,1.2-2.1,3.3c-0.1,1.8-0.1,3.4-0.1,12.1v7.9c0,8.2,1.6,11.8,4.5,14.1
			c2.5,2.1,5.2,2.4,7.2,2.4c2.5,0,5.5-0.7,7.9-3.1c3.1-3.1,3.3-8.2,3.3-14.2v-7.2c0-8.7,0-10.3-0.1-12.1c-0.1-1.9-0.6-2.8-2.4-3.3
			c-0.4-0.1-1.5-0.1-2.1-0.1c-0.6,0-0.9-0.1-0.9-0.4c0-0.4,0.4-0.4,1.2-0.4c2.8,0,6.6,0.1,6.6,0.1c0.7,0,4.3-0.1,6.6-0.1
			c0.7,0,1.2,0.1,1.2,0.4c0,0.4-0.3,0.4-1,0.4c-0.6,0-0.9,0-1.6,0.1c-1.5,0.3-1.9,1.2-2.1,3.3c-0.1,1.8-0.1,3.4-0.1,12.1v6.1
			c0,6.3-0.6,13-5.4,17.2c-4,3.4-8.2,4-11.8,4c-3,0-8.5-0.1-12.7-3.9c-2.8-2.7-5.1-6.9-5.1-15.1v-8.2H144.3z"/>
	</g>
	<g>
		<path class="st0" d="M195.6,194.7c0-8.7,0-10.3-0.1-12.1c-0.1-1.9-0.6-2.8-2.4-3.3c-0.4-0.1-1.5-0.1-2.2-0.1
			c-0.6,0-0.9-0.1-0.9-0.4c0-0.4,0.4-0.4,1.2-0.4c3,0,6.6,0.1,7.8,0.1c1.9,0,6.3-0.1,8.1-0.1c3.6,0,7.5,0.3,10.5,2.4
			c1.6,1,3.9,4,3.9,7.8c0,4.2-1.8,8.1-7.5,12.7c5.1,6.4,9,11.5,12.4,15c3.1,3.3,5.5,3.7,6.4,3.9c0.6,0.1,1.2,0.1,1.6,0.1
			s0.7,0.1,0.7,0.4c0,0.4-0.4,0.6-1,0.6h-5.4c-3.1,0-4.6-0.3-6.1-1c-2.4-1.3-4.6-4-7.8-8.4c-2.2-3.1-4.9-7-5.7-7.9
			c-0.3-0.3-0.6-0.4-1-0.4l-4.9-0.1c-0.3,0-0.4,0.1-0.4,0.4v0.7c0,5.2,0,9.9,0.3,12.3c0.1,1.6,0.4,2.8,2.2,3.1
			c0.9,0.1,2.1,0.3,2.8,0.3c0.4,0,0.7,0.1,0.7,0.4c0,0.4-0.4,0.6-1.2,0.6c-3.3,0-7.5-0.1-8.4-0.1c-1,0-4.6,0.1-7,0.1
			c-0.7,0-1.2-0.1-1.2-0.6c0-0.3,0.3-0.4,0.9-0.4c0.9,0,1.5-0.1,2.1-0.3c1.2-0.3,1.5-1.5,1.6-3.1c0.3-2.4,0.3-6.9,0.3-12.1v-9.9
			H195.6z M202.4,199.2c0,0.6,0.1,0.9,0.4,1c1.2,0.4,2.8,0.6,4.3,0.6c2.2,0,3-0.3,4-0.9c1.6-1.2,3.4-3.9,3.4-8.5
			c0-8.1-5.4-10.5-8.7-10.5c-1.5,0-2.4,0-3,0.3c-0.4,0.1-0.4,0.3-0.4,0.7v17.2H202.4z"/>
	</g>
	<g>
		<path class="st0" d="M244.1,206.6c0-3.1-0.6-4.3-1.3-6c-0.4-0.9-8.1-13.5-10-16.5c-1.5-2.1-2.8-3.6-3.9-4.2
			c-0.7-0.4-1.6-0.7-2.4-0.7c-0.4,0-0.9-0.1-0.9-0.4s0.4-0.4,1-0.4c1,0,5.2,0.1,7.2,0.1c1.2,0,3.6-0.1,6.1-0.1
			c0.6,0,0.9,0.1,0.9,0.4s-0.4,0.4-1.2,0.6c-0.4,0.1-0.7,0.6-0.7,1s0.3,1.2,0.7,1.9c0.7,1.6,8.8,15.4,9.7,17.1
			c0.6-1.3,7.8-13.9,8.5-15.7c0.6-1.2,0.7-2.2,0.7-3c0-0.6-0.3-1.2-1.2-1.5c-0.4-0.1-1-0.3-1-0.6c0-0.4,0.3-0.4,0.9-0.4
			c1.9,0,3.7,0.1,5.4,0.1c1.2,0,5.1-0.1,6.1-0.1c0.6,0,1,0.1,1,0.4c0,0.4-0.4,0.6-1,0.6s-1.6,0.3-2.5,0.7c-1.2,0.6-1.8,1.2-3.1,2.8
			c-1.9,2.2-9.9,15.7-10.9,18.1c-0.9,2.1-0.9,3.9-0.9,5.7v4.6c0,0.9,0,3.3,0.1,5.7c0.1,1.6,0.6,2.8,2.4,3.1c0.7,0.1,2.1,0.3,2.8,0.3
			c0.6,0,0.9,0.1,0.9,0.4c0,0.4-0.4,0.6-1.2,0.6c-3.6,0-7.2-0.1-8.7-0.1s-5.1,0.1-7.2,0.1c-0.7,0-1.2-0.1-1.2-0.6
			c0-0.3,0.3-0.4,0.9-0.4c0.7,0,1.5-0.1,1.9-0.3c1.2-0.3,1.6-1.5,1.8-3.1c0.1-2.4,0.1-4.8,0.1-5.7L244.1,206.6L244.1,206.6z"/>
	</g>
</g>
<g>
	<g>
		<path class="st0" d="M30.6,145.4c1.2,0,2.3-0.2,3.4-0.7c1.1-0.4,2-1.1,2.8-1.8c0.8-0.8,1.4-1.7,1.8-2.8c0.4-1.1,0.7-2.2,0.7-3.4
			s-0.2-2.3-0.7-3.4c-0.4-1.1-1.1-2-1.8-2.8c-0.8-0.8-1.7-1.4-2.8-1.8c-1.1-0.4-2.2-0.7-3.4-0.7H18.9v-0.8h11.7
			c1.3,0,2.5,0.3,3.7,0.8c1.2,0.5,2.2,1.2,3,2c0.9,0.9,1.5,1.9,2,3c0.5,1.2,0.8,2.4,0.8,3.7c0,1.3-0.3,2.5-0.8,3.7
			c-0.5,1.2-1.2,2.2-2,3c-0.9,0.9-1.9,1.5-3,2c-1.2,0.5-2.4,0.8-3.7,0.8V145.4z M19.7,166.4h-0.8v-39.2h0.8V166.4z M33.3,145.4
			c1.5,0,2.8,0.3,4.1,0.8c1.3,0.6,2.4,1.3,3.3,2.3c1,1,1.7,2.1,2.3,3.3c0.6,1.3,0.8,2.6,0.8,4.1c0,1.5-0.3,2.8-0.8,4.1
			c-0.6,1.3-1.3,2.4-2.3,3.4c-1,1-2.1,1.7-3.3,2.2c-1.3,0.5-2.6,0.8-4.1,0.8H18.9v-0.9h14.4c1.3,0,2.6-0.3,3.8-0.8
			c1.2-0.5,2.2-1.2,3.1-2.1c0.9-0.9,1.6-1.9,2.1-3c0.5-1.2,0.8-2.4,0.8-3.7s-0.3-2.6-0.8-3.7c-0.5-1.2-1.2-2.2-2.1-3
			c-0.9-0.9-1.9-1.6-3.1-2.1s-2.4-0.8-3.8-0.8V145.4z M33.4,146.3H18.9v-0.8h14.5V146.3z"/>
		<path class="st0" d="M33.3,166.9H18.4v-40.2h12.2c1.4,0,2.7,0.3,3.9,0.8c1.2,0.5,2.3,1.2,3.2,2.1c0.9,0.9,1.6,2,2.1,3.2
			c0.5,1.2,0.8,2.5,0.8,3.9s-0.3,2.7-0.8,3.9c-0.5,1.2-1.3,2.3-2.1,3.2c-0.5,0.5-1.1,1-1.7,1.4c0.6,0.1,1.1,0.3,1.7,0.6
			c1.3,0.6,2.5,1.4,3.5,2.4c1,1,1.8,2.2,2.4,3.5c0.6,1.3,0.9,2.8,0.9,4.3c0,1.5-0.3,3-0.9,4.3c-0.6,1.3-1.4,2.5-2.4,3.5
			c-1,1-2.2,1.8-3.5,2.3C36.3,166.6,34.9,166.9,33.3,166.9z M20.2,165h13.1c1.3,0,2.5-0.2,3.6-0.7c1.1-0.5,2.1-1.1,2.9-2
			c0.8-0.8,1.5-1.8,2-2.9c0.5-1.1,0.7-2.3,0.7-3.5c0-1.3-0.2-2.5-0.7-3.6c-0.5-1.1-1.1-2.1-2-2.9c-0.8-0.8-1.8-1.5-2.9-2
			c-1.1-0.5-2.3-0.7-3.6-0.7H20.2V165z M20.2,144.9h10.4c1.1,0,2.2-0.2,3.2-0.6c1-0.4,1.9-1,2.6-1.7c0.7-0.7,1.3-1.6,1.7-2.6
			c0.4-1,0.6-2.1,0.6-3.2s-0.2-2.2-0.6-3.2c-0.4-1-1-1.9-1.7-2.6c-0.7-0.7-1.6-1.3-2.6-1.7c-1-0.4-2.1-0.6-3.2-0.6H20.2V144.9z"/>
	</g>
	<g>
		<path class="st0" d="M52.3,166.4v-39.2h0.8v39.2H52.3z M52.3,128.1v-0.8H72v0.8H52.3z M52.3,147.2v-0.8h18v0.8H52.3z M52.3,166.4
			v-0.8H72v0.8H52.3z"/>
		<polygon class="st0" points="72.5,166.9 51.8,166.9 51.8,126.7 72.5,126.7 72.5,128.6 53.6,128.6 53.6,145.9 70.7,145.9 
			70.7,147.7 53.6,147.7 53.6,165.1 72.5,165.1 		"/>
	</g>
	<g>
		<path class="st0" d="M80.3,166.4v-39.2h0.8v39.2H80.3z M80.3,166.4v-0.8H100v0.8H80.3z"/>
		<polygon class="st0" points="100.5,166.9 79.9,166.9 79.9,126.7 81.7,126.7 81.7,165.1 100.5,165.1 		"/>
	</g>
	<g>
		<path class="st0" d="M121.8,166.4c-2.5,0-4.8-0.5-7-1.5c-2.2-1-4.1-2.4-5.7-4.2c-1.6-1.8-2.9-3.9-3.9-6.2c-1-2.4-1.4-4.9-1.4-7.6
			c0-2.7,0.5-5.2,1.4-7.6c1-2.4,2.2-4.5,3.9-6.2c1.6-1.8,3.5-3.2,5.7-4.2c2.2-1,4.5-1.5,7-1.5c2.8,0,5.4,0.7,7.9,2
			c1.2,0.6,2.4,1.5,3.5,2.5c1.1,1.1,2.1,2.2,3,3.3h-1.1c-1.6-2.3-3.6-4-5.9-5.2c-2.3-1.2-4.8-1.8-7.4-1.8c-2.4,0-4.6,0.5-6.7,1.5
			c-2.1,1-3.9,2.3-5.5,4c-1.5,1.7-2.8,3.7-3.7,6c-0.9,2.3-1.3,4.7-1.3,7.3s0.4,5,1.3,7.3c0.9,2.3,2.1,4.3,3.7,6c1.5,1.7,3.4,3,5.5,4
			c2.1,1,4.3,1.5,6.7,1.5c2.7,0,5.2-0.7,7.6-2c2.4-1.3,4.4-3.1,6-5.4l0.7,0.3c-0.9,1.2-1.9,2.3-3,3.3c-1.1,1.1-2.3,1.9-3.5,2.5
			C127.3,165.8,124.7,166.4,121.8,166.4z M124.3,150.5v-0.8h11.9v0.8H124.3z M135.4,149.6h0.8v16.7h-0.8V149.6z"/>
		<path class="st0" d="M121.8,166.9c-2.5,0-4.9-0.5-7.2-1.6c-2.2-1-4.2-2.5-5.9-4.3c-1.7-1.8-3-4-4-6.4c-1-2.4-1.5-5.1-1.5-7.8
			c0-2.7,0.5-5.4,1.5-7.8c1-2.4,2.3-4.6,4-6.4c1.7-1.8,3.6-3.3,5.9-4.3c2.2-1.1,4.7-1.6,7.2-1.6c2.8,0,5.6,0.7,8.1,2
			c1.2,0.7,2.4,1.5,3.6,2.6c1.2,1.1,2.2,2.2,3.1,3.4l0.6,0.8h-2.3l-0.1-0.2c-1.6-2.2-3.5-3.9-5.7-5.1c-2.2-1.2-4.6-1.8-7.2-1.8
			c-2.3,0-4.4,0.5-6.4,1.4c-2,1-3.8,2.3-5.3,3.9c-1.5,1.6-2.7,3.6-3.6,5.8c-0.9,2.2-1.3,4.6-1.3,7.1c0,2.5,0.4,4.9,1.3,7.1
			c0.9,2.2,2.1,4.2,3.6,5.8c1.5,1.6,3.3,3,5.3,3.9c2,1,4.2,1.4,6.4,1.4c2.6,0,5.1-0.6,7.4-1.9c2.2-1.2,4.1-2.9,5.7-5V151h-11.1v-1.8
			h12.9v9.1l0.3,0.1l-0.3,0.4v8.1h-1.8V161c-0.4,0.4-0.9,0.9-1.3,1.3c-1.2,1.1-2.4,2-3.6,2.6C127.5,166.2,124.8,166.9,121.8,166.9z"
			/>
	</g>
	<g>
		<path class="st0" d="M144.6,146.3v-0.8h11.7c1.2,0,2.3-0.2,3.4-0.7s2-1.1,2.8-1.8c0.8-0.8,1.4-1.7,1.8-2.8
			c0.4-1.1,0.7-2.2,0.7-3.4s-0.2-2.3-0.7-3.4c-0.4-1.1-1.1-2-1.8-2.8c-0.8-0.8-1.7-1.4-2.8-1.8c-1.1-0.4-2.2-0.7-3.4-0.7h-11.7v-0.8
			h11.7c1.3,0,2.5,0.3,3.7,0.8c1.2,0.5,2.2,1.2,3,2c0.9,0.9,1.5,1.9,2,3c0.5,1.2,0.8,2.4,0.8,3.7c0,1.3-0.3,2.5-0.8,3.7
			c-0.5,1.2-1.2,2.2-2,3c-0.9,0.9-1.9,1.5-3,2c-1.2,0.5-2.4,0.8-3.7,0.8H144.6z M145.4,166.4h-0.8v-39.2h0.8V166.4z M166.1,166.4
			l-10.7-20.3l0.8-0.4l10.7,20.8H166.1z"/>
		<path class="st0" d="M167.8,166.9h-2l-10.6-20.1h-9.3v20.1h-1.8v-40.2h12.2c1.4,0,2.7,0.3,3.9,0.8c1.2,0.5,2.3,1.2,3.2,2.1
			s1.6,2,2.1,3.2c0.5,1.2,0.8,2.5,0.8,3.9s-0.3,2.7-0.8,3.9c-0.5,1.2-1.2,2.3-2.1,3.2c-0.9,0.9-2,1.6-3.2,2.1
			c-0.9,0.4-1.8,0.6-2.8,0.7L167.8,166.9z M145.9,144.9h10.4c1.1,0,2.2-0.2,3.2-0.6c1-0.4,1.9-1,2.6-1.7s1.3-1.6,1.7-2.6
			c0.4-1,0.6-2.1,0.6-3.2c0-1.1-0.2-2.2-0.6-3.2c-0.4-1-1-1.9-1.7-2.6c-0.7-0.7-1.6-1.3-2.6-1.7c-1-0.4-2.1-0.6-3.2-0.6h-10.4V144.9
			z"/>
	</g>
	<g>
		<path class="st0" d="M206.4,166.4h-0.8l-14.5-38l-14.5,38h-0.8l14.9-39.2h0.9L206.4,166.4z M181.1,153.4v-0.8h19.9v0.8H181.1z"/>
		<path class="st0" d="M207.2,166.9h-1.9l-5-13h-18.5l-5,13h-1.9l15.3-40.2h1.6l0.1,0.3L207.2,166.9z M182.5,152.1h17.1l-8.5-22.3
			L182.5,152.1z"/>
	</g>
	<g>
		<path class="st0" d="M226.4,128.1h-11.6l-0.1-0.8h11.7V128.1z M214.8,127.2h0.8v39.2h-0.8V127.2z M226.5,166.4h-11.6v-0.8h11.6
			V166.4z M226.3,165.6c2.4,0,4.6-0.5,6.7-1.5c2.1-1,3.9-2.3,5.5-4c1.5-1.7,2.8-3.7,3.7-6c0.9-2.3,1.4-4.7,1.4-7.3s-0.4-5-1.3-7.3
			c-0.9-2.3-2.1-4.3-3.7-6c-1.6-1.7-3.4-3-5.5-4c-2.1-1-4.3-1.5-6.7-1.5v-0.8c2.4,0,4.7,0.5,6.8,1.5c2.2,1,4.1,2.4,5.7,4.1
			c1.6,1.7,3,3.8,3.9,6.2c1,2.4,1.5,5,1.5,7.8c0,2.4-0.4,4.8-1.2,7.1c-0.8,2.3-2,4.4-3.6,6.3c-1.5,1.8-3.4,3.3-5.7,4.5
			c-2.2,1.1-4.7,1.7-7.5,1.7V165.6z"/>
		<path class="st0" d="M227,166.9h-12.6v-38.8l-0.2-1.4l12.8,0c2.3,0.1,4.4,0.6,6.5,1.5c2.2,1,4.2,2.4,5.9,4.2c1.7,1.8,3,3.9,4,6.4
			c1,2.5,1.5,5.1,1.5,8c0,2.5-0.4,4.9-1.3,7.3c-0.8,2.4-2.1,4.5-3.6,6.4c-1.6,1.9-3.5,3.4-5.8,4.6C232,166.2,229.6,166.8,227,166.9
			L227,166.9z M225.8,165.1h0.5c2.3,0,4.4-0.5,6.4-1.4c2-1,3.8-2.3,5.3-3.9c1.5-1.6,2.7-3.6,3.6-5.8c0.9-2.2,1.3-4.6,1.3-7.1
			c0-2.5-0.4-4.9-1.3-7.1c-0.9-2.2-2.1-4.2-3.6-5.8c-1.5-1.6-3.3-3-5.3-3.9c-2-1-4.2-1.4-6.4-1.4h-10.2v36.5H225.8z"/>
	</g>
	<g>
		<path class="st0" d="M252.7,166.4v-39.2h0.8v39.2H252.7z M252.7,128.1v-0.8h19.7v0.8H252.7z M252.7,147.2v-0.8h18v0.8H252.7z
			 M252.7,166.4v-0.8h19.7v0.8H252.7z"/>
		<polygon class="st0" points="272.9,166.9 252.2,166.9 252.2,126.7 272.9,126.7 272.9,128.6 254,128.6 254,145.9 271.2,145.9 
			271.2,147.7 254,147.7 254,165.1 272.9,165.1 		"/>
	</g>
</g>
</svg>
