<?xml version="1.0" encoding="utf-8"?>
<!-- Generator: Adobe Illustrator 19.0.0, SVG Export Plug-In . SVG Version: 6.00 Build 0)  -->
<svg version="1.1" id="Layer_1" xmlns="http://www.w3.org/2000/svg" xmlns:xlink="http://www.w3.org/1999/xlink" x="0px" y="0px"
	 viewBox="0 0 700 400" style="enable-background:new 0 0 700 400;" xml:space="preserve">
<style type="text/css">
	.st0{fill:#C5B358;}
</style>
<g id="XMLID_108_">
	<g id="XMLID_121_">
		<path id="XMLID_46_" class="st0" d="M52.7,293.2c0,19.1,0,29.2,3.1,31.9c2.3,2.3,6.2,3.1,17.9,3.1c7.8,0,13.6,0,17.5-4.3
			c1.9-1.9,3.5-6.2,3.9-9c0-1.2,0.4-2.3,1.6-2.3s1.2,0.8,1.2,2.3c0,1.6-1.2,12.9-2.3,17.1c-0.8,3.1-1.6,3.9-9.4,3.9
			c-10.5,0-18.3-0.4-24.9-0.4c-6.6-0.4-12.1-0.4-18.3-0.4c-1.6,0-5.1,0-8.6,0s-7.4,0.4-10.1,0.4c-1.9,0-3.1-0.4-3.1-1.6
			c0-0.8,0.8-1.2,2.3-1.2c2.3,0,3.9-0.4,5.5-0.8c3.1-0.8,3.9-3.9,4.3-8.2c0.8-6.2,0.8-17.9,0.8-31.6v-26.1c0-22.6,0-26.9-0.4-31.6
			c-0.4-5.1-1.6-7.4-6.2-8.6c-1.2-0.4-3.1-0.4-5.1-0.4c-1.6,0-2.3-0.4-2.3-1.2c0-1.2,1.2-1.2,3.1-1.2c7,0,16.4,0.4,20.3,0.4
			c3.5,0,14.4-0.4,20.3-0.4c1.9,0,3.1,0.4,3.1,1.2c0,1.2-0.8,1.2-2.7,1.2c-1.6,0-3.9,0-5.8,0.4c-3.9,0.8-5.1,3.1-5.5,8.6
			c-0.4,4.7-0.4,9-0.4,31.6v26.9H52.7z"/>
	</g>
	<g id="XMLID_119_">
		<path id="XMLID_45_" class="st0" d="M114.7,267.1c0-22.6,0-26.9-0.4-31.6c-0.4-5.1-1.6-7.4-6.2-8.6c-1.2-0.4-3.9-0.4-5.8-0.4
			c-1.6,0-2.3-0.4-2.3-1.2c0-1.2,1.2-1.2,3.1-1.2c7.8,0,17.1,0.4,21.8,0.4c3.5,0,12.9-0.4,18.3-0.4c2.3,0,3.1,0.4,3.1,1.2
			c0,1.2-0.8,1.2-2.3,1.2s-2.3,0-4.3,0.4c-3.9,0.8-5.1,3.1-5.5,8.6c-0.4,4.7-0.4,9-0.4,31.6v20.6c0,21.4,4.3,30.8,11.7,36.6
			c6.6,5.5,13.6,6.2,18.7,6.2c6.6,0,14.4-1.9,20.6-8.2c8.2-8.2,8.6-21.4,8.6-37v-18.7c0-22.6,0-26.9-0.4-31.6
			c-0.4-5.1-1.6-7.4-6.2-8.6c-1.2-0.4-3.9-0.4-5.5-0.4s-2.3-0.4-2.3-1.2c0-1.2,1.2-1.2,3.1-1.2c7.4,0,16.8,0.4,17.1,0.4
			c1.9,0,11.3-0.4,16.8-0.4c1.9,0,3.1,0.4,3.1,1.2c0,1.2-0.8,1.2-2.7,1.2c-1.6,0-2.3,0-4.3,0.4c-3.9,0.8-5.1,3.1-5.5,8.6
			c-0.4,4.7-0.4,9-0.4,31.6v16c0,16.4-1.6,33.9-14,44.8c-10.5,9-21.4,10.5-30.8,10.5c-7.8,0-22.2-0.4-33.1-10.1
			c-7.4-7-13.2-17.9-13.2-39.3v-21.4H114.7z"/>
	</g>
	<g id="XMLID_117_">
		<path id="XMLID_44_" class="st0" d="M284.9,274.1c4.7,7.4,28.8,47.5,32.7,52.2c2.3,3.1,4.7,5.1,8.6,6.2c2.3,0.8,4.3,0.8,5.8,0.8
			c1.2,0,1.9,0.4,1.9,1.2c0,1.2-1.2,1.6-2.7,1.6H327c-3.5,0-15.2,0-26.9-0.4c-3.9,0-5.1-0.4-5.1-1.6c0-0.8,0.8-1.2,1.9-1.6
			c0.8,0,1.2-1.6,0.4-3.5c-8.2-14.4-16.8-29.2-23.4-40.5L252.2,324c-1.6,2.3-2.3,4.7-1.9,6.2c0,1.2,1.6,2.3,2.7,2.3
			c0.8,0,2.3,0.4,3.5,0.4c0.8,0,1.9,0.4,1.9,1.2c0,1.2-1.2,1.2-3.1,1.2h-2.7c-0.8,0-10.1-0.4-14-0.4c-2.7,0-10.1,0.4-12.5,0.4h-2.3
			c-1.6,0-2.3-0.4-2.3-1.2c0-0.8,0.8-1.2,1.9-1.2s3.1,0,5.5-0.8c4.3-1.2,7-3.9,12.1-11.3l28.4-40.5l-25.7-42.5
			c-3.5-5.8-7-9.4-12.5-11.3c-2.3-0.8-4.7-1.2-6.2-1.2c-0.8,0-1.6-0.4-1.6-1.6c0-0.8,1.2-1.2,3.1-1.2c3.5,0,15.6,0.4,22.6,0.4
			c1.9,0,10.5-0.4,16-0.4c1.9,0,3.1,0.4,3.1,1.2c0,1.2-0.8,1.2-2.3,1.2c-0.8,0-2.7,0-3.9,0.8c-1.2,0.4-1.9,1.6-1.9,2.3
			c0,0.8,0.8,2.7,1.6,4.3c6.2,12.1,13.2,22.6,18.7,32.7c4.3-6.6,17.9-27.3,20.3-31.6c1.2-1.9,1.6-4.3,1.6-5.8c0-1.2-1.2-2.3-2.3-2.7
			c-1.6-0.4-3.5-0.4-4.7-0.4c-0.8,0-1.9-0.4-1.9-1.2c0-0.8,1.2-1.2,3.1-1.2c5.8,0,12.1,0.4,14.8,0.4c3.1,0,9-0.4,14.4-0.4
			c1.6,0,2.7,0.4,2.7,1.2c0,0.8-0.8,1.2-2.3,1.2c-1.6,0-3.1,0.4-5.5,0.8c-3.5,0.8-6.2,5.1-10.9,11.7L284.9,274.1z"/>
	</g>
	<g id="XMLID_115_">
		<path id="XMLID_43_" class="st0" d="M347.3,267.1c0-22.6,0-26.9-0.4-31.6c-0.4-5.1-1.6-7.4-6.2-8.6c-1.2-0.4-3.9-0.4-5.8-0.4
			c-1.6,0-2.3-0.4-2.3-1.2c0-1.2,1.2-1.2,3.1-1.2c7.8,0,17.1,0.4,21.8,0.4c3.5,0,12.9-0.4,18.3-0.4c2.3,0,3.1,0.4,3.1,1.2
			c0,1.2-0.8,1.2-2.3,1.2c-1.6,0-2.3,0-4.3,0.4c-3.9,0.8-5.1,3.1-5.5,8.6c-0.4,4.7-0.4,9-0.4,31.6v20.6c0,21.4,4.3,30.8,11.7,36.6
			c6.6,5.5,13.6,6.2,18.7,6.2c6.6,0,14.4-1.9,20.6-8.2c8.2-8.2,8.6-21.4,8.6-37v-18.7c0-22.6,0-26.9-0.4-31.6
			c-0.4-5.1-1.6-7.4-6.2-8.6c-1.2-0.4-3.9-0.4-5.5-0.4c-1.6,0-2.3-0.4-2.3-1.2c0-1.2,1.2-1.2,3.1-1.2c7.4,0,17.1,0.4,17.1,0.4
			c1.9,0,11.3-0.4,17.1-0.4c1.9,0,3.1,0.4,3.1,1.2c0,1.2-0.8,1.2-2.7,1.2c-1.6,0-2.3,0-4.3,0.4c-3.9,0.8-5.1,3.1-5.5,8.6
			c-0.4,4.7-0.4,9-0.4,31.6v16c0,16.4-1.6,33.9-14,44.8c-10.5,9-21.4,10.5-30.8,10.5c-7.8,0-22.2-0.4-33.1-10.1
			c-7.4-7-13.2-17.9-13.2-39.3v-21.4H347.3z"/>
	</g>
	<g id="XMLID_111_">
		<path id="XMLID_112_" class="st0" d="M480.5,267.1c0-22.6,0-26.9-0.4-31.6c-0.4-5.1-1.6-7.4-6.2-8.6c-1.2-0.4-3.9-0.4-5.8-0.4
			c-1.6,0-2.3-0.4-2.3-1.2c0-1.2,1.2-1.2,3.1-1.2c7.8,0,17.1,0.4,20.3,0.4c5.1,0,16.4-0.4,21-0.4c9.4,0,19.5,0.8,27.3,6.2
			c4.3,2.7,10.1,10.5,10.1,20.3c0,10.9-4.7,21-19.5,33.1c13.2,16.8,23.4,30,32.3,39c8.2,8.6,14.4,9.7,16.8,10.1
			c1.6,0.4,3.1,0.4,4.3,0.4s1.9,0.4,1.9,1.2c0,1.2-1.2,1.6-2.7,1.6h-14c-8.2,0-12.1-0.8-16-2.7c-6.2-3.5-12.1-10.5-20.3-21.8
			c-5.8-8.2-12.9-18.3-14.8-20.6c-0.8-0.8-1.6-1.2-2.7-1.2l-12.9-0.4c-0.8,0-1.2,0.4-1.2,1.2v1.9c0,13.6,0,25.7,0.8,31.9
			c0.4,4.3,1.2,7.4,5.8,8.2c2.3,0.4,5.5,0.8,7.4,0.8c1.2,0,1.9,0.4,1.9,1.2c0,1.2-1.2,1.6-3.1,1.6c-8.6,0-19.5-0.4-21.8-0.4
			c-2.7,0-12.1,0.4-18.3,0.4c-1.9,0-3.1-0.4-3.1-1.6c0-0.8,0.8-1.2,2.3-1.2c2.3,0,3.9-0.4,5.5-0.8c3.1-0.8,3.9-3.9,4.3-8.2
			c0.8-6.2,0.8-17.9,0.8-31.6v-25.7H480.5z M498.1,278.8c0,1.6,0.4,2.3,1.2,2.7c3.1,1.2,7.4,1.6,11.3,1.6c5.8,0,7.8-0.8,10.5-2.3
			c4.3-3.1,9-10.1,9-22.2c0-21-14-27.3-22.6-27.3c-3.9,0-6.2,0-7.8,0.8c-1.2,0.4-1.2,0.8-1.2,1.9v44.8H498.1z"/>
	</g>
	<g id="XMLID_109_">
		<path id="XMLID_40_" class="st0" d="M606.4,297.9c0-8.2-1.6-11.3-3.5-15.6c-1.2-2.3-21-35.1-26.1-42.9c-3.9-5.5-7.4-9.4-10.1-10.9
			c-1.9-1.2-4.3-1.9-6.2-1.9c-1.2,0-2.3-0.4-2.3-1.2s1.2-1.2,2.7-1.2c2.7,0,13.6,0.4,18.7,0.4c3.1,0,9.4-0.4,16-0.4
			c1.6,0,2.3,0.4,2.3,1.2s-1.2,1.2-3.1,1.6c-1.2,0.4-1.9,1.6-1.9,2.7s0.8,3.1,1.9,5.1c1.9,4.3,23,40.1,25.3,44.4
			c1.6-3.5,20.3-36.2,22.2-40.9c1.6-3.1,1.9-5.8,1.9-7.8c0-1.6-0.8-3.1-3.1-3.9c-1.2-0.4-2.7-0.8-2.7-1.6c0-1.2,0.8-1.2,2.3-1.2
			c5.1,0,9.7,0.4,14,0.4c3.1,0,13.2-0.4,16-0.4c1.6,0,2.7,0.4,2.7,1.2c0,1.2-1.2,1.6-2.7,1.6s-4.3,0.8-6.6,1.9
			c-3.1,1.6-4.7,3.1-8.2,7.4c-5.1,5.8-25.7,40.9-28.4,47.1c-2.3,5.5-2.3,10.1-2.3,14.8v12.1c0,2.3,0,8.6,0.4,14.8
			c0.4,4.3,1.6,7.4,6.2,8.2c1.9,0.4,5.5,0.8,7.4,0.8c1.6,0,2.3,0.4,2.3,1.2c0,1.2-1.2,1.6-3.1,1.6c-9.4,0-18.7-0.4-22.6-0.4
			s-13.2,0.4-18.7,0.4c-1.9,0-3.1-0.4-3.1-1.6c0-0.8,0.8-1.2,2.3-1.2c1.9,0,3.9-0.4,5.1-0.8c3.1-0.8,4.3-3.9,4.7-8.2
			c0.4-6.2,0.4-12.5,0.4-14.8L606.4,297.9L606.4,297.9z"/>
	</g>
</g>
<g id="XMLID_48_">
	<g id="XMLID_98_">
		<path id="XMLID_103_" class="st0" d="M51.8,139.1c3.1,0,6-0.6,8.8-1.7c2.8-1.2,5.2-2.8,7.2-4.8c2-2,3.6-4.4,4.8-7.2
			c1.2-2.8,1.7-5.7,1.7-8.8c0-3.1-0.6-6-1.7-8.8c-1.2-2.8-2.8-5.2-4.8-7.2c-2-2-4.4-3.6-7.2-4.8c-2.8-1.2-5.7-1.7-8.8-1.7H21.4v-2.2
			h30.4c3.4,0,6.6,0.7,9.6,2c3,1.3,5.6,3.1,7.8,5.3c2.2,2.2,4,4.8,5.3,7.8c1.3,3,2,6.2,2,9.6c0,3.4-0.7,6.6-2,9.6
			c-1.3,3-3.1,5.6-5.3,7.8c-2.2,2.2-4.8,4-7.8,5.3c-3,1.3-6.2,2-9.6,2V139.1z M23.6,193.6h-2.2V91.8h2.2V193.6z M58.9,138.9
			c3.8,0,7.3,0.7,10.6,2.2c3.3,1.5,6.2,3.4,8.7,5.9c2.5,2.5,4.4,5.4,5.9,8.7c1.5,3.3,2.2,6.8,2.2,10.6c0,3.8-0.7,7.3-2.2,10.7
			c-1.5,3.3-3.4,6.3-5.9,8.7c-2.5,2.5-5.4,4.4-8.7,5.8c-3.3,1.4-6.8,2.1-10.6,2.1H21.4v-2.3h37.5c3.5,0,6.8-0.7,9.8-2
			c3.1-1.3,5.7-3.1,8-5.4c2.3-2.3,4.1-4.9,5.4-7.9c1.3-3,2-6.3,2-9.7s-0.7-6.7-2-9.7c-1.3-3-3.1-5.6-5.4-7.9c-2.3-2.3-4.9-4.1-8-5.4
			c-3.1-1.3-6.3-2-9.8-2V138.9z M59.1,141.3H21.4v-2.2h37.7V141.3z"/>
		<path id="XMLID_99_" class="st0" d="M58.9,194.9H20.1V90.5h31.7c3.6,0,7,0.7,10.1,2.1c3.1,1.4,5.9,3.2,8.3,5.6
			c2.3,2.3,4.2,5.1,5.6,8.2c1.4,3.2,2.1,6.6,2.1,10.1s-0.7,7-2.1,10.1c-1.4,3.1-3.2,5.9-5.6,8.3c-1.3,1.3-2.8,2.5-4.4,3.5
			c1.5,0.4,2.9,0.9,4.3,1.5c3.4,1.5,6.5,3.6,9,6.2c2.6,2.6,4.6,5.6,6.2,9c1.5,3.4,2.3,7.2,2.3,11.1c0,3.9-0.8,7.7-2.3,11.2
			c-1.5,3.5-3.6,6.5-6.2,9.1c-2.6,2.6-5.6,4.6-9.1,6.1C66.6,194.2,62.9,194.9,58.9,194.9z M24.9,190h34c3.3,0,6.4-0.6,9.3-1.9
			c2.9-1.2,5.4-3,7.6-5.1c2.2-2.2,3.9-4.7,5.1-7.5c1.2-2.8,1.9-5.9,1.9-9.2c0-3.3-0.6-6.4-1.9-9.2c-1.2-2.8-3-5.4-5.1-7.5
			c-2.2-2.1-4.7-3.9-7.6-5.1c-2.9-1.2-6-1.9-9.3-1.9h-34V190z M24.9,137.8h26.9c2.9,0,5.7-0.6,8.3-1.6c2.6-1.1,4.9-2.6,6.8-4.5
			c1.9-1.9,3.4-4.2,4.5-6.8c1.1-2.6,1.6-5.4,1.6-8.3c0-2.9-0.6-5.7-1.6-8.3c-1.1-2.6-2.6-4.9-4.5-6.8c-1.9-1.9-4.2-3.4-6.8-4.5
			c-2.6-1.1-5.4-1.6-8.3-1.6H24.9V137.8z"/>
	</g>
	<g id="XMLID_91_">
		<path id="XMLID_93_" class="st0" d="M108.1,193.6V91.8h2.2v101.8H108.1z M108.1,94v-2.2h51.2V94H108.1z M108.1,143.7v-2.2h46.7
			v2.2H108.1z M108.1,193.6v-2.2h51.2v2.2H108.1z"/>
		<polygon id="XMLID_28_" class="st0" points="160.5,194.9 106.8,194.9 106.8,90.5 160.5,90.5 160.5,95.3 111.5,95.3 111.5,140.3 
			156,140.3 156,145 111.5,145 111.5,190.1 160.5,190.1 		"/>
	</g>
	<g id="XMLID_86_">
		<path id="XMLID_88_" class="st0" d="M181,193.6V91.8h2.2v101.8H181z M181,193.6v-2.2h51.2v2.2H181z"/>
		<polygon id="XMLID_25_" class="st0" points="233.5,194.9 179.7,194.9 179.7,90.5 184.5,90.5 184.5,190.1 233.5,190.1 		"/>
	</g>
	<g id="XMLID_80_">
		<path id="XMLID_82_" class="st0" d="M288.8,193.6c-6.4,0-12.4-1.3-18.1-4c-5.7-2.7-10.6-6.3-14.8-10.9c-4.2-4.6-7.6-10-10-16.2
			c-2.5-6.2-3.7-12.8-3.7-19.8c0-7,1.2-13.6,3.7-19.8c2.5-6.2,5.8-11.6,10-16.2c4.2-4.6,9.2-8.2,14.8-10.9c5.7-2.7,11.7-4,18.1-4
			c7.2,0,14,1.7,20.5,5.1c3.1,1.6,6.1,3.9,9.1,6.6c3,2.8,5.5,5.6,7.8,8.7h-2.8c-4.3-5.9-9.4-10.4-15.3-13.6
			c-5.9-3.1-12.4-4.7-19.3-4.7c-6.1,0-11.9,1.3-17.3,3.9c-5.4,2.6-10.2,6.1-14.2,10.5c-4,4.4-7.2,9.6-9.5,15.6
			c-2.3,6-3.5,12.3-3.5,19s1.2,13,3.5,19c2.3,6,5.5,11.1,9.5,15.6c4,4.4,8.7,7.9,14.2,10.5c5.4,2.6,11.2,3.9,17.3,3.9
			c7,0,13.6-1.7,19.8-5.2c6.2-3.4,11.4-8.1,15.7-14l1.9,0.9c-2.2,3-4.8,5.9-7.8,8.7c-3,2.8-6,5-9.1,6.6
			C303.1,191.9,296.2,193.6,288.8,193.6z M295.2,152.2V150h31v2.2H295.2z M323.9,150h2.2v43.5h-2.2V150z"/>
		<path id="XMLID_21_" class="st0" d="M288.8,194.9c-6.6,0-12.8-1.4-18.7-4.1c-5.8-2.7-10.9-6.5-15.2-11.2
			c-4.3-4.7-7.8-10.3-10.3-16.6c-2.5-6.3-3.8-13.1-3.8-20.2c0-7.1,1.3-13.9,3.8-20.2c2.5-6.3,6-11.9,10.3-16.6
			c4.3-4.7,9.4-8.5,15.2-11.2c5.8-2.7,12.1-4.1,18.7-4.1c7.3,0,14.4,1.8,21.1,5.2c3.2,1.7,6.3,4,9.4,6.8c3,2.8,5.7,5.8,7.9,8.8
			l1.5,2.1h-6l-0.4-0.5c-4.1-5.7-9.1-10.2-14.8-13.2c-5.7-3-12-4.6-18.7-4.6c-5.9,0-11.5,1.3-16.7,3.7c-5.2,2.5-9.9,5.9-13.8,10.2
			c-3.9,4.3-7,9.4-9.3,15.2c-2.3,5.8-3.4,12-3.4,18.5c0,6.5,1.1,12.7,3.4,18.5c2.3,5.8,5.4,10.9,9.3,15.2c3.9,4.3,8.5,7.7,13.8,10.2
			c5.2,2.5,10.9,3.7,16.7,3.7c6.7,0,13.2-1.7,19.1-5c5.7-3.2,10.7-7.5,14.7-12.9v-18.9h-28.8v-4.8h33.6v23.7l0.7,0.3l-0.7,0.9v21.1
			h-4.8v-15.3c-1.1,1.2-2.2,2.3-3.4,3.4c-3,2.8-6.2,5.1-9.4,6.8C303.5,193.1,296.4,194.9,288.8,194.9z"/>
	</g>
	<g id="XMLID_72_">
		<path id="XMLID_76_" class="st0" d="M347.9,141.3v-2.2h30.4c3.1,0,6-0.6,8.8-1.7c2.8-1.2,5.2-2.8,7.2-4.8c2-2,3.6-4.4,4.8-7.2
			c1.2-2.8,1.7-5.7,1.7-8.8c0-3.1-0.6-6-1.7-8.8c-1.2-2.8-2.8-5.2-4.8-7.2c-2-2-4.4-3.6-7.2-4.8c-2.8-1.2-5.7-1.7-8.8-1.7h-30.4
			v-2.2h30.4c3.4,0,6.6,0.7,9.6,2c3,1.3,5.6,3.1,7.8,5.3c2.2,2.2,4,4.8,5.3,7.8c1.3,3,2,6.2,2,9.6c0,3.4-0.7,6.6-2,9.6
			c-1.3,3-3.1,5.6-5.3,7.8c-2.2,2.2-4.8,4-7.8,5.3c-3,1.3-6.2,2-9.6,2H347.9z M350.1,193.6h-2.2V91.8h2.2V193.6z M403.9,193.6
			l-27.8-52.8l2-1.2l27.9,53.9H403.9z"/>
		<path id="XMLID_73_" class="st0" d="M408.2,194.9h-5.1l-27.5-52.3h-24.2v52.3h-4.8V90.5h31.7c3.6,0,7,0.7,10.1,2.1
			c3.1,1.4,5.9,3.2,8.2,5.6c2.3,2.3,4.2,5.1,5.6,8.2c1.4,3.2,2.1,6.6,2.1,10.1c0,3.6-0.7,7-2.1,10.1c-1.4,3.1-3.2,5.9-5.6,8.2
			c-2.3,2.3-5.1,4.2-8.2,5.6c-2.3,1-4.8,1.7-7.4,1.9L408.2,194.9z M351.4,137.8h26.9c2.9,0,5.7-0.6,8.3-1.6c2.6-1.1,4.9-2.6,6.8-4.5
			s3.4-4.2,4.5-6.8c1.1-2.6,1.6-5.4,1.6-8.3c0-2.9-0.6-5.7-1.6-8.3c-1.1-2.6-2.6-4.9-4.5-6.8c-1.9-1.9-4.2-3.4-6.8-4.5
			c-2.6-1.1-5.4-1.6-8.3-1.6h-26.9V137.8z"/>
	</g>
	<g id="XMLID_65_">
		<path id="XMLID_69_" class="st0" d="M508.6,193.6h-2.2l-37.8-98.7l-37.8,98.7h-2.2l38.8-101.8h2.3L508.6,193.6z M442.7,159.9v-2.2
			h51.6v2.2H442.7z"/>
		<path id="XMLID_66_" class="st0" d="M510.4,194.9h-5l-12.9-33.7h-48l-12.9,33.7h-5l39.8-104.4h4.1l0.3,0.8L510.4,194.9z
			 M446.4,156.4h44.3l-22.2-57.9L446.4,156.4z"/>
	</g>
	<g id="XMLID_56_">
		<path id="XMLID_60_" class="st0" d="M560.5,94h-30.1l-0.3-2.2h30.4V94z M530.4,91.8h2.2v101.8h-2.2V91.8z M560.6,193.6h-30.2v-2.2
			h30.2V193.6z M560.3,191.4c6.1,0,11.9-1.3,17.3-3.9c5.4-2.6,10.2-6.1,14.2-10.5c4-4.4,7.2-9.6,9.6-15.5c2.4-5.9,3.6-12.2,3.6-18.9
			s-1.2-13-3.5-18.9c-2.3-5.9-5.5-11.1-9.6-15.5c-4.1-4.4-8.8-7.9-14.2-10.5c-5.4-2.6-11.2-3.9-17.3-3.9v-2.2
			c6.2,0,12.1,1.3,17.7,3.9c5.6,2.6,10.6,6.1,14.8,10.6c4.3,4.5,7.7,9.9,10.2,16.1c2.6,6.3,3.9,13,3.9,20.3c0,6.3-1.1,12.5-3.2,18.5
			c-2.1,6.1-5.2,11.5-9.2,16.3c-4,4.8-8.9,8.7-14.7,11.6c-5.8,3-12.3,4.4-19.6,4.4V191.4z"/>
		<path id="XMLID_57_" class="st0" d="M561.9,194.9h-32.8V94.1l-0.5-3.6l33.2,0c5.8,0.2,11.5,1.5,16.8,3.9
			c5.7,2.6,10.9,6.3,15.2,10.9c4.4,4.6,7.9,10.2,10.5,16.5c2.6,6.4,3.9,13.4,3.9,20.8c0,6.4-1.1,12.8-3.3,19
			c-2.2,6.2-5.4,11.8-9.5,16.7c-4.1,4.9-9.2,8.9-15.1,12C575,193.2,568.7,194.7,561.9,194.9L561.9,194.9z M559,190.1h1.3
			c5.9,0,11.5-1.3,16.7-3.7c5.2-2.5,9.9-5.9,13.8-10.2c3.9-4.3,7-9.4,9.3-15.1c2.3-5.7,3.5-11.9,3.5-18.4c0-6.5-1.1-12.7-3.4-18.4
			c-2.3-5.7-5.4-10.8-9.3-15.1c-3.9-4.3-8.6-7.7-13.8-10.2c-5.2-2.5-10.9-3.7-16.7-3.7h-26.5v94.8H559z"/>
	</g>
	<g id="XMLID_49_">
		<path id="XMLID_51_" class="st0" d="M628.8,193.6V91.8h2.2v101.8H628.8z M628.8,94v-2.2H680V94H628.8z M628.8,143.7v-2.2h46.7v2.2
			H628.8z M628.8,193.6v-2.2H680v2.2H628.8z"/>
		<polygon id="XMLID_1_" class="st0" points="681.3,194.9 627.5,194.9 627.5,90.5 681.3,90.5 681.3,95.3 632.3,95.3 632.3,140.3 
			676.8,140.3 676.8,145 632.3,145 632.3,190.1 681.3,190.1 		"/>
	</g>
</g>
</svg>
