<?xml version="1.0" standalone="no"?>
<!DOCTYPE svg PUBLIC "-//W3C//DTD SVG 20010904//EN"
 "http://www.w3.org/TR/2001/REC-SVG-20010904/DTD/svg10.dtd">
<svg version="1.0" xmlns="http://www.w3.org/2000/svg"
 width="16.000000pt" height="16.000000pt" viewBox="0 0 16.000000 16.000000"
 preserveAspectRatio="xMidYMid meet">
<metadata>
Created by potrace 1.11, written by Peter Selinger 2001-2013
</metadata>
<g transform="translate(0.000000,16.000000) scale(0.002286,-0.002286)"
fill="#000000" stroke="none">
<path d="M332 5580 c-5 -4 -8 -4078 -3 -4150 1 -13 97 -15 808 -14 445 1 832
4 862 8 496 68 877 433 966 926 13 75 14 314 0 375 -23 109 -50 194 -83 265
-19 40 -94 173 -102 180 -3 3 -18 23 -34 45 -88 120 -276 270 -427 339 -99 45
-270 94 -316 89 -27 -2 -10 13 45 41 223 114 412 345 491 600 30 98 36 146 36
301 -1 113 -5 157 -24 229 -58 225 -192 425 -380 568 -124 94 -319 174 -471
194 -63 8 -1358 12 -1368 4z m1368 -94 c305 -48 563 -233 692 -497 77 -158 99
-258 94 -444 -3 -116 -8 -155 -30 -228 -77 -257 -240 -454 -473 -571 -68 -34
-150 -61 -253 -84 -14 -3 -315 -7 -670 -9 l-645 -4 -1 918 c0 505 3 920 7 923
11 8 1228 4 1279 -4z m328 -1941 c427 -70 771 -408 850 -835 2 -14 6 -86 8
-161 2 -104 -1 -155 -16 -220 -33 -151 -94 -286 -185 -408 -5 -7 -43 -49 -84
-92 -129 -136 -295 -234 -489 -287 l-97 -26 -800 -1 -800 0 0 1023 0 1022 765
0 c592 -1 784 -4 848 -15z"/>
<path d="M3274 5531 c-2 -2 -4 -37 -4 -78 l0 -73 320 0 320 0 0 -1880 0 -1880
-320 0 -320 0 0 -74 c0 -50 4 -75 13 -78 10 -4 3391 -3 3408 1 3 0 6 7 6 14 0
18 14 196 18 237 2 19 6 69 9 110 11 134 17 204 21 240 3 19 7 73 10 120 3 47
7 96 10 110 2 14 7 68 10 120 4 52 8 111 10 130 2 19 7 78 11 130 3 52 7 99 8
104 0 5 -30 10 -67 11 -82 2 -72 17 -122 -180 -105 -409 -203 -615 -369 -777
-112 -109 -210 -168 -311 -185 -16 -2 -50 -9 -75 -15 -27 -6 -280 -12 -635
-15 l-591 -5 0 1881 0 1881 338 0 338 0 0 78 0 77 -1016 0 c-558 0 -1017 -2
-1020 -4z"/>
</g>
</svg>
