<?xml version="1.0" encoding="utf-8"?>
<!-- Generator: Adobe Illustrator 16.0.0, SVG Export Plug-In . SVG Version: 6.00 Build 0)  -->
<!DOCTYPE svg PUBLIC "-//W3C//DTD SVG 1.1//EN" "http://www.w3.org/Graphics/SVG/1.1/DTD/svg11.dtd">
<svg version="1.1" id="Layer_1" xmlns="http://www.w3.org/2000/svg" xmlns:xlink="http://www.w3.org/1999/xlink" x="0px" y="0px"
	 width="283.46px" height="226.77px" viewBox="0 0 283.46 226.77" enable-background="new 0 0 283.46 226.77" xml:space="preserve">
<radialGradient id="SVGID_1_" cx="236.5098" cy="108.395" r="33.2063" gradientUnits="userSpaceOnUse">
	<stop  offset="0" style="stop-color:#FFF58A"/>
	<stop  offset="1" style="stop-color:#C49A2B"/>
</radialGradient>
<line fill="none" stroke="url(#SVGID_1_)" stroke-width="2" stroke-miterlimit="10" x1="189.56" y1="108.395" x2="283.46" y2="108.395"/>
<radialGradient id="SVGID_2_" cx="48.3062" cy="108.5244" r="32.9312" gradientUnits="userSpaceOnUse">
	<stop  offset="0" style="stop-color:#FFF58A"/>
	<stop  offset="1" style="stop-color:#C49A2B"/>
</radialGradient>
<line fill="none" stroke="url(#SVGID_2_)" stroke-width="2" stroke-miterlimit="10" x1="1.745" y1="108.524" x2="94.867" y2="108.524"/>
<text transform="matrix(1 0 0 1 122.0459 220.3457)" fill="#C6A209" font-family="'BodoniMT'" font-size="8.9809">LUXURY</text>
<g>
	<text transform="matrix(1 0 0 1 120.6641 212.4492)" fill="#C6A209" font-family="'Elegantlight'" font-size="10.978">BELGRADE</text>
	<text transform="matrix(1 0 0 1 120.6641 212.4492)" fill="#C6A209" font-family="'Elegantlight'" font-size="10.978">BELGRADE</text>
</g>
<text transform="matrix(1 0 0 1 103.7607 100.604)"><tspan x="0" y="0" fill="#C6A209" stroke="#C6A209" stroke-width="0.4671" stroke-miterlimit="10" font-family="'Elegantlight'" font-size="17.3641" letter-spacing="2">BUSSINES</tspan><tspan x="14.09" y="19.534" fill="#C6A209" stroke="#C6A209" stroke-width="0.4671" stroke-miterlimit="10" font-family="'Elegantlight'" font-size="10.8526" letter-spacing="1">PACKAGE</tspan></text>
<radialGradient id="SVGID_3_" cx="142.0757" cy="13.3301" r="1.106" gradientUnits="userSpaceOnUse">
	<stop  offset="0" style="stop-color:#FFF58A"/>
	<stop  offset="1" style="stop-color:#C49A2B"/>
</radialGradient>
<path fill="url(#SVGID_3_)" d="M143.182,13.331c0,0.613-0.496,1.105-1.104,1.105c-0.612,0-1.108-0.493-1.108-1.105
	c0-0.609,0.496-1.107,1.108-1.107C142.686,12.224,143.182,12.721,143.182,13.331z"/>
<radialGradient id="SVGID_4_" cx="142.1162" cy="42.6631" r="80.3351" gradientUnits="userSpaceOnUse">
	<stop  offset="0" style="stop-color:#FFF58A"/>
	<stop  offset="1" style="stop-color:#C49A2B"/>
</radialGradient>
<polyline fill="none" stroke="url(#SVGID_4_)" stroke-miterlimit="10" points="250.353,76.688 194.173,76.457 194.173,48.24 
	180.874,48.24 180.874,76.688 172.229,76.688 172.229,33.316 158.655,21.392 158.655,76.688 153.991,76.688 153.991,8.639 
	130.162,8.639 130.162,76.688 125.501,76.688 125.501,21.392 111.926,33.316 111.926,76.688 103.566,76.688 103.566,48.24 
	90.003,48.24 90.003,76.457 33.879,76.688 "/>
<radialGradient id="SVGID_5_" cx="141.8252" cy="183.0371" r="9.3088" gradientUnits="userSpaceOnUse">
	<stop  offset="0" style="stop-color:#FFF58A"/>
	<stop  offset="1" style="stop-color:#C49A2B"/>
</radialGradient>
<line fill="none" stroke="url(#SVGID_5_)" stroke-width="0.25" stroke-miterlimit="10" x1="154.989" y1="183.037" x2="128.662" y2="183.037"/>
<radialGradient id="SVGID_6_" cx="141.8262" cy="169.7275" r="20.7202" gradientUnits="userSpaceOnUse">
	<stop  offset="0" style="stop-color:#FFF58A"/>
	<stop  offset="1" style="stop-color:#C49A2B"/>
</radialGradient>
<line fill="none" stroke="url(#SVGID_6_)" stroke-width="0.5" stroke-miterlimit="10" x1="171.128" y1="169.728" x2="112.524" y2="169.728"/>
<radialGradient id="SVGID_7_" cx="141.8247" cy="156.4219" r="32.433" gradientUnits="userSpaceOnUse">
	<stop  offset="0" style="stop-color:#FFF58A"/>
	<stop  offset="1" style="stop-color:#C49A2B"/>
</radialGradient>
<line fill="none" stroke="url(#SVGID_7_)" stroke-width="0.75" stroke-miterlimit="10" x1="187.69" y1="156.422" x2="95.959" y2="156.422"/>
<radialGradient id="SVGID_8_" cx="141.8242" cy="143.1152" r="50.752" gradientUnits="userSpaceOnUse">
	<stop  offset="0" style="stop-color:#FFF58A"/>
	<stop  offset="1" style="stop-color:#C49A2B"/>
</radialGradient>
<line fill="none" stroke="url(#SVGID_8_)" stroke-miterlimit="10" x1="213.597" y1="143.115" x2="70.052" y2="143.115"/>
<g>
	
		<radialGradient id="SVGID_9_" cx="394.373" cy="88.8882" r="16.7878" gradientTransform="matrix(0.9918 0 0 1 1.0239 0)" gradientUnits="userSpaceOnUse">
		<stop  offset="0" style="stop-color:#FFF58A"/>
		<stop  offset="1" style="stop-color:#C49A2B"/>
	</radialGradient>
	
		<line fill="none" stroke="url(#SVGID_9_)" stroke-width="0.9959" stroke-miterlimit="10" x1="415.705" y1="88.888" x2="368.623" y2="88.888"/>
	
		<radialGradient id="SVGID_10_" cx="276.5264" cy="88.8882" r="16.8147" gradientTransform="matrix(0.9918 0 0 1 1.0239 0)" gradientUnits="userSpaceOnUse">
		<stop  offset="0" style="stop-color:#FFF58A"/>
		<stop  offset="1" style="stop-color:#C49A2B"/>
	</radialGradient>
	
		<line fill="none" stroke="url(#SVGID_10_)" stroke-width="0.9959" stroke-miterlimit="10" x1="298.862" y1="88.888" x2="251.704" y2="88.888"/>
</g>
<text transform="matrix(1 0 0 1 306.0645 85.2397)"><tspan x="0" y="0" fill="#EABA34" font-family="'GeosansLight'" font-size="14.4935">BUSSINES</tspan><tspan x="4.348" y="17.392" fill="#EABA34" font-family="'GeosansLight'" font-size="14.4935">package</tspan></text>
<radialGradient id="SVGID_11_" cx="333.6113" cy="21.7622" r="60.0579" gradientUnits="userSpaceOnUse">
	<stop  offset="0" style="stop-color:#FFF58A"/>
	<stop  offset="1" style="stop-color:#C49A2B"/>
</radialGradient>
<polyline fill="none" stroke="url(#SVGID_11_)" stroke-width="0.9345" stroke-miterlimit="10" points="408.617,61.145 
	368.465,61.145 368.465,10.943 352.75,-2.858 352.75,61.145 347.355,61.145 347.355,-17.621 319.769,-17.621 319.769,61.145 
	314.375,61.145 314.375,-2.858 298.661,10.943 298.661,61.145 258.605,61.145 "/>
<radialGradient id="SVGID_12_" cx="333.9531" cy="144.5938" r="6.109" gradientUnits="userSpaceOnUse">
	<stop  offset="0" style="stop-color:#FFF58A"/>
	<stop  offset="1" style="stop-color:#C49A2B"/>
</radialGradient>
<line fill="none" stroke="url(#SVGID_12_)" stroke-width="0.7701" stroke-miterlimit="10" x1="342.584" y1="144.594" x2="325.322" y2="144.594"/>
<radialGradient id="SVGID_13_" cx="333.9531" cy="135.8691" r="13.5869" gradientUnits="userSpaceOnUse">
	<stop  offset="0" style="stop-color:#FFF58A"/>
	<stop  offset="1" style="stop-color:#C49A2B"/>
</radialGradient>
<line fill="none" stroke="url(#SVGID_13_)" stroke-width="0.7701" stroke-miterlimit="10" x1="353.164" y1="135.869" x2="314.742" y2="135.869"/>
<radialGradient id="SVGID_14_" cx="333.9531" cy="127.1445" r="21.2647" gradientUnits="userSpaceOnUse">
	<stop  offset="0" style="stop-color:#FFF58A"/>
	<stop  offset="1" style="stop-color:#C49A2B"/>
</radialGradient>
<line fill="none" stroke="url(#SVGID_14_)" stroke-width="0.7701" stroke-miterlimit="10" x1="364.023" y1="127.145" x2="303.883" y2="127.145"/>
<radialGradient id="SVGID_15_" cx="333.9531" cy="118.4199" r="33.2738" gradientUnits="userSpaceOnUse">
	<stop  offset="0" style="stop-color:#FFF58A"/>
	<stop  offset="1" style="stop-color:#C49A2B"/>
</radialGradient>
<line fill="none" stroke="url(#SVGID_15_)" stroke-width="0.7701" stroke-miterlimit="10" x1="381.008" y1="118.42" x2="286.898" y2="118.42"/>
</svg>
